<?xml version="1.0" encoding="UTF-8" standalone="no"?>
<svg
   xmlns:dc="http://purl.org/dc/elements/1.1/"
   xmlns:cc="http://creativecommons.org/ns#"
   xmlns:rdf="http://www.w3.org/1999/02/22-rdf-syntax-ns#"
   xmlns:svg="http://www.w3.org/2000/svg"
   xmlns="http://www.w3.org/2000/svg"
   xmlns:xlink="http://www.w3.org/1999/xlink"
   xmlns:sodipodi="http://sodipodi.sourceforge.net/DTD/sodipodi-0.dtd"
   xmlns:inkscape="http://www.inkscape.org/namespaces/inkscape"
   inkscape:version="1.0 (6e3e5246a0, 2020-05-07)"
   sodipodi:docname="other_hist19.svg"
   id="svg513"
   width="576pt"
   viewBox="0 0 576 396"
   version="1.1"
   height="396pt">
  <metadata
     id="metadata517">
    <rdf:RDF>
      <cc:Work
         rdf:about="">
        <dc:format>image/svg+xml</dc:format>
        <dc:type
           rdf:resource="http://purl.org/dc/dcmitype/StillImage" />
      </cc:Work>
    </rdf:RDF>
  </metadata>
  <sodipodi:namedview
     inkscape:current-layer="svg513"
     inkscape:window-maximized="1"
     inkscape:window-y="0"
     inkscape:window-x="0"
     inkscape:cy="165.63284"
     inkscape:cx="453.05022"
     inkscape:zoom="0.76609849"
     showgrid="false"
     id="namedview515"
     inkscape:window-height="1136"
     inkscape:window-width="1920"
     inkscape:pageshadow="2"
     inkscape:pageopacity="0"
     guidetolerance="10"
     gridtolerance="10"
     objecttolerance="10"
     borderopacity="1"
     bordercolor="#666666"
     pagecolor="#ffffff" />
  <defs
     id="defs4">
    <style
       id="style2"
       type="text/css">
*{stroke-linecap:butt;stroke-linejoin:round;}
  </style>
    <defs
       id="defs397">
      <path
         d="M 35.15625,61.1875 V 0 H 25.875 V 61.1875 H 2.25 v 7.609375 H 58.796875 V 61.1875 Z"
         id="LiberationSans-84" />
      <path
         d="m 13.421875,26.65625 q 0,-4.53125 0.65625,-8.34375 Q 14.75,14.5 16.3125,11.734375 17.875,8.984375 20.4375,7.46875 23,5.953125 26.765625,5.953125 q 4.6875,0 7.828125,2.53125 3.15625,2.546875 3.890625,7.828125 l 8.875,-0.59375 Q 46.921875,12.453125 45.453125,9.421875 44,6.390625 41.484375,4.09375 38.96875,1.8125 35.34375,0.40625 31.734375,-0.984375 27,-0.984375 q -6.203125,0 -10.546875,2.09375 Q 12.109375,3.21875 9.390625,6.90625 6.6875,10.59375 5.46875,15.59375 4.25,20.609375 4.25,26.46875 q 0,5.3125 0.875,9.390625 0.875,4.078125 2.46875,7.125 1.59375,3.0625 3.734375,5.140625 2.15625,2.078125 4.65625,3.3125 2.515625,1.25 5.296875,1.8125 2.796875,0.5625 5.625,0.5625 4.4375,0 7.90625,-1.21875 Q 38.28125,51.375 40.796875,49.25 43.3125,47.125 44.875,44.234375 q 1.5625,-2.875 2.203125,-6.203125 L 38.03125,37.359375 q -0.671875,4.390625 -3.46875,6.96875 -2.78125,2.59375 -7.90625,2.59375 -3.75,0 -6.265625,-1.25 Q 17.875,44.4375 16.3125,41.921875 14.75,39.40625 14.078125,35.59375 q -0.65625,-3.8125 -0.65625,-8.9375 z"
         id="LiberationSans-99" />
      <path
         d="m 50.875,35.796875 q 0,-9.1875 -1.734375,-16.09375 -1.734375,-6.90625 -4.953125,-11.5 -3.21875,-4.59375 -7.84375,-6.890625 -4.609375,-2.296875 -10.359375,-2.296875 -3.96875,0 -7.140625,0.8125 -3.171875,0.8125 -5.671875,2.515625 -2.484375,1.703125 -4.25,4.4375 -1.75,2.734375 -2.8125,6.59375 L 14.5,14.703125 q 1.375,-4.453125 4.28125,-6.53125 2.90625,-2.0625 7.34375,-2.0625 3.5625,0 6.515625,1.671875 2.953125,1.6875 5.03125,5.0625 2.078125,3.375 3.25,8.453125 Q 42.09375,26.375 42.1875,33.203125 41.15625,30.90625 39.375,29.09375 37.59375,27.296875 35.328125,26.046875 33.0625,24.8125 30.421875,24.140625 q -2.640625,-0.65625 -5.328125,-0.65625 -4.6875,0 -8.46875,1.6875 -3.78125,1.6875 -6.421875,4.703125 Q 7.5625,32.90625 6.125,37.171875 4.6875,41.453125 4.6875,46.6875 q 0,5.3125 1.53125,9.609375 1.546875,4.296875 4.46875,7.296875 2.9375,3.015625 7.203125,4.625 4.28125,1.609375 9.703125,1.609375 11.46875,0 17.375,-8.5 5.90625,-8.5 5.90625,-25.53125 z m -9.5625,8.484375 q 0,3.8125 -0.90625,7.171875 -0.90625,3.375 -2.6875,5.859375 -1.78125,2.5 -4.390625,3.9375 -2.609375,1.453125 -6.03125,1.453125 -3.171875,0 -5.71875,-1.125 -2.53125,-1.125 -4.296875,-3.203125 -1.75,-2.078125 -2.703125,-5.0625 Q 13.625,50.34375 13.625,46.6875 q 0,-3.46875 0.84375,-6.453125 0.859375,-2.984375 2.5625,-5.15625 1.71875,-2.171875 4.25,-3.421875 2.546875,-1.234375 5.921875,-1.234375 2.4375,0 4.953125,0.828125 2.515625,0.828125 4.53125,2.53125 2.03125,1.71875 3.328125,4.328125 1.296875,2.609375 1.296875,6.171875 z"
         id="LiberationSans-57" />
    </defs>
  </defs>
  <g
     inkscape:export-ydpi="96"
     inkscape:export-xdpi="96"
     id="g2515">
    <path
       d="M 0,396 H 576 V 0 H 0 Z"
       style="fill:#ffffff"
       id="path6" />
    <path
       id="path9"
       style="fill:#eaeaf2"
       d="M 72,346.5 H 518.4 V 47.52 H 72 Z" />
    <g
       id="xtick_1">
      <g
         id="line2d_1">
        <path
           id="path12"
           style="fill:none;stroke:#ffffff;stroke-linecap:round"
           d="M 74.896987,346.5 V 47.52"
           clip-path="url(#p8f9b3d33b5)" />
      </g>
      <g
         id="line2d_2" />
      <g
         id="text_1">
        <!-- 10000 -->
        <defs
           id="defs18">
          <path
             id="LiberationSans-49"
             d="m 7.625,0 v 7.46875 h 17.515625 v 52.9375 L 9.625,49.3125 v 8.3125 l 16.25,11.171875 h 8.109375 V 7.46875 h 16.75 V 0 Z" />
          <path
             id="LiberationSans-48"
             d="m 51.703125,34.421875 q 0,-9.90625 -1.875,-16.671875 -1.875,-6.765625 -5.125,-10.9375 -3.25,-4.171875 -7.640625,-5.984375 -4.390625,-1.8125 -9.375,-1.8125 -5.03125,0 -9.375,1.8125 -4.34375,1.8125 -7.546875,5.953125 Q 7.5625,10.9375 5.734375,17.703125 3.90625,24.46875 3.90625,34.421875 q 0,10.40625 1.828125,17.21875 1.828125,6.8125 5.046875,10.859375 3.234375,4.046875 7.625,5.6875 4.390625,1.640625 9.578125,1.640625 4.921875,0 9.234375,-1.640625 Q 41.546875,66.546875 44.765625,62.5 48,58.453125 49.84375,51.640625 q 1.859375,-6.8125 1.859375,-17.21875 z m -8.921875,0 q 0,8.203125 -0.984375,13.640625 -0.96875,5.453125 -2.875,8.703125 -1.90625,3.25 -4.671875,4.59375 -2.75,1.34375 -6.265625,1.34375 -3.71875,0 -6.546875,-1.375 -2.828125,-1.359375 -4.765625,-4.609375 -1.921875,-3.25 -2.90625,-8.703125 -0.96875,-5.4375 -0.96875,-13.59375 0,-7.90625 1,-13.328125 1,-5.421875 2.921875,-8.71875 1.9375,-3.296875 4.71875,-4.734375 2.78125,-1.4375 6.34375,-1.4375 3.46875,0 6.25,1.4375 2.78125,1.4375 4.703125,4.734375 1.9375,3.296875 2.984375,8.71875 1.0625,5.421875 1.0625,13.328125 z" />
        </defs>
        <g
           id="g30"
           transform="matrix(0.1,0,0,-0.1,60.994644,360.74687)"
           style="fill:#262626">
          <use
             height="100%"
             width="100%"
             y="0"
             x="0"
             id="use20"
             xlink:href="#LiberationSans-49" />
          <use
             height="100%"
             width="100%"
             y="0"
             id="use22"
             xlink:href="#LiberationSans-48"
             x="55.615234" />
          <use
             height="100%"
             width="100%"
             y="0"
             id="use24"
             xlink:href="#LiberationSans-48"
             x="111.23047" />
          <use
             height="100%"
             width="100%"
             y="0"
             id="use26"
             xlink:href="#LiberationSans-48"
             x="166.8457" />
          <use
             height="100%"
             width="100%"
             y="0"
             id="use28"
             xlink:href="#LiberationSans-48"
             x="222.46094" />
        </g>
      </g>
    </g>
    <g
       id="xtick_2">
      <g
         id="line2d_3">
        <path
           id="path34"
           style="fill:none;stroke:#ffffff;stroke-linecap:round"
           d="M 138.44246,346.5 V 47.52"
           clip-path="url(#p8f9b3d33b5)" />
      </g>
      <g
         id="line2d_4" />
      <g
         id="text_2">
        <!-- 20000 -->
        <defs
           id="defs39">
          <path
             id="LiberationSans-50"
             d="m 5.03125,0 v 6.203125 q 2.484375,5.71875 6.078125,10.078125 3.59375,4.375 7.546875,7.90625 3.953125,3.546875 7.828125,6.578125 Q 30.375,33.796875 33.5,36.8125 q 3.125,3.03125 5.046875,6.34375 1.9375,3.328125 1.9375,7.53125 0,2.921875 -0.890625,5.140625 -0.875,2.234375 -2.53125,3.734375 -1.65625,1.515625 -3.984375,2.265625 -2.3125,0.765625 -5.140625,0.765625 -2.640625,0 -4.96875,-0.734375 -2.3125,-0.71875 -4.125,-2.1875 Q 17.046875,58.203125 15.890625,56.03125 14.75,53.859375 14.40625,50.984375 L 5.421875,51.8125 q 0.4375,3.703125 2.046875,6.96875 1.609375,3.28125 4.4375,5.75 2.84375,2.46875 6.8125,3.875 3.984375,1.421875 9.21875,1.421875 5.125,0 9.125,-1.21875 4,-1.21875 6.75,-3.625 2.765625,-2.390625 4.234375,-5.90625 1.46875,-3.515625 1.46875,-8.09375 0,-3.46875 -1.25,-6.59375 -1.25,-3.125 -3.328125,-5.96875 -2.0625,-2.828125 -4.796875,-5.46875 -2.734375,-2.625 -5.71875,-5.140625 -2.96875,-2.515625 -6,-4.984375 -3.03125,-2.46875 -5.703125,-4.96875 Q 20.0625,15.375 17.96875,12.8125 15.875,10.25 14.703125,7.46875 H 50.59375 V 0 Z" />
        </defs>
        <g
           id="g51"
           transform="matrix(0.1,0,0,-0.1,124.54012,360.74687)"
           style="fill:#262626">
          <use
             height="100%"
             width="100%"
             y="0"
             x="0"
             id="use41"
             xlink:href="#LiberationSans-50" />
          <use
             height="100%"
             width="100%"
             y="0"
             id="use43"
             xlink:href="#LiberationSans-48"
             x="55.615234" />
          <use
             height="100%"
             width="100%"
             y="0"
             id="use45"
             xlink:href="#LiberationSans-48"
             x="111.23047" />
          <use
             height="100%"
             width="100%"
             y="0"
             id="use47"
             xlink:href="#LiberationSans-48"
             x="166.8457" />
          <use
             height="100%"
             width="100%"
             y="0"
             id="use49"
             xlink:href="#LiberationSans-48"
             x="222.46094" />
        </g>
      </g>
    </g>
    <g
       id="xtick_3">
      <g
         id="line2d_5">
        <path
           id="path55"
           style="fill:none;stroke:#ffffff;stroke-linecap:round"
           d="M 201.98794,346.5 V 47.52"
           clip-path="url(#p8f9b3d33b5)" />
      </g>
      <g
         id="line2d_6" />
      <g
         id="text_3">
        <!-- 30000 -->
        <defs
           id="defs60">
          <path
             id="LiberationSans-51"
             d="m 51.21875,19 q 0,-4.734375 -1.546875,-8.453125 Q 48.140625,6.84375 45.1875,4.265625 42.234375,1.703125 37.859375,0.359375 33.5,-0.984375 27.875,-0.984375 q -6.390625,0 -10.765625,1.59375 Q 12.75,2.203125 9.90625,4.8125 7.078125,7.421875 5.65625,10.765625 4.25,14.109375 3.8125,17.671875 L 12.890625,18.5 q 0.390625,-2.734375 1.4375,-4.984375 Q 15.375,11.28125 17.1875,9.671875 19,8.0625 21.625,7.171875 q 2.640625,-0.875 6.25,-0.875 6.640625,0 10.421875,3.265625 3.796875,3.28125 3.796875,9.71875 0,3.8125 -1.6875,6.125 -1.6875,2.328125 -4.203125,3.625 -2.515625,1.296875 -5.46875,1.734375 -2.953125,0.4375 -5.4375,0.4375 H 20.3125 V 38.8125 h 4.78125 q 2.5,0 5.171875,0.515625 2.6875,0.515625 4.90625,1.859375 2.234375,1.34375 3.671875,3.640625 1.4375,2.296875 1.4375,5.859375 0,5.515625 -3.25,8.703125 -3.234375,3.203125 -9.640625,3.203125 -5.8125,0 -9.40625,-2.984375 Q 14.40625,56.640625 13.8125,51.21875 l -8.828125,0.6875 q 0.53125,4.546875 2.484375,7.90625 1.953125,3.375 4.953125,5.59375 3.015625,2.21875 6.859375,3.3125 3.859375,1.109375 8.203125,1.109375 5.765625,0 9.90625,-1.453125 4.15625,-1.4375 6.796875,-3.90625 2.640625,-2.453125 3.875,-5.78125 1.25,-3.3125 1.25,-7.078125 0,-3.03125 -0.828125,-5.671875 -0.828125,-2.625 -2.59375,-4.734375 -1.75,-2.09375 -4.46875,-3.609375 -2.703125,-1.515625 -6.515625,-2.296875 v -0.1875 q 4.15625,-0.4375 7.234375,-1.890625 3.078125,-1.4375 5.078125,-3.59375 2,-2.140625 3,-4.875 1,-2.734375 1,-5.75 z" />
        </defs>
        <g
           id="g72"
           transform="matrix(0.1,0,0,-0.1,188.08559,360.74687)"
           style="fill:#262626">
          <use
             height="100%"
             width="100%"
             y="0"
             x="0"
             id="use62"
             xlink:href="#LiberationSans-51" />
          <use
             height="100%"
             width="100%"
             y="0"
             id="use64"
             xlink:href="#LiberationSans-48"
             x="55.615234" />
          <use
             height="100%"
             width="100%"
             y="0"
             id="use66"
             xlink:href="#LiberationSans-48"
             x="111.23047" />
          <use
             height="100%"
             width="100%"
             y="0"
             id="use68"
             xlink:href="#LiberationSans-48"
             x="166.8457" />
          <use
             height="100%"
             width="100%"
             y="0"
             id="use70"
             xlink:href="#LiberationSans-48"
             x="222.46094" />
        </g>
      </g>
    </g>
    <g
       id="xtick_4">
      <g
         id="line2d_7">
        <path
           id="path76"
           style="fill:none;stroke:#ffffff;stroke-linecap:round"
           d="M 265.53341,346.5 V 47.52"
           clip-path="url(#p8f9b3d33b5)" />
      </g>
      <g
         id="line2d_8" />
      <g
         id="text_4">
        <!-- 40000 -->
        <defs
           id="defs81">
          <path
             id="LiberationSans-52"
             d="M 43.015625,15.578125 V 0 H 34.71875 V 15.578125 H 2.296875 v 6.828125 l 31.5,46.390625 h 9.21875 V 22.515625 H 52.6875 v -6.9375 z m -8.296875,43.3125 q -0.09375,-0.25 -0.484375,-0.953125 -0.390625,-0.703125 -0.890625,-1.59375 -0.484375,-0.875 -1,-1.78125 -0.5,-0.90625 -0.890625,-1.484375 L 13.8125,27.09375 Q 13.578125,26.703125 13.109375,26.0625 12.640625,25.4375 12.15625,24.78125 11.671875,24.125 11.171875,23.484375 10.6875,22.859375 10.40625,22.515625 h 24.3125 z" />
        </defs>
        <g
           id="g93"
           transform="matrix(0.1,0,0,-0.1,251.63107,360.74687)"
           style="fill:#262626">
          <use
             height="100%"
             width="100%"
             y="0"
             x="0"
             id="use83"
             xlink:href="#LiberationSans-52" />
          <use
             height="100%"
             width="100%"
             y="0"
             id="use85"
             xlink:href="#LiberationSans-48"
             x="55.615234" />
          <use
             height="100%"
             width="100%"
             y="0"
             id="use87"
             xlink:href="#LiberationSans-48"
             x="111.23047" />
          <use
             height="100%"
             width="100%"
             y="0"
             id="use89"
             xlink:href="#LiberationSans-48"
             x="166.8457" />
          <use
             height="100%"
             width="100%"
             y="0"
             id="use91"
             xlink:href="#LiberationSans-48"
             x="222.46094" />
        </g>
      </g>
    </g>
    <g
       id="xtick_5">
      <g
         id="line2d_9">
        <path
           id="path97"
           style="fill:none;stroke:#ffffff;stroke-linecap:round"
           d="M 329.07889,346.5 V 47.52"
           clip-path="url(#p8f9b3d33b5)" />
      </g>
      <g
         id="line2d_10" />
      <g
         id="text_5">
        <!-- 50000 -->
        <defs
           id="defs102">
          <path
             id="LiberationSans-53"
             d="m 51.421875,22.40625 q 0,-5.171875 -1.5625,-9.46875 Q 48.296875,8.640625 45.21875,5.53125 42.140625,2.4375 37.578125,0.71875 33.015625,-0.984375 27,-0.984375 q -5.421875,0 -9.453125,1.265625 -4.015625,1.28125 -6.8125,3.5 Q 7.953125,6 6.3125,8.984375 4.6875,11.96875 4,15.375 l 8.890625,1.03125 q 0.53125,-1.953125 1.5,-3.78125 Q 15.375,10.796875 17.0625,9.34375 18.75,7.90625 21.21875,7.046875 q 2.46875,-0.84375 5.984375,-0.84375 3.40625,0 6.1875,1.046875 2.796875,1.046875 4.765625,3.09375 1.984375,2.0625 3.046875,5.03125 1.078125,2.984375 1.078125,6.84375 0,3.171875 -1.03125,5.828125 -1.015625,2.671875 -2.921875,4.59375 -1.90625,1.9375 -4.671875,3 -2.75,1.078125 -6.265625,1.078125 -2.1875,0 -4.046875,-0.390625 Q 21.484375,35.9375 19.890625,35.25 18.3125,34.578125 17.015625,33.671875 15.71875,32.765625 14.59375,31.78125 H 6 L 8.296875,68.796875 H 47.40625 v -7.46875 H 16.3125 L 14.984375,39.5 q 2.34375,1.8125 5.859375,3.09375 3.515625,1.296875 8.359375,1.296875 5.125,0 9.21875,-1.5625 4.109375,-1.5625 6.984375,-4.421875 2.890625,-2.84375 4.453125,-6.796875 1.5625,-3.953125 1.5625,-8.703125 z" />
        </defs>
        <g
           id="g114"
           transform="matrix(0.1,0,0,-0.1,315.17654,360.74687)"
           style="fill:#262626">
          <use
             height="100%"
             width="100%"
             y="0"
             x="0"
             id="use104"
             xlink:href="#LiberationSans-53" />
          <use
             height="100%"
             width="100%"
             y="0"
             id="use106"
             xlink:href="#LiberationSans-48"
             x="55.615234" />
          <use
             height="100%"
             width="100%"
             y="0"
             id="use108"
             xlink:href="#LiberationSans-48"
             x="111.23047" />
          <use
             height="100%"
             width="100%"
             y="0"
             id="use110"
             xlink:href="#LiberationSans-48"
             x="166.8457" />
          <use
             height="100%"
             width="100%"
             y="0"
             id="use112"
             xlink:href="#LiberationSans-48"
             x="222.46094" />
        </g>
      </g>
    </g>
    <g
       id="xtick_6">
      <g
         id="line2d_11">
        <path
           id="path118"
           style="fill:none;stroke:#ffffff;stroke-linecap:round"
           d="M 392.62436,346.5 V 47.52"
           clip-path="url(#p8f9b3d33b5)" />
      </g>
      <g
         id="line2d_12" />
      <g
         id="text_6">
        <!-- 60000 -->
        <defs
           id="defs123">
          <path
             id="LiberationSans-54"
             d="m 51.21875,22.515625 q 0,-5.1875 -1.4375,-9.515625 -1.4375,-4.3125 -4.25,-7.421875 Q 42.71875,2.484375 38.5625,0.75 34.421875,-0.984375 29,-0.984375 q -6,0 -10.5,2.296875 Q 14.015625,3.609375 11.03125,7.921875 8.0625,12.25 6.5625,18.53125 5.078125,24.8125 5.078125,32.8125 q 0,9.1875 1.6875,16.109375 1.6875,6.9375 4.859375,11.578125 3.171875,4.640625 7.734375,6.984375 4.5625,2.34375 10.328125,2.34375 3.515625,0 6.59375,-0.734375 3.078125,-0.734375 5.59375,-2.375 2.515625,-1.625 4.40625,-4.3125 1.90625,-2.6875 3.03125,-6.59375 l -8.390625,-1.515625 q -1.375,4.4375 -4.375,6.421875 -3,1.984375 -6.953125,1.984375 -3.609375,0 -6.546875,-1.71875 Q 20.125,59.28125 18.0625,55.875 16.015625,52.484375 14.90625,47.359375 13.8125,42.234375 13.8125,35.40625 q 2.40625,4.4375 6.75,6.75 4.34375,2.328125 9.953125,2.328125 4.6875,0 8.5,-1.515625 3.8125,-1.515625 6.515625,-4.375 Q 48.25,35.75 49.734375,31.671875 51.21875,27.59375 51.21875,22.515625 Z M 42.28125,22.125 q 0,3.5625 -0.875,6.4375 -0.875,2.890625 -2.640625,4.90625 -1.75,2.03125 -4.34375,3.125 -2.578125,1.109375 -6,1.109375 -2.390625,0 -4.84375,-0.71875 Q 21.140625,36.28125 19.15625,34.6875 17.1875,33.109375 15.9375,30.515625 14.703125,27.9375 14.703125,24.21875 q 0,-3.8125 0.96875,-7.109375 0.984375,-3.296875 2.8125,-5.734375 1.828125,-2.4375 4.40625,-3.859375 2.59375,-1.40625 5.828125,-1.40625 3.171875,0 5.6875,1.09375 2.515625,1.09375 4.265625,3.171875 1.765625,2.078125 2.6875,5.046875 0.921875,2.984375 0.921875,6.703125 z" />
        </defs>
        <g
           id="g135"
           transform="matrix(0.1,0,0,-0.1,378.72202,360.74687)"
           style="fill:#262626">
          <use
             height="100%"
             width="100%"
             y="0"
             x="0"
             id="use125"
             xlink:href="#LiberationSans-54" />
          <use
             height="100%"
             width="100%"
             y="0"
             id="use127"
             xlink:href="#LiberationSans-48"
             x="55.615234" />
          <use
             height="100%"
             width="100%"
             y="0"
             id="use129"
             xlink:href="#LiberationSans-48"
             x="111.23047" />
          <use
             height="100%"
             width="100%"
             y="0"
             id="use131"
             xlink:href="#LiberationSans-48"
             x="166.8457" />
          <use
             height="100%"
             width="100%"
             y="0"
             id="use133"
             xlink:href="#LiberationSans-48"
             x="222.46094" />
        </g>
      </g>
    </g>
    <g
       id="xtick_7">
      <g
         id="line2d_13">
        <path
           id="path139"
           style="fill:none;stroke:#ffffff;stroke-linecap:round"
           d="M 456.16984,346.5 V 47.52"
           clip-path="url(#p8f9b3d33b5)" />
      </g>
      <g
         id="line2d_14" />
      <g
         id="text_7">
        <!-- 70000 -->
        <defs
           id="defs144">
          <path
             id="LiberationSans-55"
             d="M 50.59375,61.671875 Q 45.40625,53.765625 41.0625,46.453125 36.71875,39.15625 33.59375,31.75 30.46875,24.359375 28.734375,16.578125 27,8.796875 27,0 h -9.171875 q 0,8.25 1.953125,16.1875 1.953125,7.9375 5.265625,15.578125 3.328125,7.640625 7.71875,15.015625 4.390625,7.375 9.328125,14.546875 H 5.125 v 7.46875 h 45.46875 z" />
        </defs>
        <g
           id="g156"
           transform="matrix(0.1,0,0,-0.1,442.2675,360.74687)"
           style="fill:#262626">
          <use
             height="100%"
             width="100%"
             y="0"
             x="0"
             id="use146"
             xlink:href="#LiberationSans-55" />
          <use
             height="100%"
             width="100%"
             y="0"
             id="use148"
             xlink:href="#LiberationSans-48"
             x="55.615234" />
          <use
             height="100%"
             width="100%"
             y="0"
             id="use150"
             xlink:href="#LiberationSans-48"
             x="111.23047" />
          <use
             height="100%"
             width="100%"
             y="0"
             id="use152"
             xlink:href="#LiberationSans-48"
             x="166.8457" />
          <use
             height="100%"
             width="100%"
             y="0"
             id="use154"
             xlink:href="#LiberationSans-48"
             x="222.46094" />
        </g>
      </g>
    </g>
    <g
       id="text_8">
      <!-- "Other" earnings in dollars -->
      <defs
         id="defs175">
        <path
           id="LiberationSans-34"
           d="M 30.171875,47.171875 H 23.25 l -0.984375,21.625 H 31.25 Z m -18.015625,0 h -6.875 L 4.25,68.796875 h 8.984375 z" />
        <path
           id="LiberationSans-79"
           d="M 73,34.71875 Q 73,26.65625 70.671875,20.0625 68.359375,13.484375 63.96875,8.796875 59.578125,4.109375 53.21875,1.5625 46.875,-0.984375 38.8125,-0.984375 q -8.484375,0 -14.890625,2.65625 Q 17.53125,4.34375 13.28125,9.109375 9.03125,13.875 6.875,20.40625 q -2.140625,6.546875 -2.140625,14.3125 0,8.0625 2.25,14.546875 2.25,6.5 6.59375,11.0625 4.34375,4.5625 10.71875,7.03125 6.375,2.46875 14.625,2.46875 8.203125,0 14.5625,-2.5 6.375,-2.484375 10.6875,-7.078125 Q 68.5,55.671875 70.75,49.171875 73,42.671875 73,34.71875 Z m -9.515625,0 q 0,6.203125 -1.59375,11.28125 -1.59375,5.078125 -4.6875,8.6875 -3.09375,3.609375 -7.6875,5.5625 -4.59375,1.953125 -10.59375,1.953125 -6.15625,0 -10.796875,-1.953125 -4.640625,-1.953125 -7.75,-5.5625 Q 17.28125,51.078125 15.734375,46 q -1.53125,-5.078125 -1.53125,-11.28125 0,-6.203125 1.59375,-11.359375 1.59375,-5.140625 4.6875,-8.875 3.09375,-3.734375 7.703125,-5.8125 4.625,-2.078125 10.625,-2.078125 6.453125,0 11.109375,2.09375 4.671875,2.109375 7.671875,5.84375 3,3.734375 4.4375,8.90625 1.453125,5.171875 1.453125,11.28125 z" />
        <path
           id="LiberationSans-116"
           d="m 27.046875,0.390625 q -2,-0.53125 -4.078125,-0.84375 Q 20.90625,-0.78125 18.171875,-0.78125 7.625,-0.78125 7.625,11.1875 v 35.25 H 1.515625 v 6.390625 h 6.4375 l 2.59375,11.828125 H 16.40625 V 52.828125 h 9.765625 V 46.4375 H 16.40625 V 13.09375 q 0,-3.8125 1.234375,-5.359375 1.25,-1.53125 4.328125,-1.53125 1.28125,0 2.46875,0.1875 1.203125,0.203125 2.609375,0.5 z" />
        <path
           id="LiberationSans-104"
           d="m 15.484375,43.796875 q 1.453125,2.6875 3.15625,4.5625 1.71875,1.890625 3.765625,3.109375 2.0625,1.21875 4.5,1.78125 2.4375,0.5625 5.46875,0.5625 5.078125,0 8.328125,-1.375 3.25,-1.359375 5.125,-3.828125 1.875,-2.46875 2.578125,-5.890625 Q 49.125,39.3125 49.125,35.203125 V 0 h -8.84375 v 33.5 q 0,3.359375 -0.421875,5.890625 -0.40625,2.546875 -1.578125,4.234375 -1.171875,1.6875 -3.328125,2.53125 -2.140625,0.859375 -5.5625,0.859375 -3.125,0 -5.640625,-1.125 Q 21.234375,44.78125 19.453125,42.71875 17.671875,40.671875 16.6875,37.734375 15.71875,34.8125 15.71875,31.15625 V 0 H 6.9375 v 72.46875 h 8.78125 V 53.609375 q 0,-1.609375 -0.04687,-3.21875 -0.04687,-1.609375 -0.125,-2.984375 -0.0625,-1.359375 -0.125,-2.3125 -0.04687,-0.953125 -0.09375,-1.296875 z" />
        <path
           id="LiberationSans-101"
           d="m 13.484375,24.5625 q 0,-4.15625 0.84375,-7.65625 0.859375,-3.484375 2.640625,-6 1.78125,-2.5 4.5625,-3.90625 2.78125,-1.390625 6.6875,-1.390625 5.71875,0 9.15625,2.296875 3.453125,2.296875 4.671875,5.8125 L 49.75,11.53125 Q 48.921875,9.328125 47.4375,7.109375 45.953125,4.890625 43.453125,3.09375 40.96875,1.3125 37.234375,0.15625 33.5,-0.984375 28.21875,-0.984375 16.5,-0.984375 10.375,6 4.25,12.984375 4.25,26.765625 q 0,7.421875 1.84375,12.5625 1.859375,5.15625 5.078125,8.375 3.234375,3.21875 7.53125,4.65625 Q 23,53.8125 27.875,53.8125 q 6.640625,0 11.109375,-2.15625 4.46875,-2.140625 7.171875,-5.9375 2.71875,-3.78125 3.859375,-8.90625 1.15625,-5.125 1.15625,-11.078125 V 24.5625 Z m 28.609375,6.734375 q -0.734375,8.359375 -4.25,12.1875 -3.515625,3.828125 -10.109375,3.828125 -2.203125,0 -4.625,-0.703125 -2.40625,-0.703125 -4.453125,-2.515625 -2.046875,-1.8125 -3.46875,-4.921875 -1.421875,-3.09375 -1.609375,-7.875 z" />
        <path
           id="LiberationSans-114"
           d="m 6.9375,0 v 40.53125 q 0,1.65625 -0.03125,3.390625 Q 6.890625,45.65625 6.828125,47.265625 6.78125,48.875 6.734375,50.28125 6.6875,51.703125 6.640625,52.828125 H 14.9375 q 0.04687,-1.125 0.125,-2.5625 0.07813,-1.4375 0.140625,-2.953125 0.07813,-1.515625 0.09375,-2.90625 0.03125,-1.390625 0.03125,-2.359375 H 15.53125 Q 16.453125,45.0625 17.5,47.28125 q 1.0625,2.234375 2.46875,3.671875 1.421875,1.4375 3.375,2.140625 1.953125,0.71875 4.734375,0.71875 1.078125,0 2.046875,-0.171875 0.984375,-0.171875 1.515625,-0.3125 v -8.0625 q -0.875,0.25 -2.046875,0.359375 -1.171875,0.125 -2.640625,0.125 -3.03125,0 -5.15625,-1.375 -2.125,-1.359375 -3.46875,-3.78125 Q 17,38.1875 16.359375,34.84375 15.71875,31.5 15.71875,27.546875 V 0 Z" />
        <path
           d=""
           id="LiberationSans-32" />
        <path
           id="LiberationSans-97"
           d="m 20.21875,-0.984375 q -7.96875,0 -11.96875,4.203125 -4,4.203125 -4,11.53125 0,5.21875 1.96875,8.5625 1.984375,3.34375 5.171875,5.25 3.203125,1.90625 7.296875,2.640625 4.109375,0.734375 8.359375,0.828125 l 11.875,0.203125 v 2.875 q 0,3.265625 -0.6875,5.5625 -0.6875,2.296875 -2.109375,3.703125 -1.40625,1.421875 -3.53125,2.078125 -2.125,0.671875 -5,0.671875 -2.546875,0 -4.59375,-0.375 -2.046875,-0.359375 -3.5625,-1.3125 -1.515625,-0.953125 -2.453125,-2.59375 -0.921875,-1.625 -1.21875,-4.125 L 6.59375,39.546875 q 0.484375,3.125 1.84375,5.734375 1.375,2.625 3.890625,4.515625 2.515625,1.90625 6.296875,2.953125 3.78125,1.0625 9.15625,1.0625 9.96875,0 14.984375,-4.578125 5.03125,-4.5625 5.03125,-13.203125 v -22.75 q 0,-3.90625 1.03125,-5.890625 1.03125,-1.96875 3.90625,-1.96875 0.734375,0 1.46875,0.09375 0.734375,0.09375 1.40625,0.25 V 0.296875 Q 53.953125,-0.09375 52.3125,-0.28125 q -1.625,-0.203125 -3.484375,-0.203125 -2.484375,0 -4.265625,0.65625 -1.78125,0.65625 -2.90625,2 -1.125,1.34375 -1.71875,3.3125 -0.578125,1.984375 -0.734375,4.625 h -0.28125 Q 37.5,7.5625 35.8125,5.515625 34.125,3.46875 31.875,2.03125 29.640625,0.59375 26.78125,-0.1875 23.921875,-0.984375 20.21875,-0.984375 Z m 2,6.59375 q 4.203125,0 7.34375,1.53125 3.15625,1.546875 5.21875,3.9375 2.078125,2.40625 3.109375,5.234375 1.03125,2.828125 1.03125,5.421875 v 4.34375 l -9.625,-0.203125 q -3.21875,-0.04687 -6.125,-0.46875 Q 20.265625,25 18.0625,23.78125 15.875,22.5625 14.578125,20.359375 13.28125,18.171875 13.28125,14.59375 q 0,-4.296875 2.3125,-6.640625 2.328125,-2.34375 6.625,-2.34375 z" />
        <path
           id="LiberationSans-110"
           d="m 40.28125,0 v 33.5 q 0,3.859375 -0.5625,6.4375 -0.5625,2.59375 -1.828125,4.171875 -1.265625,1.59375 -3.34375,2.25 -2.078125,0.65625 -5.15625,0.65625 -3.125,0 -5.640625,-1.09375 Q 21.234375,44.828125 19.453125,42.75 17.671875,40.671875 16.6875,37.625 15.71875,34.578125 15.71875,30.609375 V 0 H 6.9375 v 41.546875 q 0,1.671875 -0.03125,3.5 Q 6.890625,46.875 6.828125,48.5 6.78125,50.140625 6.734375,51.3125 6.6875,52.484375 6.640625,52.828125 H 14.9375 q 0.04687,-0.234375 0.09375,-1.3125 0.0625,-1.078125 0.125,-2.46875 0.07813,-1.390625 0.125,-2.828125 0.04687,-1.4375 0.04687,-2.421875 h 0.15625 q 1.265625,2.296875 2.78125,4.15625 1.515625,1.859375 3.515625,3.140625 2,1.296875 4.578125,2 2.59375,0.71875 6.015625,0.71875 4.390625,0 7.5625,-1.078125 3.171875,-1.078125 5.21875,-3.328125 2.0625,-2.234375 3.015625,-5.78125 Q 49.125,40.09375 49.125,35.203125 V 0 Z" />
        <path
           id="LiberationSans-105"
           d="m 6.6875,64.0625 v 8.40625 h 8.796875 V 64.0625 Z M 6.6875,0 v 52.828125 h 8.796875 V 0 Z" />
        <path
           id="LiberationSans-103"
           d="m 26.765625,-20.75 q -4.546875,0 -8.0625,0.9375 -3.515625,0.921875 -6.015625,2.65625 -2.484375,1.71875 -4.046875,4.125 -1.5625,2.390625 -2.25,5.3125 l 8.84375,1.265625 q 0.875,-3.65625 3.875,-5.625 Q 22.125,-14.0625 27,-14.0625 q 2.984375,0 5.421875,0.828125 2.4375,0.828125 4.140625,2.671875 1.71875,1.828125 2.640625,4.765625 0.9375,2.921875 0.9375,7.109375 v 8.5 h -0.09375 Q 39.0625,7.8125 37.625,5.984375 36.1875,4.15625 34.109375,2.734375 32.03125,1.3125 29.296875,0.453125 q -2.734375,-0.84375 -6.25,-0.84375 -5.03125,0 -8.625,1.6875 -3.578125,1.6875 -5.859375,5.046875 -2.265625,3.375 -3.3125,8.375 -1.046875,5.015625 -1.046875,11.59375 0,6.359375 1.046875,11.4375 1.046875,5.078125 3.40625,8.609375 2.375,3.546875 6.15625,5.421875 3.796875,1.875 9.21875,1.875 5.609375,0 9.734375,-2.5625 4.125,-2.5625 6.375,-7.296875 h 0.09375 q 0,1.21875 0.0625,2.734375 0.07813,1.515625 0.15625,2.859375 0.07813,1.34375 0.171875,2.3125 0.09375,0.984375 0.203125,1.125 h 8.34375 q -0.04687,-0.4375 -0.09375,-1.484375 -0.04687,-1.046875 -0.109375,-2.515625 -0.04687,-1.46875 -0.07813,-3.25 -0.01563,-1.78125 -0.01563,-3.6875 v -40.375 q 0,-11.09375 -5.453125,-16.671875 -5.4375,-5.59375 -16.65625,-5.59375 z m 13.375,47.171875 q 0,5.515625 -1.203125,9.4375 -1.1875,3.9375 -3.140625,6.421875 -1.953125,2.5 -4.46875,3.671875 Q 28.8125,47.125 26.171875,47.125 q -3.375,0 -5.796875,-1.171875 -2.40625,-1.171875 -4,-3.6875 Q 14.796875,39.75 14.03125,35.8125 q -0.75,-3.921875 -0.75,-9.390625 0,-5.71875 0.75,-9.609375 0.765625,-3.875 2.328125,-6.265625 1.5625,-2.390625 3.953125,-3.421875 2.390625,-1.015625 5.71875,-1.015625 2.625,0 5.140625,1.109375 2.515625,1.125 4.515625,3.5625 2.015625,2.453125 3.234375,6.3125 1.21875,3.859375 1.21875,9.328125 z" />
        <path
           id="LiberationSans-115"
           d="m 46.390625,14.59375 q 0,-3.703125 -1.453125,-6.609375 Q 43.5,5.078125 40.765625,3.09375 38.03125,1.125 34.046875,0.0625 q -3.96875,-1.046875 -9.09375,-1.046875 -4.59375,0 -8.28125,0.71875 Q 12.984375,0.4375 10.203125,2 7.421875,3.5625 5.53125,6.125 q -1.875,2.5625 -2.75,6.28125 l 7.765625,1.515625 q 1.125,-4.25 4.640625,-6.234375 3.515625,-1.96875 9.765625,-1.96875 2.828125,0 5.1875,0.390625 2.375,0.390625 4.078125,1.34375 1.71875,0.953125 2.671875,2.53125 0.953125,1.59375 0.953125,3.9375 0,2.390625 -1.125,3.921875 -1.125,1.546875 -3.125,2.5625 -2,1.03125 -4.859375,1.78125 -2.859375,0.765625 -6.265625,1.6875 -3.1875,0.828125 -6.3125,1.859375 -3.125,1.03125 -5.640625,2.703125 -2.5,1.6875 -4.0625,4.171875 -1.5625,2.5 -1.5625,6.265625 0,7.21875 5.140625,11 5.15625,3.78125 15.015625,3.78125 8.75,0 13.890625,-3.078125 5.15625,-3.0625 6.515625,-9.859375 L 37.546875,39.75 q -0.4375,2.046875 -1.609375,3.4375 -1.171875,1.390625 -2.828125,2.25 -1.65625,0.859375 -3.734375,1.21875 -2.078125,0.359375 -4.328125,0.359375 -5.953125,0 -8.796875,-1.8125 Q 13.421875,43.40625 13.421875,39.75 q 0,-2.15625 1.046875,-3.546875 1.0625,-1.390625 2.9375,-2.34375 1.875,-0.953125 4.515625,-1.65625 2.640625,-0.703125 5.8125,-1.484375 2.09375,-0.546875 4.296875,-1.15625 2.203125,-0.609375 4.265625,-1.46875 2.078125,-0.84375 3.90625,-2 1.84375,-1.140625 3.203125,-2.75 1.375,-1.609375 2.171875,-3.765625 0.8125,-2.140625 0.8125,-4.984375 z" />
        <path
           id="LiberationSans-100"
           d="M 40.09375,8.5 Q 37.640625,3.421875 33.609375,1.21875 29.59375,-0.984375 23.640625,-0.984375 13.625,-0.984375 8.90625,5.75 4.203125,12.5 4.203125,26.171875 q 0,27.640625 19.4375,27.640625 6,0 10,-2.203125 4,-2.1875 6.453125,-6.984375 h 0.09375 q 0,0.5 -0.03125,1.546875 -0.01563,1.046875 -0.04687,2.1875 -0.01563,1.15625 -0.01563,2.171875 0,1.03125 0,1.46875 V 72.46875 H 48.875 V 10.890625 q 0,-1.90625 0.01563,-3.671875 Q 48.921875,5.46875 48.96875,4 49.03125,2.546875 49.078125,1.484375 49.125,0.4375 49.171875,0 h -8.40625 Q 40.671875,0.484375 40.59375,1.390625 40.53125,2.296875 40.453125,3.46875 40.375,4.640625 40.328125,5.9375 40.28125,7.234375 40.28125,8.5 Z M 13.421875,26.46875 q 0,-5.46875 0.6875,-9.375 0.6875,-3.90625 2.203125,-6.421875 1.515625,-2.515625 3.859375,-3.6875 Q 22.515625,5.8125 25.875,5.8125 q 3.46875,0 6.125,1.125 2.671875,1.125 4.453125,3.640625 1.78125,2.515625 2.703125,6.5625 0.9375,4.046875 0.9375,9.90625 0,5.625 -0.9375,9.5 -0.921875,3.890625 -2.734375,6.28125 Q 34.625,45.21875 32,46.265625 29.390625,47.3125 25.984375,47.3125 22.75,47.3125 20.40625,46.1875 18.0625,45.0625 16.5,42.578125 q -1.5625,-2.484375 -2.328125,-6.46875 -0.75,-3.984375 -0.75,-9.640625 z" />
        <path
           id="LiberationSans-111"
           d="m 51.421875,26.46875 q 0,-13.875 -6.109375,-20.671875 -6.109375,-6.78125 -17.71875,-6.78125 -5.515625,0 -9.875,1.65625 -4.34375,1.671875 -7.34375,5.09375 -3,3.421875 -4.59375,8.5625 -1.578125,5.15625 -1.578125,12.140625 0,27.34375 23.671875,27.34375 6.15625,0 10.625,-1.71875 4.46875,-1.703125 7.328125,-5.125 2.859375,-3.40625 4.21875,-8.546875 1.375,-5.125 1.375,-11.953125 z m -9.234375,0 q 0,6.15625 -0.953125,10.15625 -0.953125,4 -2.78125,6.390625 -1.828125,2.390625 -4.46875,3.34375 -2.640625,0.953125 -5.953125,0.953125 -3.375,0 -6.09375,-1 -2.703125,-1 -4.609375,-3.421875 -1.890625,-2.40625 -2.90625,-6.421875 -1,-4 -1,-10 0,-6.15625 1.078125,-10.1875 1.078125,-4.03125 2.953125,-6.421875 1.890625,-2.390625 4.453125,-3.375 2.5625,-0.96875 5.578125,-0.96875 3.375,0 6.109375,0.953125 2.734375,0.953125 4.640625,3.34375 1.90625,2.390625 2.921875,6.4375 1.03125,4.0625 1.03125,10.21875 z" />
        <path
           id="LiberationSans-108"
           d="M 6.734375,0 V 72.46875 H 15.53125 V 0 Z" />
      </defs>
      <g
         id="g231"
         transform="matrix(0.11,0,0,-0.11,231.37937,374.79344)"
         style="fill:#262626">
        <use
           height="100%"
           width="100%"
           y="0"
           x="0"
           id="use177"
           xlink:href="#LiberationSans-34" />
        <use
           height="100%"
           width="100%"
           y="0"
           id="use179"
           xlink:href="#LiberationSans-79"
           x="35.498047" />
        <use
           height="100%"
           width="100%"
           y="0"
           id="use181"
           xlink:href="#LiberationSans-116"
           x="113.28125" />
        <use
           height="100%"
           width="100%"
           y="0"
           id="use183"
           xlink:href="#LiberationSans-104"
           x="141.06445" />
        <use
           height="100%"
           width="100%"
           y="0"
           id="use185"
           xlink:href="#LiberationSans-101"
           x="196.67969" />
        <use
           height="100%"
           width="100%"
           y="0"
           id="use187"
           xlink:href="#LiberationSans-114"
           x="252.29492" />
        <use
           height="100%"
           width="100%"
           y="0"
           id="use189"
           xlink:href="#LiberationSans-34"
           x="285.5957" />
        <use
           height="100%"
           width="100%"
           y="0"
           id="use191"
           xlink:href="#LiberationSans-32"
           x="321.09375" />
        <use
           height="100%"
           width="100%"
           y="0"
           id="use193"
           xlink:href="#LiberationSans-101"
           x="348.87695" />
        <use
           height="100%"
           width="100%"
           y="0"
           id="use195"
           xlink:href="#LiberationSans-97"
           x="404.49219" />
        <use
           height="100%"
           width="100%"
           y="0"
           id="use197"
           xlink:href="#LiberationSans-114"
           x="460.10742" />
        <use
           height="100%"
           width="100%"
           y="0"
           id="use199"
           xlink:href="#LiberationSans-110"
           x="493.4082" />
        <use
           height="100%"
           width="100%"
           y="0"
           id="use201"
           xlink:href="#LiberationSans-105"
           x="549.02344" />
        <use
           height="100%"
           width="100%"
           y="0"
           id="use203"
           xlink:href="#LiberationSans-110"
           x="571.24023" />
        <use
           height="100%"
           width="100%"
           y="0"
           id="use205"
           xlink:href="#LiberationSans-103"
           x="626.85547" />
        <use
           height="100%"
           width="100%"
           y="0"
           id="use207"
           xlink:href="#LiberationSans-115"
           x="682.4707" />
        <use
           height="100%"
           width="100%"
           y="0"
           id="use209"
           xlink:href="#LiberationSans-32"
           x="732.4707" />
        <use
           height="100%"
           width="100%"
           y="0"
           id="use211"
           xlink:href="#LiberationSans-105"
           x="760.25391" />
        <use
           height="100%"
           width="100%"
           y="0"
           id="use213"
           xlink:href="#LiberationSans-110"
           x="782.4707" />
        <use
           height="100%"
           width="100%"
           y="0"
           id="use215"
           xlink:href="#LiberationSans-32"
           x="838.08594" />
        <use
           height="100%"
           width="100%"
           y="0"
           id="use217"
           xlink:href="#LiberationSans-100"
           x="865.86914" />
        <use
           height="100%"
           width="100%"
           y="0"
           id="use219"
           xlink:href="#LiberationSans-111"
           x="921.48438" />
        <use
           height="100%"
           width="100%"
           y="0"
           id="use221"
           xlink:href="#LiberationSans-108"
           x="977.09961" />
        <use
           height="100%"
           width="100%"
           y="0"
           id="use223"
           xlink:href="#LiberationSans-108"
           x="999.31641" />
        <use
           height="100%"
           width="100%"
           y="0"
           id="use225"
           xlink:href="#LiberationSans-97"
           x="1021.5332" />
        <use
           height="100%"
           width="100%"
           y="0"
           id="use227"
           xlink:href="#LiberationSans-114"
           x="1077.1484" />
        <use
           height="100%"
           width="100%"
           y="0"
           id="use229"
           xlink:href="#LiberationSans-115"
           x="1110.4492" />
      </g>
    </g>
    <g
       id="ytick_1">
      <g
         id="line2d_15">
        <path
           id="path235"
           style="fill:none;stroke:#ffffff;stroke-linecap:round"
           d="M 72,346.5 H 518.4"
           clip-path="url(#p8f9b3d33b5)" />
      </g>
      <g
         id="line2d_16" />
      <g
         id="text_9">
        <!-- 0 -->
        <g
           id="g241"
           transform="matrix(0.1,0,0,-0.1,59.439062,350.12344)"
           style="fill:#262626">
          <use
             height="100%"
             width="100%"
             y="0"
             x="0"
             id="use239"
             xlink:href="#LiberationSans-48" />
        </g>
      </g>
    </g>
    <g
       id="ytick_2">
      <g
         id="line2d_17">
        <path
           id="path245"
           style="fill:none;stroke:#ffffff;stroke-linecap:round"
           d="M 72,294.72857 H 518.4"
           clip-path="url(#p8f9b3d33b5)" />
      </g>
      <g
         id="line2d_18" />
      <g
         id="text_10">
        <!-- 2 -->
        <g
           id="g251"
           transform="matrix(0.1,0,0,-0.1,59.439062,298.35201)"
           style="fill:#262626">
          <use
             height="100%"
             width="100%"
             y="0"
             x="0"
             id="use249"
             xlink:href="#LiberationSans-50" />
        </g>
      </g>
    </g>
    <g
       id="ytick_3">
      <g
         id="line2d_19">
        <path
           id="path255"
           style="fill:none;stroke:#ffffff;stroke-linecap:round"
           d="M 72,242.95714 H 518.4"
           clip-path="url(#p8f9b3d33b5)" />
      </g>
      <g
         id="line2d_20" />
      <g
         id="text_11">
        <!-- 4 -->
        <g
           id="g261"
           transform="matrix(0.1,0,0,-0.1,59.439062,246.58058)"
           style="fill:#262626">
          <use
             height="100%"
             width="100%"
             y="0"
             x="0"
             id="use259"
             xlink:href="#LiberationSans-52" />
        </g>
      </g>
    </g>
    <g
       id="ytick_4">
      <g
         id="line2d_21">
        <path
           id="path265"
           style="fill:none;stroke:#ffffff;stroke-linecap:round"
           d="M 72,191.18571 H 518.4"
           clip-path="url(#p8f9b3d33b5)" />
      </g>
      <g
         id="line2d_22" />
      <g
         id="text_12">
        <!-- 6 -->
        <g
           id="g271"
           transform="matrix(0.1,0,0,-0.1,59.439062,194.80915)"
           style="fill:#262626">
          <use
             height="100%"
             width="100%"
             y="0"
             x="0"
             id="use269"
             xlink:href="#LiberationSans-54" />
        </g>
      </g>
    </g>
    <g
       id="ytick_5">
      <g
         id="line2d_23">
        <path
           id="path275"
           style="fill:none;stroke:#ffffff;stroke-linecap:round"
           d="M 72,139.41429 H 518.4"
           clip-path="url(#p8f9b3d33b5)" />
      </g>
      <g
         id="line2d_24" />
      <g
         id="text_13">
        <!-- 8 -->
        <defs
           id="defs280">
          <path
             id="LiberationSans-56"
             d="m 51.265625,19.1875 q 0,-4.390625 -1.390625,-8.078125 -1.390625,-3.6875 -4.25,-6.375 -2.84375,-2.6875 -7.296875,-4.203125 -4.4375,-1.515625 -10.5,-1.515625 -6.046875,0 -10.46875,1.515625 Q 12.9375,2.046875 10.03125,4.703125 7.125,7.375 5.734375,11.0625 4.34375,14.75 4.34375,19.09375 q 0,3.765625 1.140625,6.6875 1.15625,2.9375 3.078125,5.046875 1.9375,2.125 4.40625,3.421875 2.46875,1.296875 5.09375,1.734375 V 36.1875 q -2.875,0.671875 -5.15625,2.1875 -2.265625,1.515625 -3.8125,3.640625 -1.53125,2.125 -2.34375,4.703125 -0.796875,2.59375 -0.796875,5.484375 0,3.609375 1.390625,6.796875 1.390625,3.203125 4.125,5.625 2.734375,2.421875 6.78125,3.8125 4.0625,1.390625 9.390625,1.390625 5.609375,0 9.734375,-1.421875 Q 41.5,67 44.203125,64.578125 46.921875,62.15625 48.234375,58.9375 49.5625,55.71875 49.5625,52.09375 q 0,-2.828125 -0.8125,-5.421875 -0.796875,-2.578125 -2.34375,-4.703125 -1.53125,-2.125 -3.8125,-3.625 -2.265625,-1.484375 -5.234375,-2.0625 v -0.203125 q 2.96875,-0.484375 5.5,-1.78125 2.546875,-1.28125 4.40625,-3.40625 1.859375,-2.125 2.921875,-5.0625 1.078125,-2.921875 1.078125,-6.640625 z M 40.4375,51.609375 q 0,2.59375 -0.671875,4.734375 -0.65625,2.15625 -2.171875,3.6875 -1.515625,1.546875 -3.953125,2.390625 -2.4375,0.859375 -6,0.859375 -3.46875,0 -5.859375,-0.859375 -2.390625,-0.84375 -3.9375,-2.390625 Q 16.3125,58.5 15.625,56.34375 q -0.6875,-2.140625 -0.6875,-4.734375 0,-2.046875 0.53125,-4.203125 0.546875,-2.140625 1.953125,-3.90625 1.421875,-1.75 3.90625,-2.875 2.5,-1.125 6.40625,-1.125 4.15625,0 6.671875,1.125 2.515625,1.125 3.84375,2.875 1.34375,1.765625 1.765625,3.90625 0.421875,2.15625 0.421875,4.203125 z m 1.703125,-31.59375 q 0,2.5 -0.6875,4.8125 -0.6875,2.328125 -2.34375,4.109375 -1.65625,1.78125 -4.46875,2.875 -2.796875,1.09375 -7,1.09375 -3.859375,0 -6.578125,-1.09375 -2.703125,-1.09375 -4.390625,-2.90625 -1.6875,-1.8125 -2.46875,-4.1875 -0.78125,-2.359375 -0.78125,-4.890625 0,-3.171875 0.78125,-5.796875 0.78125,-2.609375 2.484375,-4.484375 1.71875,-1.875 4.5,-2.90625 2.78125,-1.03125 6.75,-1.03125 4,0 6.734375,1.03125 2.734375,1.03125 4.390625,2.90625 1.65625,1.875 2.359375,4.53125 0.71875,2.671875 0.71875,5.9375 z" />
        </defs>
        <g
           id="g284"
           transform="matrix(0.1,0,0,-0.1,59.439062,143.03772)"
           style="fill:#262626">
          <use
             height="100%"
             width="100%"
             y="0"
             x="0"
             id="use282"
             xlink:href="#LiberationSans-56" />
        </g>
      </g>
    </g>
    <g
       id="ytick_6">
      <g
         id="line2d_25">
        <path
           id="path288"
           style="fill:none;stroke:#ffffff;stroke-linecap:round"
           d="M 72,87.642857 H 518.4"
           clip-path="url(#p8f9b3d33b5)" />
      </g>
      <g
         id="line2d_26" />
      <g
         id="text_14">
        <!-- 10 -->
        <g
           id="g296"
           transform="matrix(0.1,0,0,-0.1,53.878125,91.266295)"
           style="fill:#262626">
          <use
             height="100%"
             width="100%"
             y="0"
             x="0"
             id="use292"
             xlink:href="#LiberationSans-49" />
          <use
             height="100%"
             width="100%"
             y="0"
             id="use294"
             xlink:href="#LiberationSans-48"
             x="55.615234" />
        </g>
      </g>
    </g>
    <g
       id="text_15">
      <!-- Number of Employees -->
      <defs
         id="defs308">
        <path
           id="LiberationSans-78"
           d="m 52.828125,0 -36.8125,58.59375 q 0.09375,-2.390625 0.25,-4.734375 0.09375,-2 0.15625,-4.234375 Q 16.5,47.40625 16.5,45.703125 V 0 H 8.203125 v 68.796875 h 10.84375 L 56.25,9.8125 q -0.140625,2.390625 -0.296875,4.78125 -0.09375,2.0625 -0.1875,4.46875 -0.09375,2.421875 -0.09375,4.625 V 68.796875 H 64.0625 V 0 Z" />
        <path
           id="LiberationSans-117"
           d="M 15.328125,52.828125 V 19.34375 q 0,-3.859375 0.5625,-6.453125 0.5625,-2.59375 1.828125,-4.1875 Q 19,7.125 21.0625,6.46875 23.140625,5.8125 26.21875,5.8125 q 3.125,0 5.640625,1.09375 2.515625,1.109375 4.296875,3.171875 1.78125,2.078125 2.75,5.125 0.984375,3.0625 0.984375,7.015625 V 52.828125 H 48.6875 V 11.28125 q 0,-1.65625 0.01563,-3.5 Q 48.734375,5.953125 48.78125,4.3125 48.828125,2.6875 48.875,1.515625 48.921875,0.34375 48.96875,0 h -8.296875 q -0.04687,0.25 -0.09375,1.3125 -0.04687,1.078125 -0.125,2.46875 -0.07813,1.390625 -0.125,2.828125 Q 40.28125,8.0625 40.28125,9.03125 H 40.140625 Q 38.875,6.734375 37.359375,4.875 35.84375,3.03125 33.84375,1.734375 q -2,-1.296875 -4.59375,-2 -2.59375,-0.71875 -6,-0.71875 -4.40625,0 -7.578125,1.078125 -3.171875,1.078125 -5.21875,3.328125 -2.046875,2.25 -3,5.765625 Q 6.5,12.703125 6.5,17.625 v 35.203125 z" />
        <path
           id="LiberationSans-109"
           d="m 37.5,0 v 33.5 q 0,3.859375 -0.484375,6.4375 -0.484375,2.59375 -1.640625,4.171875 -1.140625,1.59375 -3,2.25 -1.859375,0.65625 -4.546875,0.65625 -2.78125,0 -5.03125,-1.09375 Q 20.5625,44.828125 18.96875,42.75 17.390625,40.671875 16.53125,37.625 15.671875,34.578125 15.671875,30.609375 V 0 H 6.9375 v 41.546875 q 0,1.671875 -0.03125,3.5 Q 6.890625,46.875 6.828125,48.5 6.78125,50.140625 6.734375,51.3125 6.6875,52.484375 6.640625,52.828125 H 14.9375 q 0.04687,-0.234375 0.09375,-1.3125 0.0625,-1.078125 0.125,-2.46875 0.07813,-1.390625 0.125,-2.828125 0.04687,-1.4375 0.04687,-2.421875 h 0.15625 q 1.171875,2.296875 2.53125,4.15625 1.375,1.859375 3.203125,3.140625 1.828125,1.296875 4.1875,2 2.375,0.71875 5.5,0.71875 6.015625,0 9.5,-2.390625 3.484375,-2.390625 4.859375,-7.625 h 0.140625 q 1.171875,2.296875 2.640625,4.15625 1.46875,1.859375 3.421875,3.140625 1.953125,1.296875 4.390625,2 2.4375,0.71875 5.5625,0.71875 4.015625,0 6.90625,-1.078125 2.90625,-1.078125 4.765625,-3.328125 1.859375,-2.234375 2.734375,-5.78125 0.875,-3.53125 0.875,-8.421875 V 0 h -8.6875 v 33.5 q 0,3.859375 -0.484375,6.4375 -0.484375,2.59375 -1.640625,4.171875 -1.140625,1.59375 -3,2.25 -1.859375,0.65625 -4.546875,0.65625 -2.78125,0 -5.03125,-1.046875 Q 51.078125,44.921875 49.484375,42.875 47.90625,40.828125 47.046875,37.75 46.1875,34.671875 46.1875,30.609375 V 0 Z" />
        <path
           id="LiberationSans-98"
           d="m 51.421875,26.65625 q 0,-27.640625 -19.4375,-27.640625 -6,0 -9.984375,2.171875 -3.984375,2.1875 -6.46875,7.015625 H 15.4375 q 0,-1.265625 -0.07813,-2.640625 -0.07813,-1.359375 -0.15625,-2.53125 -0.0625,-1.171875 -0.140625,-2 Q 14.984375,0.203125 14.9375,0 H 6.453125 Q 6.5,0.4375 6.546875,1.484375 6.59375,2.546875 6.640625,4 q 0.046875,1.46875 0.0625,3.21875 0.03125,1.765625 0.03125,3.671875 V 72.46875 H 15.53125 V 51.8125 Q 15.53125,50.34375 15.5,49 15.484375,47.65625 15.4375,46.625 15.375,45.40625 15.328125,44.34375 h 0.203125 q 2.4375,5.078125 6.46875,7.265625 4.03125,2.203125 9.984375,2.203125 10.015625,0 14.71875,-6.75 4.71875,-6.734375 4.71875,-20.40625 z M 42.1875,26.375 q 0,5.46875 -0.6875,9.375 -0.671875,3.90625 -2.1875,6.40625 -1.515625,2.515625 -3.859375,3.6875 -2.34375,1.171875 -5.71875,1.171875 -3.46875,0 -6.125,-1.125 -2.65625,-1.109375 -4.4375,-3.609375 -1.78125,-2.484375 -2.71875,-6.546875 -0.921875,-4.046875 -0.921875,-9.90625 0,-5.65625 0.921875,-9.515625 0.9375,-3.859375 2.71875,-6.28125 1.78125,-2.40625 4.40625,-3.46875 2.640625,-1.046875 6.0625,-1.046875 3.21875,0 5.5625,1.125 2.34375,1.125 3.90625,3.609375 1.5625,2.5 2.3125,6.46875 0.765625,3.984375 0.765625,9.65625 z" />
        <path
           id="LiberationSans-102"
           d="M 17.625,46.4375 V 0 H 8.84375 V 46.4375 H 1.421875 v 6.390625 H 8.84375 v 5.96875 q 0,2.875 0.53125,5.34375 0.53125,2.46875 1.96875,4.296875 1.453125,1.828125 3.9375,2.875 2.5,1.046875 6.453125,1.046875 1.5625,0 3.234375,-0.140625 1.6875,-0.140625 2.96875,-0.4375 v -6.6875 Q 27.09375,65.234375 26,65.359375 q -1.09375,0.125 -1.96875,0.125 -1.953125,0 -3.203125,-0.546875 -1.25,-0.53125 -1.953125,-1.53125 -0.703125,-1 -0.984375,-2.46875 Q 17.625,59.46875 17.625,57.5625 V 52.828125 H 27.9375 V 46.4375 Z" />
        <path
           id="LiberationSans-69"
           d="M 8.203125,0 V 68.796875 H 60.40625 V 61.1875 h -42.875 V 39.109375 h 39.9375 V 31.59375 H 17.53125 V 7.625 h 44.875 V 0 Z" />
        <path
           id="LiberationSans-112"
           d="m 51.421875,26.65625 q 0,-6 -0.984375,-11.078125 -0.96875,-5.078125 -3.25,-8.75 -2.265625,-3.65625 -6,-5.734375 -3.734375,-2.078125 -9.203125,-2.078125 -5.671875,0 -9.921875,2.15625 -4.234375,2.15625 -6.484375,7.03125 h -0.25 Q 15.375,8.109375 15.40625,7.328125 15.4375,6.546875 15.453125,5.375 15.484375,4.203125 15.5,2.75 15.53125,1.3125 15.53125,-0.09375 V -20.75 H 6.734375 v 62.796875 q 0,1.90625 -0.03125,3.65625 Q 6.6875,47.46875 6.640625,48.90625 6.59375,50.34375 6.546875,51.359375 6.5,52.390625 6.453125,52.828125 H 14.9375 q 0.04687,-0.140625 0.125,-1.03125 0.07813,-0.875 0.140625,-2.125 0.07813,-1.234375 0.15625,-2.65625 0.07813,-1.40625 0.07813,-2.671875 h 0.1875 q 1.21875,2.53125 2.78125,4.3125 1.5625,1.78125 3.5625,2.921875 2,1.15625 4.46875,1.671875 2.46875,0.515625 5.546875,0.515625 5.46875,0 9.203125,-1.953125 3.734375,-1.953125 6,-5.5 2.28125,-3.53125 3.25,-8.546875 0.984375,-5 0.984375,-11.109375 z M 42.1875,26.46875 q 0,4.875 -0.59375,8.6875 -0.578125,3.8125 -2.015625,6.4375 -1.4375,2.640625 -3.84375,4 -2.390625,1.375 -6,1.375 -2.921875,0 -5.515625,-0.828125 Q 21.625,45.3125 19.703125,42.96875 17.78125,40.625 16.65625,36.5 q -1.125,-4.125 -1.125,-10.71875 0,-5.609375 0.921875,-9.5 0.9375,-3.875 2.71875,-6.265625 1.78125,-2.390625 4.40625,-3.453125 2.640625,-1.046875 6.0625,-1.046875 3.65625,0 6.078125,1.40625 2.421875,1.421875 3.859375,4.109375 1.4375,2.6875 2.015625,6.5625 0.59375,3.890625 0.59375,8.875 z" />
        <path
           id="LiberationSans-121"
           d="m 29.5,0 q -1.859375,-4.78125 -3.796875,-8.609375 -1.921875,-3.84375 -4.3125,-6.546875 Q 19,-17.875 16.0625,-19.3125 13.140625,-20.75 9.328125,-20.75 q -1.65625,0 -3.078125,0.09375 -1.421875,0.09375 -2.984375,0.4375 v 6.59375 q 0.9375,-0.140625 2.109375,-0.21875 1.171875,-0.07813 2,-0.07813 3.859375,0 7.171875,2.890625 3.328125,2.875 5.8125,9.171875 L 21.1875,0.25 0.25,52.828125 H 9.625 L 20.75,23.640625 Q 21.234375,22.3125 21.984375,20.109375 22.75,17.921875 23.5,15.71875 q 0.765625,-2.1875 1.34375,-3.953125 0.59375,-1.75 0.6875,-2.1875 0.15625,0.53125 0.71875,2.109375 0.5625,1.59375 1.265625,3.546875 0.703125,1.953125 1.4375,3.953125 0.734375,2 1.21875,3.46875 L 40.53125,52.828125 h 9.28125 z" />
      </defs>
      <g
         id="g348"
         transform="matrix(0,-0.11,-0.11,0,47.595625,251.41875)"
         style="fill:#262626">
        <use
           height="100%"
           width="100%"
           y="0"
           x="0"
           id="use310"
           xlink:href="#LiberationSans-78" />
        <use
           height="100%"
           width="100%"
           y="0"
           id="use312"
           xlink:href="#LiberationSans-117"
           x="72.216797" />
        <use
           height="100%"
           width="100%"
           y="0"
           id="use314"
           xlink:href="#LiberationSans-109"
           x="127.83203" />
        <use
           height="100%"
           width="100%"
           y="0"
           id="use316"
           xlink:href="#LiberationSans-98"
           x="211.13281" />
        <use
           height="100%"
           width="100%"
           y="0"
           id="use318"
           xlink:href="#LiberationSans-101"
           x="266.74805" />
        <use
           height="100%"
           width="100%"
           y="0"
           id="use320"
           xlink:href="#LiberationSans-114"
           x="322.36328" />
        <use
           height="100%"
           width="100%"
           y="0"
           id="use322"
           xlink:href="#LiberationSans-32"
           x="355.66406" />
        <use
           height="100%"
           width="100%"
           y="0"
           id="use324"
           xlink:href="#LiberationSans-111"
           x="383.44727" />
        <use
           height="100%"
           width="100%"
           y="0"
           id="use326"
           xlink:href="#LiberationSans-102"
           x="439.0625" />
        <use
           height="100%"
           width="100%"
           y="0"
           id="use328"
           xlink:href="#LiberationSans-32"
           x="466.8457" />
        <use
           height="100%"
           width="100%"
           y="0"
           id="use330"
           xlink:href="#LiberationSans-69"
           x="494.62891" />
        <use
           height="100%"
           width="100%"
           y="0"
           id="use332"
           xlink:href="#LiberationSans-109"
           x="561.32812" />
        <use
           height="100%"
           width="100%"
           y="0"
           id="use334"
           xlink:href="#LiberationSans-112"
           x="644.62891" />
        <use
           height="100%"
           width="100%"
           y="0"
           id="use336"
           xlink:href="#LiberationSans-108"
           x="700.24414" />
        <use
           height="100%"
           width="100%"
           y="0"
           id="use338"
           xlink:href="#LiberationSans-111"
           x="722.46094" />
        <use
           height="100%"
           width="100%"
           y="0"
           id="use340"
           xlink:href="#LiberationSans-121"
           x="778.07617" />
        <use
           height="100%"
           width="100%"
           y="0"
           id="use342"
           xlink:href="#LiberationSans-101"
           x="828.07617" />
        <use
           height="100%"
           width="100%"
           y="0"
           id="use344"
           xlink:href="#LiberationSans-101"
           x="883.69141" />
        <use
           height="100%"
           width="100%"
           y="0"
           id="use346"
           xlink:href="#LiberationSans-115"
           x="939.30664" />
      </g>
    </g>
    <path
       id="path352"
       style="fill:#8172b2;fill-opacity:1"
       d="M 92.290909,346.5 H 132.87273 V 61.757143 H 92.290909 Z"
       clip-path="url(#p8f9b3d33b5)" />
    <path
       id="path355"
       style="fill:#8172b2;fill-opacity:1"
       d="m 132.87273,346.5 h 40.58181 V 217.07143 h -40.58181 z"
       clip-path="url(#p8f9b3d33b5)" />
    <path
       id="path358"
       style="fill:#4c72b0"
       d="m 173.45454,346.5 h 40.58182 v 0 z"
       clip-path="url(#p8f9b3d33b5)" />
    <path
       id="path361"
       style="fill:#4c72b0"
       d="m 214.03636,346.5 h 40.58182 v 0 z"
       clip-path="url(#p8f9b3d33b5)" />
    <path
       id="path364"
       style="fill:#8172b2;fill-opacity:1"
       d="M 254.61818,346.5 H 295.2 v -25.88571 h -40.58182 z"
       clip-path="url(#p8f9b3d33b5)" />
    <path
       id="path367"
       style="fill:#4c72b0"
       d="m 295.2,346.5 h 40.58182 v 0 z"
       clip-path="url(#p8f9b3d33b5)" />
    <path
       id="path370"
       style="fill:#8172b2;fill-opacity:1"
       d="m 335.78182,346.5 h 40.58182 v -25.88571 h -40.58182 z"
       clip-path="url(#p8f9b3d33b5)" />
    <path
       id="path373"
       style="fill:#8172b2;fill-opacity:1"
       d="m 376.36364,346.5 h 40.58181 v -25.88571 h -40.58181 z"
       clip-path="url(#p8f9b3d33b5)" />
    <path
       id="path376"
       style="fill:#4c72b0"
       d="m 416.94545,346.5 h 40.58182 v 0 z"
       clip-path="url(#p8f9b3d33b5)" />
    <path
       id="path379"
       style="fill:#8172b2;fill-opacity:1"
       d="m 457.52727,346.5 h 40.58182 v -25.88571 h -40.58182 z"
       clip-path="url(#p8f9b3d33b5)" />
    <path
       id="path382"
       style="fill:none"
       d="M 72,346.5 V 47.52" />
    <path
       id="path385"
       style="fill:none"
       d="M 518.4,346.5 V 47.52" />
    <path
       id="path388"
       style="fill:none"
       d="M 72,346.5 H 518.4" />
    <path
       id="path391"
       style="fill:none"
       d="M 72,47.52 H 518.4" />
    <g
       id="g503"
       transform="matrix(0.12,0,0,-0.12,153.53625,41.52)"
       style="fill:#262626">
      <use
         height="100%"
         width="100%"
         y="0"
         x="0"
         id="use399"
         xlink:href="#LiberationSans-84" />
      <use
         height="100%"
         width="100%"
         y="0"
         id="use401"
         xlink:href="#LiberationSans-111"
         x="49.958984" />
      <use
         height="100%"
         width="100%"
         y="0"
         id="use403"
         xlink:href="#LiberationSans-112"
         x="105.57422" />
      <use
         height="100%"
         width="100%"
         y="0"
         id="use405"
         xlink:href="#LiberationSans-32"
         x="161.18945" />
      <use
         height="100%"
         width="100%"
         y="0"
         id="use407"
         xlink:href="#LiberationSans-50"
         x="188.97266" />
      <use
         height="100%"
         width="100%"
         y="0"
         id="use409"
         xlink:href="#LiberationSans-48"
         x="244.58789" />
      <use
         height="100%"
         width="100%"
         y="0"
         id="use411"
         xlink:href="#LiberationSans-32"
         x="300.20312" />
      <use
         height="100%"
         width="100%"
         y="0"
         id="use413"
         xlink:href="#LiberationSans-34"
         x="327.98633" />
      <use
         height="100%"
         width="100%"
         y="0"
         id="use415"
         xlink:href="#LiberationSans-79"
         x="363.48438" />
      <use
         height="100%"
         width="100%"
         y="0"
         id="use417"
         xlink:href="#LiberationSans-116"
         x="441.26758" />
      <use
         height="100%"
         width="100%"
         y="0"
         id="use419"
         xlink:href="#LiberationSans-104"
         x="469.05078" />
      <use
         height="100%"
         width="100%"
         y="0"
         id="use421"
         xlink:href="#LiberationSans-101"
         x="524.66602" />
      <use
         height="100%"
         width="100%"
         y="0"
         id="use423"
         xlink:href="#LiberationSans-114"
         x="580.28125" />
      <use
         height="100%"
         width="100%"
         y="0"
         id="use425"
         xlink:href="#LiberationSans-34"
         x="613.58203" />
      <use
         height="100%"
         width="100%"
         y="0"
         id="use427"
         xlink:href="#LiberationSans-32"
         x="649.08008" />
      <use
         height="100%"
         width="100%"
         y="0"
         id="use429"
         xlink:href="#LiberationSans-101"
         x="676.86328" />
      <use
         height="100%"
         width="100%"
         y="0"
         id="use431"
         xlink:href="#LiberationSans-97"
         x="732.47852" />
      <use
         height="100%"
         width="100%"
         y="0"
         id="use433"
         xlink:href="#LiberationSans-114"
         x="788.09375" />
      <use
         height="100%"
         width="100%"
         y="0"
         id="use435"
         xlink:href="#LiberationSans-110"
         x="821.39453" />
      <use
         height="100%"
         width="100%"
         y="0"
         id="use437"
         xlink:href="#LiberationSans-105"
         x="877.00977" />
      <use
         height="100%"
         width="100%"
         y="0"
         id="use439"
         xlink:href="#LiberationSans-110"
         x="899.22656" />
      <use
         height="100%"
         width="100%"
         y="0"
         id="use441"
         xlink:href="#LiberationSans-103"
         x="954.8418" />
      <use
         height="100%"
         width="100%"
         y="0"
         id="use443"
         xlink:href="#LiberationSans-115"
         x="1010.457" />
      <use
         height="100%"
         width="100%"
         y="0"
         id="use445"
         xlink:href="#LiberationSans-32"
         x="1060.457" />
      <use
         height="100%"
         width="100%"
         y="0"
         id="use447"
         xlink:href="#LiberationSans-102"
         x="1088.2402" />
      <use
         height="100%"
         width="100%"
         y="0"
         id="use449"
         xlink:href="#LiberationSans-111"
         x="1116.0234" />
      <use
         height="100%"
         width="100%"
         y="0"
         id="use451"
         xlink:href="#LiberationSans-114"
         x="1171.6387" />
      <use
         height="100%"
         width="100%"
         y="0"
         id="use453"
         xlink:href="#LiberationSans-32"
         x="1204.9395" />
      <use
         height="100%"
         width="100%"
         y="0"
         id="use455"
         xlink:href="#LiberationSans-112"
         x="1232.7227" />
      <use
         height="100%"
         width="100%"
         y="0"
         id="use457"
         xlink:href="#LiberationSans-111"
         x="1288.3379" />
      <use
         height="100%"
         width="100%"
         y="0"
         id="use459"
         xlink:href="#LiberationSans-108"
         x="1343.9531" />
      <use
         height="100%"
         width="100%"
         y="0"
         id="use461"
         xlink:href="#LiberationSans-105"
         x="1366.1699" />
      <use
         height="100%"
         width="100%"
         y="0"
         id="use463"
         xlink:href="#LiberationSans-99"
         x="1388.3867" />
      <use
         height="100%"
         width="100%"
         y="0"
         id="use465"
         xlink:href="#LiberationSans-101"
         x="1438.3867" />
      <use
         height="100%"
         width="100%"
         y="0"
         id="use467"
         xlink:href="#LiberationSans-32"
         x="1494.002" />
      <use
         height="100%"
         width="100%"
         y="0"
         id="use469"
         xlink:href="#LiberationSans-101"
         x="1521.7852" />
      <use
         height="100%"
         width="100%"
         y="0"
         id="use471"
         xlink:href="#LiberationSans-109"
         x="1577.4004" />
      <use
         height="100%"
         width="100%"
         y="0"
         id="use473"
         xlink:href="#LiberationSans-112"
         x="1660.7012" />
      <use
         height="100%"
         width="100%"
         y="0"
         id="use475"
         xlink:href="#LiberationSans-108"
         x="1716.3164" />
      <use
         height="100%"
         width="100%"
         y="0"
         id="use477"
         xlink:href="#LiberationSans-111"
         x="1738.5332" />
      <use
         height="100%"
         width="100%"
         y="0"
         id="use479"
         xlink:href="#LiberationSans-121"
         x="1794.1484" />
      <use
         height="100%"
         width="100%"
         y="0"
         id="use481"
         xlink:href="#LiberationSans-101"
         x="1844.1484" />
      <use
         height="100%"
         width="100%"
         y="0"
         id="use483"
         xlink:href="#LiberationSans-101"
         x="1899.7637" />
      <use
         height="100%"
         width="100%"
         y="0"
         id="use485"
         xlink:href="#LiberationSans-115"
         x="1955.3789" />
      <use
         height="100%"
         width="100%"
         y="0"
         id="use487"
         xlink:href="#LiberationSans-32"
         x="2005.3789" />
      <use
         height="100%"
         width="100%"
         y="0"
         id="use489"
         xlink:href="#LiberationSans-105"
         x="2033.1621" />
      <use
         height="100%"
         width="100%"
         y="0"
         id="use491"
         xlink:href="#LiberationSans-110"
         x="2055.3789" />
      <use
         height="100%"
         width="100%"
         y="0"
         id="use493"
         xlink:href="#LiberationSans-32"
         x="2110.9941" />
      <use
         height="100%"
         width="100%"
         y="0"
         id="use495"
         xlink:href="#LiberationSans-50"
         x="2138.7773" />
      <use
         height="100%"
         width="100%"
         y="0"
         id="use497"
         xlink:href="#LiberationSans-48"
         x="2194.3926" />
      <use
         height="100%"
         width="100%"
         y="0"
         id="use499"
         xlink:href="#LiberationSans-49"
         x="2250.0078" />
      <use
         height="100%"
         width="100%"
         y="0"
         id="use501"
         xlink:href="#LiberationSans-57"
         x="2305.623" />
    </g>
  </g>
  <defs
     id="defs511">
    <clipPath
       id="p8f9b3d33b5">
      <rect
         id="rect508"
         y="47.52"
         x="72"
         width="446.4"
         height="298.98" />
    </clipPath>
  </defs>
</svg>
