<?xml version="1.0" encoding="UTF-8" standalone="no"?>
<svg
   xmlns:dc="http://purl.org/dc/elements/1.1/"
   xmlns:cc="http://creativecommons.org/ns#"
   xmlns:rdf="http://www.w3.org/1999/02/22-rdf-syntax-ns#"
   xmlns:svg="http://www.w3.org/2000/svg"
   xmlns="http://www.w3.org/2000/svg"
   xmlns:xlink="http://www.w3.org/1999/xlink"
   xmlns:sodipodi="http://sodipodi.sourceforge.net/DTD/sodipodi-0.dtd"
   xmlns:inkscape="http://www.inkscape.org/namespaces/inkscape"
   inkscape:export-ydpi="96"
   inkscape:export-xdpi="96"
   inkscape:export-filename="/home/benmk/documents/code/personal/defundNPD/plots/safety_crime.png"
   inkscape:version="1.0 (6e3e5246a0, 2020-05-07)"
   sodipodi:docname="safety_crime.svg"
   id="svg627"
   width="432pt"
   viewBox="0 0 432 288"
   version="1.1"
   height="288pt">
  <metadata
     id="metadata631">
    <rdf:RDF>
      <cc:Work
         rdf:about="">
        <dc:format>image/svg+xml</dc:format>
        <dc:type
           rdf:resource="http://purl.org/dc/dcmitype/StillImage" />
      </cc:Work>
    </rdf:RDF>
  </metadata>
  <sodipodi:namedview
     inkscape:current-layer="svg627"
     inkscape:window-maximized="1"
     inkscape:window-y="0"
     inkscape:window-x="0"
     inkscape:cy="184.96158"
     inkscape:cx="294.99758"
     inkscape:zoom="2.1067708"
     showgrid="false"
     id="namedview629"
     inkscape:window-height="1136"
     inkscape:window-width="1920"
     inkscape:pageshadow="2"
     inkscape:pageopacity="0"
     guidetolerance="10"
     gridtolerance="10"
     objecttolerance="10"
     borderopacity="1"
     bordercolor="#666666"
     pagecolor="#ffffff" />
  <defs
     id="defs4">
    <style
       id="style2"
       type="text/css">
*{stroke-linecap:butt;stroke-linejoin:round;white-space:pre;}
  </style>
    <defs
       id="defs13">
      <path
         d="M 0,3 C 0.795609,3 1.55874,2.683901 2.12132,2.12132 2.683901,1.55874 3,0.795609 3,0 3,-0.795609 2.683901,-1.55874 2.12132,-2.12132 1.55874,-2.683901 0.795609,-3 0,-3 -0.795609,-3 -1.55874,-2.683901 -2.12132,-2.12132 -2.683901,-1.55874 -3,-0.795609 -3,0 -3,0.795609 -2.683901,1.55874 -2.12132,2.12132 -1.55874,2.683901 -0.795609,3 0,3 Z"
         id="m0d81dfbc8a"
         style="stroke:#1f77b4;stroke-opacity:0.8" />
    </defs>
    <defs
       id="defs72">
      <path
         d="M -1.5,3 0,1.5 1.5,3 3,1.5 1.5,0 3,-1.5 1.5,-3 0,-1.5 -1.5,-3 -3,-1.5 -1.5,0 -3,1.5 Z"
         id="m19b3826b10"
         style="stroke:#000000" />
    </defs>
    <defs
       id="defs503">
      <path
         d="m 9.8125,72.90625 h 41.890625 v -8.3125 H 19.671875 V 43.109375 h 28.90625 V 34.8125 H 19.671875 V 0 H 9.8125 Z"
         id="DejaVuSans-70" />
      <path
         d="M 59.515625,10.40625 V 29.984375 H 43.40625 v 8.109375 h 25.875 V 6.78125 Q 63.578125,2.734375 56.6875,0.65625 49.8125,-1.421875 42,-1.421875 q -17.09375,0 -26.75,9.984375 -9.640625,10 -9.640625,27.8125 0,17.875 9.640625,27.859375 9.65625,9.984375 26.75,9.984375 7.125,0 13.546875,-1.765625 6.421875,-1.75 11.84375,-5.171875 v -10.5 q -5.46875,4.640625 -11.625,6.984375 -6.15625,2.34375 -12.9375,2.34375 -13.390625,0 -20.109375,-7.46875 -6.703125,-7.46875 -6.703125,-22.265625 0,-14.75 6.703125,-22.21875 6.71875,-7.46875 20.109375,-7.46875 5.21875,0 9.3125,0.90625 4.109375,0.90625 7.375,2.8125 z"
         id="DejaVuSans-71" />
    </defs>
    <defs
       id="defs213">
      <path
         id="DejaVuSans-84"
         d="M -0.296875,72.90625 H 61.375 v -8.3125 H 35.5 V 0 H 25.59375 V 64.59375 H -0.296875 Z" />
      <path
         id="DejaVuSans-111"
         d="m 30.609375,48.390625 q -7.21875,0 -11.421875,-5.640625 -4.203125,-5.640625 -4.203125,-15.453125 0,-9.8125 4.171875,-15.453125 4.1875,-5.640625 11.453125,-5.640625 7.1875,0 11.375,5.65625 4.203125,5.671875 4.203125,15.4375 0,9.71875 -4.203125,15.40625 -4.1875,5.6875 -11.375,5.6875 z m 0,7.609375 q 11.71875,0 18.40625,-7.625 6.703125,-7.609375 6.703125,-21.078125 0,-13.421875 -6.703125,-21.078125 -6.6875,-7.640625 -18.40625,-7.640625 -11.765625,0 -18.4375,7.640625 -6.65625,7.65625 -6.65625,21.078125 0,13.46875 6.65625,21.078125 Q 18.84375,56 30.609375,56 Z" />
      <path
         id="DejaVuSans-116"
         d="M 18.3125,70.21875 V 54.6875 h 18.5 v -6.984375 h -18.5 v -29.6875 q 0,-6.6875 1.828125,-8.59375 1.828125,-1.90625 7.453125,-1.90625 H 36.8125 V 0 H 27.59375 Q 17.1875,0 13.234375,3.875 9.28125,7.765625 9.28125,18.015625 v 29.6875 H 2.6875 V 54.6875 h 6.59375 v 15.53125 z" />
      <path
         id="DejaVuSans-97"
         d="m 34.28125,27.484375 q -10.890625,0 -15.09375,-2.484375 -4.203125,-2.484375 -4.203125,-8.5 0,-4.78125 3.15625,-7.59375 3.15625,-2.796875 8.5625,-2.796875 7.484375,0 12,5.296875 4.515625,5.296875 4.515625,14.078125 v 2 z m 17.921875,3.71875 V 0 H 43.21875 v 8.296875 q -3.078125,-4.96875 -7.671875,-7.34375 -4.59375,-2.375 -11.234375,-2.375 -8.390625,0 -13.359375,4.71875 Q 6,8.015625 6,15.921875 q 0,9.21875 6.171875,13.90625 6.1875,4.6875 18.4375,4.6875 H 43.21875 v 0.890625 q 0,6.203125 -4.078125,9.59375 -4.078125,3.390625 -11.453125,3.390625 -4.6875,0 -9.140625,-1.125 -4.4375,-1.125 -8.53125,-3.375 v 8.3125 q 4.921875,1.90625 9.5625,2.84375 Q 24.21875,56 28.609375,56 q 11.875,0 17.734375,-6.15625 5.859375,-6.140625 5.859375,-18.640625 z" />
      <path
         id="DejaVuSans-108"
         d="M 9.421875,75.984375 H 18.40625 V 0 H 9.421875 Z" />
      <path
         d=""
         id="DejaVuSans-32" />
      <path
         id="DejaVuSans-67"
         d="M 64.40625,67.28125 V 56.890625 q -4.984375,4.640625 -10.625,6.921875 -5.640625,2.296875 -11.984375,2.296875 -12.5,0 -19.140625,-7.640625 -6.640625,-7.640625 -6.640625,-22.09375 0,-14.40625 6.640625,-22.046875 Q 29.296875,6.6875 41.796875,6.6875 q 6.34375,0 11.984375,2.296875 5.640625,2.296875 10.625,6.9375 V 5.609375 Q 59.234375,2.09375 53.4375,0.328125 q -5.78125,-1.75 -12.21875,-1.75 -16.5625,0 -26.09375,10.125 Q 5.609375,18.84375 5.609375,36.375 q 0,17.578125 9.515625,27.703125 9.53125,10.140625 26.09375,10.140625 6.53125,0 12.3125,-1.734375 5.796875,-1.734375 10.875,-5.203125 z" />
      <path
         id="DejaVuSans-114"
         d="m 41.109375,46.296875 q -1.515625,0.875 -3.296875,1.28125 Q 36.03125,48 33.890625,48 26.265625,48 22.1875,43.046875 18.109375,38.09375 18.109375,28.8125 V 0 h -9.03125 v 54.6875 h 9.03125 v -8.5 q 2.84375,4.984375 7.375,7.390625 Q 30.03125,56 36.53125,56 q 0.921875,0 2.046875,-0.125 1.125,-0.109375 2.484375,-0.359375 z" />
      <path
         id="DejaVuSans-105"
         d="M 9.421875,54.6875 H 18.40625 V 0 H 9.421875 Z m 0,21.296875 H 18.40625 V 64.59375 H 9.421875 Z" />
      <path
         id="DejaVuSans-109"
         d="M 52,44.1875 Q 55.375,50.25 60.0625,53.125 64.75,56 71.09375,56 q 8.546875,0 13.1875,-5.984375 4.640625,-5.96875 4.640625,-17 V 0 h -9.03125 v 32.71875 q 0,7.859375 -2.796875,11.65625 -2.78125,3.8125 -8.484375,3.8125 -6.984375,0 -11.046875,-4.640625 -4.046875,-4.625 -4.046875,-12.640625 V 0 h -9.03125 v 32.71875 q 0,7.90625 -2.78125,11.6875 -2.78125,3.78125 -8.59375,3.78125 -6.890625,0 -10.953125,-4.65625 -4.046875,-4.65625 -4.046875,-12.625 V 0 h -9.03125 v 54.6875 h 9.03125 v -8.5 q 3.078125,5.03125 7.375,7.421875 Q 29.78125,56 35.6875,56 41.65625,56 45.828125,52.96875 50,49.953125 52,44.1875 Z" />
      <path
         id="DejaVuSans-101"
         d="m 56.203125,29.59375 v -4.390625 h -41.3125 q 0.59375,-9.28125 5.59375,-14.140625 5,-4.859375 13.9375,-4.859375 5.171875,0 10.03125,1.265625 4.859375,1.265625 9.65625,3.8125 v -8.5 q -4.84375,-2.046875 -9.921875,-3.125 -5.078125,-1.078125 -10.296875,-1.078125 -13.09375,0 -20.734375,7.609375 -7.640625,7.625 -7.640625,20.625 0,13.421875 7.25,21.296875 Q 20.015625,56 32.328125,56 q 11.03125,0 17.453125,-7.109375 6.421875,-7.09375 6.421875,-19.296875 z m -8.984375,2.640625 q -0.09375,7.359375 -4.125,11.75 -4.03125,4.40625 -10.671875,4.40625 -7.515625,0 -12.03125,-4.25 -4.515625,-4.25 -5.203125,-11.96875 z" />
      <path
         id="DejaVuSans-82"
         d="m 44.390625,34.1875 q 3.171875,-1.078125 6.171875,-4.59375 3,-3.515625 6.03125,-9.671875 L 66.609375,0 H 56 l -9.3125,18.703125 q -3.625,7.328125 -7.015625,9.71875 -3.390625,2.390625 -9.25,2.390625 h -10.75 V 0 H 9.8125 v 72.90625 h 22.265625 q 12.5,0 18.65625,-5.234375 6.15625,-5.21875 6.15625,-15.765625 0,-6.890625 -3.203125,-11.4375 -3.203125,-4.53125 -9.296875,-6.28125 z m -24.71875,30.609375 v -25.875 h 12.40625 q 7.125,0 10.765625,3.296875 3.640625,3.296875 3.640625,9.6875 0,6.390625 -3.640625,9.640625 -3.640625,3.25 -10.765625,3.25 z" />
      <path
         id="DejaVuSans-40"
         d="M 31,75.875 Q 24.46875,64.65625 21.28125,53.65625 18.109375,42.671875 18.109375,31.390625 18.109375,20.125 21.3125,9.0625 24.515625,-2 31,-13.1875 H 23.1875 Q 15.875,-1.703125 12.234375,9.375 8.59375,20.453125 8.59375,31.390625 q 0,10.890625 3.609375,21.921875 3.625,11.046875 10.984375,22.5625 z" />
      <path
         id="DejaVuSans-112"
         d="m 18.109375,8.203125 v -29 H 9.078125 V 54.6875 h 9.03125 v -8.296875 q 2.84375,4.875 7.15625,7.234375 Q 29.59375,56 35.59375,56 q 9.96875,0 16.1875,-7.90625 6.234375,-7.90625 6.234375,-20.796875 0,-12.890625 -6.234375,-20.8125 -6.21875,-7.90625 -16.1875,-7.90625 -6,0 -10.328125,2.375 -4.3125,2.375 -7.15625,7.25 z M 48.6875,27.296875 q 0,9.90625 -4.078125,15.546875 -4.078125,5.640625 -11.203125,5.640625 -7.140625,0 -11.21875,-5.640625 -4.078125,-5.640625 -4.078125,-15.546875 0,-9.90625 4.078125,-15.546875 4.078125,-5.640625 11.21875,-5.640625 7.125,0 11.203125,5.640625 4.078125,5.640625 4.078125,15.546875 z" />
      <path
         id="DejaVuSans-44"
         d="M 11.71875,12.40625 H 22.015625 V 4 l -8,-15.625 H 7.71875 l 4,15.625 z" />
      <path
         id="DejaVuSans-115"
         d="m 44.28125,53.078125 v -8.5 Q 40.484375,46.53125 36.375,47.5 q -4.09375,0.984375 -8.5,0.984375 -6.6875,0 -10.03125,-2.046875 Q 14.5,44.390625 14.5,40.28125 q 0,-3.125 2.390625,-4.90625 2.390625,-1.78125 9.625,-3.390625 l 3.078125,-0.6875 Q 39.15625,29.25 43.1875,25.515625 47.21875,21.78125 47.21875,15.09375 q 0,-7.625 -6.03125,-12.078125 -6.03125,-4.4375 -16.578125,-4.4375 -4.390625,0 -9.15625,0.859375 Q 10.6875,0.296875 5.421875,2 v 9.28125 q 4.984375,-2.59375 9.8125,-3.890625 4.828125,-1.28125 9.578125,-1.28125 6.34375,0 9.75,2.171875 3.421875,2.171875 3.421875,6.125 0,3.65625 -2.46875,5.609375 -2.453125,1.953125 -10.8125,3.765625 l -3.125,0.734375 q -8.34375,1.75 -12.0625,5.390625 -3.703125,3.640625 -3.703125,9.984375 0,7.71875 5.46875,11.90625 Q 16.75,56 26.8125,56 q 4.96875,0 9.359375,-0.734375 4.40625,-0.71875 8.109375,-2.1875 z" />
      <path
         id="DejaVuSans-100"
         d="m 45.40625,46.390625 v 29.59375 h 8.984375 V 0 H 45.40625 v 8.203125 q -2.828125,-4.875 -7.15625,-7.25 -4.3125,-2.375 -10.375,-2.375 -9.90625,0 -16.140625,7.90625 -6.21875,7.921875 -6.21875,20.8125 0,12.890625 6.21875,20.796875 Q 17.96875,56 27.875,56 q 6.0625,0 10.375,-2.375 4.328125,-2.359375 7.15625,-7.234375 z M 14.796875,27.296875 q 0,-9.90625 4.078125,-15.546875 4.078125,-5.640625 11.203125,-5.640625 7.125,0 11.21875,5.640625 4.109375,5.640625 4.109375,15.546875 0,9.90625 -4.109375,15.546875 -4.09375,5.640625 -11.21875,5.640625 -7.125,0 -11.203125,-5.640625 -4.078125,-5.640625 -4.078125,-15.546875 z" />
      <path
         id="DejaVuSans-110"
         d="M 54.890625,33.015625 V 0 H 45.90625 v 32.71875 q 0,7.765625 -3.03125,11.609375 -3.03125,3.859375 -9.078125,3.859375 -7.28125,0 -11.484375,-4.640625 -4.203125,-4.625 -4.203125,-12.640625 V 0 h -9.03125 v 54.6875 h 9.03125 v -8.5 q 3.234375,4.9375 7.59375,7.375 4.375,2.4375 10.09375,2.4375 9.421875,0 14.25,-5.828125 4.84375,-5.828125 4.84375,-17.15625 z" />
      <path
         id="DejaVuSans-41"
         d="m 8.015625,75.875 h 7.8125 q 7.3125,-11.515625 10.953125,-22.5625 3.640625,-11.03125 3.640625,-21.921875 0,-10.9375 -3.640625,-22.015625 -3.640625,-11.078125 -10.953125,-22.5625 h -7.8125 Q 14.5,-2 17.703125,9.0625 20.90625,20.125 20.90625,31.390625 q 0,11.28125 -3.203125,22.265625 -3.203125,11 -9.6875,22.21875 z" />
    </defs>
    <defs
       id="defs432">
      <path
         id="DejaVuSans-80"
         d="M 19.671875,64.796875 V 37.40625 h 12.40625 q 6.890625,0 10.640625,3.5625 3.765625,3.5625 3.765625,10.15625 0,6.546875 -3.765625,10.109375 -3.75,3.5625 -10.640625,3.5625 z M 9.8125,72.90625 h 22.265625 q 12.265625,0 18.53125,-5.546875 6.28125,-5.546875 6.28125,-16.234375 0,-10.796875 -6.28125,-16.3125 -6.265625,-5.515625 -18.53125,-5.515625 H 19.671875 V 0 H 9.8125 Z" />
      <path
         id="DejaVuSans-99"
         d="M 48.78125,52.59375 V 44.1875 q -3.8125,2.109375 -7.640625,3.15625 -3.828125,1.046875 -7.734375,1.046875 -8.75,0 -13.59375,-5.546875 -4.828125,-5.53125 -4.828125,-15.546875 0,-10.015625 4.828125,-15.5625 4.84375,-5.53125 13.59375,-5.53125 3.90625,0 7.734375,1.046875 3.828125,1.046875 7.640625,3.15625 v -8.3125 q -3.765625,-1.75 -7.796875,-2.625 -4.015625,-0.890625 -8.5625,-0.890625 -12.359375,0 -19.640625,7.765625 -7.265625,7.765625 -7.265625,20.953125 0,13.375 7.34375,21.03125 Q 20.21875,56 33.015625,56 q 4.140625,0 8.09375,-0.859375 3.953125,-0.84375 7.671875,-2.546875 z" />
      <path
         id="DejaVuSans-66"
         d="M 19.671875,34.8125 V 8.109375 H 35.5 q 7.953125,0 11.78125,3.296875 3.84375,3.296875 3.84375,10.078125 0,6.84375 -3.84375,10.078125 -3.828125,3.25 -11.78125,3.25 z m 0,29.984375 V 42.828125 H 34.28125 q 7.21875,0 10.75,2.703125 3.546875,2.71875 3.546875,8.28125 0,5.515625 -3.546875,8.25 -3.53125,2.734375 -10.75,2.734375 z M 9.8125,72.90625 h 25.203125 q 11.28125,0 17.375,-4.6875 Q 58.5,63.53125 58.5,54.890625 58.5,48.1875 55.375,44.234375 52.25,40.28125 46.1875,39.3125 53.46875,37.75 57.5,32.78125 q 4.03125,-4.953125 4.03125,-12.375 0,-9.765625 -6.640625,-15.09375 Q 48.25,0 35.984375,0 H 9.8125 Z" />
      <path
         id="DejaVuSans-117"
         d="M 8.5,21.578125 V 54.6875 h 8.984375 V 21.921875 q 0,-7.765625 3.015625,-11.65625 3.03125,-3.875 9.09375,-3.875 7.265625,0 11.484375,4.640625 4.234375,4.640625 4.234375,12.65625 v 31 h 8.984375 V 0 H 45.3125 V 8.40625 Q 42.046875,3.421875 37.71875,1 33.40625,-1.421875 27.6875,-1.421875 18.265625,-1.421875 13.375,4.4375 8.5,10.296875 8.5,21.578125 Z M 31.109375,56 Z" />
      <path
         id="DejaVuSans-103"
         d="m 45.40625,27.984375 q 0,9.765625 -4.03125,15.125 -4.015625,5.375 -11.296875,5.375 -7.21875,0 -11.25,-5.375 -4.03125,-5.359375 -4.03125,-15.125 0,-9.71875 4.03125,-15.09375 4.03125,-5.375 11.25,-5.375 7.28125,0 11.296875,5.375 4.03125,5.375 4.03125,15.09375 z M 54.390625,6.78125 q 0,-13.953125 -6.203125,-20.765625 -6.1875,-6.8125 -18.984375,-6.8125 -4.734375,0 -8.9375,0.703125 -4.203125,0.703125 -8.15625,2.171875 V -9.1875 q 3.953125,-2.140625 7.8125,-3.15625 3.859375,-1.03125 7.859375,-1.03125 8.84375,0 13.234375,4.609375 4.390625,4.609375 4.390625,13.9375 V 9.625 Q 42.625,4.78125 38.28125,2.390625 33.9375,0 27.875,0 17.828125,0 11.671875,7.65625 q -6.15625,7.671875 -6.15625,20.328125 0,12.6875 6.15625,20.34375 Q 17.828125,56 27.875,56 q 6.0625,0 10.40625,-2.390625 4.34375,-2.390625 7.125,-7.21875 V 54.6875 h 8.984375 z" />
    </defs>
    <defs
       id="defs602">
      <path
         id="DejaVuSans-78"
         d="M 9.8125,72.90625 H 23.09375 L 55.421875,11.921875 V 72.90625 h 9.5625 V 0 h -13.28125 l -32.3125,60.984375 V 0 H 9.8125 Z" />
      <path
         id="DejaVuSans-119"
         d="M 4.203125,54.6875 H 13.1875 L 24.421875,12.015625 35.59375,54.6875 H 46.1875 L 57.421875,12.015625 68.609375,54.6875 H 77.59375 L 63.28125,0 H 52.6875 L 40.921875,44.828125 29.109375,0 H 18.5 Z" />
    </defs>
    <defs
       id="defs80">
      <path
         d="M 0,0 V 3.5"
         id="mc0ea6e0e08"
         style="stroke:#000000;stroke-width:0.8" />
    </defs>
    <defs
       id="defs88">
      <path
         d="M 19.1875,8.296875 H 53.609375 V 0 H 7.328125 v 8.296875 q 5.609375,5.8125 15.296875,15.59375 9.703125,9.796875 12.1875,12.640625 4.734375,5.3125 6.609375,9 1.890625,3.6875 1.890625,7.25 0,5.8125 -4.078125,9.46875 -4.078125,3.671875 -10.625,3.671875 -4.640625,0 -9.796875,-1.609375 -5.140625,-1.609375 -11,-4.890625 v 9.96875 Q 13.765625,71.78125 18.9375,73 q 5.1875,1.21875 9.484375,1.21875 11.328125,0 18.0625,-5.671875 6.734375,-5.65625 6.734375,-15.125 0,-4.5 -1.6875,-8.53125 Q 49.859375,40.875 45.40625,35.40625 44.1875,33.984375 37.640625,27.21875 31.109375,20.453125 19.1875,8.296875 Z"
         id="DejaVuSans-50" />
    </defs>
    <defs
       id="defs102">
      <path
         d="M 37.796875,64.3125 12.890625,25.390625 h 24.90625 z m -2.59375,8.59375 h 12.40625 V 25.390625 h 10.40625 V 17.1875 H 47.609375 V 0 h -9.8125 V 17.1875 H 4.890625 v 9.515625 z"
         id="DejaVuSans-52" />
    </defs>
    <defs
       id="defs116">
      <path
         d="m 33.015625,40.375 q -6.640625,0 -10.53125,-4.546875 -3.875,-4.53125 -3.875,-12.4375 0,-7.859375 3.875,-12.4375 3.890625,-4.5625 10.53125,-4.5625 6.640625,0 10.515625,4.5625 3.875,4.578125 3.875,12.4375 0,7.90625 -3.875,12.4375 Q 39.65625,40.375 33.015625,40.375 Z M 52.59375,71.296875 V 62.3125 q -3.71875,1.75 -7.5,2.671875 -3.78125,0.9375 -7.5,0.9375 -9.765625,0 -14.921875,-6.59375 -5.140625,-6.59375 -5.875,-19.921875 2.875,4.25 7.21875,6.515625 4.359375,2.265625 9.578125,2.265625 10.984375,0 17.359375,-6.671875 6.375,-6.65625 6.375,-18.125 0,-11.234375 -6.640625,-18.03125 -6.640625,-6.78125 -17.671875,-6.78125 -12.65625,0 -19.34375,9.6875 -6.6875,9.703125 -6.6875,28.109375 0,17.28125 8.203125,27.5625 8.203125,10.28125 22.015625,10.28125 3.71875,0 7.5,-0.734375 3.78125,-0.734375 7.890625,-2.1875 z"
         id="DejaVuSans-54" />
    </defs>
    <defs
       id="defs130">
      <path
         d="m 31.78125,34.625 q -7.03125,0 -11.0625,-3.765625 -4.015625,-3.765625 -4.015625,-10.34375 0,-6.59375 4.015625,-10.359375 4.03125,-3.765625 11.0625,-3.765625 7.03125,0 11.078125,3.78125 4.0625,3.796875 4.0625,10.34375 0,6.578125 -4.03125,10.34375 Q 38.875,34.625 31.78125,34.625 Z m -9.859375,4.1875 Q 15.578125,40.375 12.03125,44.71875 8.5,49.078125 8.5,55.328125 q 0,8.734375 6.21875,13.8125 6.234375,5.078125 17.0625,5.078125 10.890625,0 17.09375,-5.078125 6.203125,-5.078125 6.203125,-13.8125 0,-6.25 -3.546875,-10.609375 Q 48,40.375 41.703125,38.8125 q 7.125,-1.65625 11.09375,-6.5 3.984375,-4.828125 3.984375,-11.796875 0,-10.609375 -6.46875,-16.28125 -6.46875,-5.65625 -18.53125,-5.65625 -12.046875,0 -18.53125,5.65625 -6.46875,5.671875 -6.46875,16.28125 0,6.96875 4,11.796875 4.015625,4.84375 11.140625,6.5 z M 18.3125,54.390625 q 0,-5.65625 3.53125,-8.828125 3.546875,-3.171875 9.9375,-3.171875 6.359375,0 9.9375,3.171875 3.59375,3.171875 3.59375,8.828125 0,5.671875 -3.59375,8.84375 -3.578125,3.171875 -9.9375,3.171875 -6.390625,0 -9.9375,-3.171875 Q 18.3125,60.0625 18.3125,54.390625 Z"
         id="DejaVuSans-56" />
    </defs>
    <defs
       id="defs145">
      <path
         d="m 12.40625,8.296875 h 16.109375 v 55.625 L 10.984375,60.40625 v 8.984375 l 17.4375,3.515625 H 38.28125 V 8.296875 H 54.390625 V 0 H 12.40625 Z"
         id="DejaVuSans-49" />
      <path
         d="m 31.78125,66.40625 q -7.609375,0 -11.453125,-7.5 Q 16.5,51.421875 16.5,36.375 q 0,-14.984375 3.828125,-22.484375 3.84375,-7.5 11.453125,-7.5 7.671875,0 11.5,7.5 3.84375,7.5 3.84375,22.484375 0,15.046875 -3.84375,22.53125 -3.828125,7.5 -11.5,7.5 z m 0,7.8125 q 12.265625,0 18.734375,-9.703125 6.46875,-9.6875 6.46875,-28.140625 0,-18.40625 -6.46875,-28.109375 -6.46875,-9.6875 -18.734375,-9.6875 -12.25,0 -18.71875,9.6875 Q 6.59375,17.96875 6.59375,36.375 q 0,18.453125 6.46875,28.140625 6.46875,9.703125 18.71875,9.703125 z"
         id="DejaVuSans-48" />
    </defs>
    <defs
       id="defs296">
      <path
         d="M 0,0 H -3.5"
         id="mca9929ccda"
         style="stroke:#000000;stroke-width:0.8" />
    </defs>
    <defs
       id="defs304">
      <path
         d="m 10.796875,72.90625 h 38.71875 v -8.3125 h -29.6875 V 46.734375 q 2.140625,0.734375 4.28125,1.09375 2.15625,0.359375 4.3125,0.359375 Q 40.625,48.1875 47.75,41.5 54.890625,34.8125 54.890625,23.390625 54.890625,11.625 47.5625,5.09375 40.234375,-1.421875 26.90625,-1.421875 q -4.59375,0 -9.359375,0.78125 -4.75,0.78125 -9.828125,2.34375 V 11.625 q 4.390625,-2.390625 9.078125,-3.5625 4.6875,-1.171875 9.90625,-1.171875 8.453125,0 13.375,4.4375 4.9375,4.4375 4.9375,12.0625 0,7.609375 -4.9375,12.046875 -4.921875,4.453125 -13.375,4.453125 -3.953125,0 -7.890625,-0.875 -3.921875,-0.875 -8.015625,-2.734375 z"
         id="DejaVuSans-53" />
    </defs>
    <defs
       id="defs322">
      <path
         d="m 8.203125,72.90625 h 46.875 V 68.703125 L 28.609375,0 H 18.3125 L 43.21875,64.59375 H 8.203125 Z"
         id="DejaVuSans-55" />
    </defs>
    <defs
       id="defs400">
      <path
         d="M 40.578125,39.3125 Q 47.65625,37.796875 51.625,33 q 3.984375,-4.78125 3.984375,-11.8125 0,-10.78125 -7.421875,-16.703125 -7.421875,-5.90625 -21.09375,-5.90625 -4.578125,0 -9.4375,0.90625 -4.859375,0.90625 -10.03125,2.71875 v 9.515625 q 4.09375,-2.390625 8.96875,-3.609375 4.890625,-1.21875 10.21875,-1.21875 9.265625,0 14.125,3.65625 4.859375,3.65625 4.859375,10.640625 0,6.453125 -4.515625,10.078125 -4.515625,3.640625 -12.5625,3.640625 h -8.5 v 8.109375 h 8.890625 q 7.265625,0 11.125,2.90625 3.859375,2.90625 3.859375,8.375 0,5.609375 -3.984375,8.609375 -3.96875,3.015625 -11.390625,3.015625 -4.0625,0 -8.703125,-0.890625 Q 15.375,64.15625 9.8125,62.3125 v 8.78125 q 5.625,1.5625 10.53125,2.34375 4.90625,0.78125 9.25,0.78125 11.234375,0 17.765625,-5.109375 6.546875,-5.09375 6.546875,-13.78125 0,-6.0625 -3.46875,-10.234375 -3.46875,-4.171875 -9.859375,-5.78125 z"
         id="DejaVuSans-51" />
    </defs>
  </defs>
  <path
     id="path6"
     style="fill:#ffffff"
     d="M 0,288 H 432 V 0 H 0 Z" />
  <path
     d="M 54,252 H 388.8 V 34.56 H 54 Z"
     style="fill:#ffffff"
     id="path9" />
  <use
     height="100%"
     width="100%"
     id="use15"
     y="241.75191"
     xlink:href="#m0d81dfbc8a"
     x="92.324219"
     style="fill:#1f77b4;fill-opacity:0.8;stroke:#1f77b4;stroke-opacity:0.8" />
  <use
     height="100%"
     width="100%"
     id="use17"
     y="234.31586"
     xlink:href="#m0d81dfbc8a"
     x="288.10052"
     style="fill:#1f77b4;fill-opacity:0.8;stroke:#1f77b4;stroke-opacity:0.8" />
  <use
     height="100%"
     width="100%"
     id="use19"
     y="224.85889"
     xlink:href="#m0d81dfbc8a"
     x="103.70657"
     style="fill:#1f77b4;fill-opacity:0.8;stroke:#1f77b4;stroke-opacity:0.8" />
  <use
     height="100%"
     width="100%"
     id="use21"
     y="216.74176"
     xlink:href="#m0d81dfbc8a"
     x="206.14766"
     style="fill:#1f77b4;fill-opacity:0.8;stroke:#1f77b4;stroke-opacity:0.8" />
  <use
     height="100%"
     width="100%"
     id="use23"
     y="203.2653"
     xlink:href="#m0d81dfbc8a"
     x="153.78888"
     style="fill:#1f77b4;fill-opacity:0.8;stroke:#1f77b4;stroke-opacity:0.8" />
  <use
     height="100%"
     width="100%"
     id="use25"
     y="198.8327"
     xlink:href="#m0d81dfbc8a"
     x="190.21237"
     style="fill:#1f77b4;fill-opacity:0.8;stroke:#1f77b4;stroke-opacity:0.8" />
  <use
     height="100%"
     width="100%"
     id="use27"
     y="197.92831"
     xlink:href="#m0d81dfbc8a"
     x="135.57713"
     style="fill:#1f77b4;fill-opacity:0.8;stroke:#1f77b4;stroke-opacity:0.8" />
  <use
     height="100%"
     width="100%"
     id="use29"
     y="187.53346"
     xlink:href="#m0d81dfbc8a"
     x="131.02419"
     style="fill:#1f77b4;fill-opacity:0.8;stroke:#1f77b4;stroke-opacity:0.8" />
  <use
     height="100%"
     width="100%"
     id="use31"
     y="177.64105"
     xlink:href="#m0d81dfbc8a"
     x="206.14766"
     style="fill:#1f77b4;fill-opacity:0.8;stroke:#1f77b4;stroke-opacity:0.8" />
  <use
     height="100%"
     width="100%"
     id="use33"
     y="172.86232"
     xlink:href="#m0d81dfbc8a"
     x="133.30066"
     style="fill:#1f77b4;fill-opacity:0.8;stroke:#1f77b4;stroke-opacity:0.8" />
  <use
     height="100%"
     width="100%"
     id="use35"
     y="169.90353"
     xlink:href="#m0d81dfbc8a"
     x="156.06534"
     style="fill:#1f77b4;fill-opacity:0.8;stroke:#1f77b4;stroke-opacity:0.8" />
  <use
     height="100%"
     width="100%"
     id="use37"
     y="168.87633"
     xlink:href="#m0d81dfbc8a"
     x="322.24756"
     style="fill:#1f77b4;fill-opacity:0.8;stroke:#1f77b4;stroke-opacity:0.8" />
  <use
     height="100%"
     width="100%"
     id="use39"
     y="168.18408"
     xlink:href="#m0d81dfbc8a"
     x="359.58167"
     style="fill:#1f77b4;fill-opacity:0.8;stroke:#1f77b4;stroke-opacity:0.8" />
  <use
     height="100%"
     width="100%"
     id="use41"
     y="159.43053"
     xlink:href="#m0d81dfbc8a"
     x="206.14766"
     style="fill:#1f77b4;fill-opacity:0.8;stroke:#1f77b4;stroke-opacity:0.8" />
  <use
     height="100%"
     width="100%"
     id="use43"
     y="157.58827"
     xlink:href="#m0d81dfbc8a"
     x="183.38297"
     style="fill:#1f77b4;fill-opacity:0.8;stroke:#1f77b4;stroke-opacity:0.8" />
  <use
     height="100%"
     width="100%"
     id="use45"
     y="154.14937"
     xlink:href="#m0d81dfbc8a"
     x="103.70657"
     style="fill:#1f77b4;fill-opacity:0.8;stroke:#1f77b4;stroke-opacity:0.8" />
  <use
     height="100%"
     width="100%"
     id="use47"
     y="151.78233"
     xlink:href="#m0d81dfbc8a"
     x="140.13007"
     style="fill:#1f77b4;fill-opacity:0.8;stroke:#1f77b4;stroke-opacity:0.8" />
  <use
     height="100%"
     width="100%"
     id="use49"
     y="150.93378"
     xlink:href="#m0d81dfbc8a"
     x="358.67108"
     style="fill:#1f77b4;fill-opacity:0.8;stroke:#1f77b4;stroke-opacity:0.8" />
  <use
     height="100%"
     width="100%"
     id="use51"
     y="147.5507"
     xlink:href="#m0d81dfbc8a"
     x="124.19478"
     style="fill:#1f77b4;fill-opacity:0.8;stroke:#1f77b4;stroke-opacity:0.8" />
  <use
     height="100%"
     width="100%"
     id="use55"
     y="103.40331"
     xlink:href="#m0d81dfbc8a"
     x="83.218346"
     style="fill:#1f77b4;fill-opacity:0.8;stroke:#1f77b4;stroke-opacity:0.8" />
  <use
     height="100%"
     width="100%"
     id="use57"
     y="94.873062"
     xlink:href="#m0d81dfbc8a"
     x="219.80647"
     style="fill:#1f77b4;fill-opacity:0.8;stroke:#1f77b4;stroke-opacity:0.8" />
  <use
     height="100%"
     width="100%"
     id="use59"
     y="87.303024"
     xlink:href="#m0d81dfbc8a"
     x="172.00063"
     style="fill:#1f77b4;fill-opacity:0.8;stroke:#1f77b4;stroke-opacity:0.8" />
  <use
     height="100%"
     width="100%"
     id="use61"
     y="44.808086"
     xlink:href="#m0d81dfbc8a"
     x="292.65347"
     style="fill:#1f77b4;fill-opacity:0.8;stroke:#1f77b4;stroke-opacity:0.8" />
  <use
     height="100%"
     width="100%"
     id="use63"
     y="168.53021"
     xlink:href="#m0d81dfbc8a"
     x="178.83003"
     style="fill:#1f77b4;fill-opacity:0.8;stroke:#1f77b4;stroke-opacity:0.8" />
  <path
     clip-path="url(#p8e68baeadd)"
     d="m 69.218182,145.19241 v 63.77656 l 3.07438,-0.95517 3.07438,-0.99604 3.07438,-1.26458 3.07438,-0.90684 3.074381,-1.03469 3.07438,-1.01754 3.07438,-0.66911 3.07438,-1.34144 3.07438,-0.6038 3.07438,-1.07481 3.074377,-0.83335 3.07438,-0.82677 3.07438,-0.83939 3.07438,-0.93729 3.07438,-1.03079 3.07438,-0.72129 3.07439,-0.63975 3.07437,-0.86207 3.07439,-0.49463 3.07437,-1.12407 3.07438,-0.81505 3.07438,-0.26653 3.07439,-0.49321 3.07438,-0.9818 3.07438,-0.5408 3.07438,-0.90553 3.07438,-0.67682 3.07438,-0.38095 3.07438,-0.46484 3.07438,-0.4299 3.07438,-0.89914 3.07438,-0.52108 3.07438,-0.44731 3.07438,-0.27082 3.07438,0.0807 3.07438,0.0425 3.07438,-0.41645 3.07438,-0.25881 3.07438,-0.20995 3.07438,-0.21242 3.07438,-0.10056 3.07438,-0.0397 3.07438,-0.17763 3.07438,-0.15338 3.07438,-0.34371 3.07438,0.18224 3.07438,0.44055 3.07438,0.61406 3.07438,0.15269 3.07438,-0.0201 3.07438,-0.0313 3.07438,-0.3072 3.07438,0.25446 3.07438,0.002 3.07438,-0.0493 3.07438,-0.0229 3.07438,0.5027 3.07438,-0.0787 3.07438,0.71798 3.07438,0.49952 3.07438,-0.29509 3.07438,0.32505 3.07438,0.42002 3.07438,0.18943 3.07438,0.26668 3.07438,0.64935 3.07438,0.0902 3.07438,0.0901 3.07438,0.0872 3.07438,0.0868 3.07438,0.0868 3.07438,0.17608 3.07438,0.61686 3.07438,0.61686 3.07438,0.61686 3.07438,0.59081 3.07438,0.27455 3.07438,0.26895 3.07439,0.26896 3.07437,0.26895 3.07438,0.26896 3.07439,0.26895 3.07438,0.26896 3.07438,0.26895 3.07438,0.26896 3.07438,0.26895 3.07438,0.26896 3.07438,0.26895 3.07438,0.26379 3.07438,0.26368 3.07438,0.25051 3.07438,0.0865 3.07438,0.16009 3.07438,0.34497 3.07438,0.34496 3.07438,0.34496 3.07438,0.34225 3.07438,0.35329 3.07438,0.35289 v -117.250882 0 l -3.07438,1.299656 -3.07438,1.299656 -3.07438,1.299656 -3.07438,1.299656 -3.07438,1.299656 -3.07438,1.299656 -3.07438,1.299656 -3.07438,1.299656 -3.07438,1.299657 -3.07438,1.299656 -3.07438,1.299656 -3.07438,1.299656 -3.07438,1.301799 -3.07438,1.302703 -3.07438,1.302703 -3.07438,1.186859 -3.07438,1.177591 -3.07439,1.177594 -3.07438,1.18303 -3.07437,1.38763 -3.07439,1.31538 -3.07438,1.01633 -3.07438,1.13595 -3.07438,1.44868 -3.07438,1.4977 -3.07438,1.1701 -3.07438,0.94287 -3.07438,0.94287 -3.07438,1.03639 -3.07438,1.26626 -3.07438,1.26879 -3.07438,1.26879 -3.07438,1.2688 -3.07438,1.26879 -3.07438,1.26007 -3.07438,1.12438 -3.07438,1.12851 -3.07438,1.12851 -3.07438,1.23428 -3.07438,1.00767 -3.07438,1.29326 -3.07438,0.9523 -3.07438,0.84327 -3.07438,1.08371 -3.07438,1.17009 -3.07438,1.13279 -3.07438,1.02075 -3.07438,1.01559 -3.07438,1.03062 -3.07438,0.98432 -3.07438,1.09389 -3.07438,1.332 -3.07438,0.7838 -3.07438,1.19489 -3.07438,0.96749 -3.07438,1.49584 -3.07438,0.54345 -3.07438,0.7708 -3.07438,1.1239 -3.07438,1.1021 -3.07438,0.54253 -3.07438,0.20269 -3.07438,0.0101 -3.07438,0.59723 -3.07438,0.17582 -3.07438,0.34759 -3.07438,0.61514 -3.07438,0.0303 -3.07438,0.56679 -3.07438,0.26358 -3.07438,0.0526 -3.07438,-0.0203 -3.07438,0.28484 -3.07438,-0.32146 -3.07438,-0.23553 -3.07438,-0.26394 -3.07439,-0.29564 -3.07438,-0.1702 -3.07438,0.22231 -3.07437,0.0324 -3.07439,-0.53621 -3.07437,0.0989 -3.07439,-0.25127 -3.07438,-0.0459 -3.07438,-0.20064 -3.07438,-0.25767 -3.07438,-0.168 -3.07438,-0.25477 -3.074377,-0.12506 -3.07438,-0.20372 -3.07438,-0.51354 -3.07438,-0.11214 -3.07438,-0.15934 -3.07438,-0.0804 -3.074381,-0.15472 -3.07438,-0.6163 -3.07438,-0.63733 -3.07438,-0.2849 z"
     style="fill:#1f77b4;fill-opacity:0.15"
     id="path68" />
  <use
     height="100%"
     width="100%"
     id="use74"
     y="117.77299"
     xlink:href="#m19b3826b10"
     x="199.31825"
     style="stroke:#000000" />
  <g
     id="g84">
    <use
       style="stroke:#000000;stroke-width:0.8"
       x="67.283066"
       xlink:href="#mc0ea6e0e08"
       y="252"
       id="use82"
       width="100%"
       height="100%" />
  </g>
  <g
     transform="matrix(0.1,0,0,-0.1,64.101812,266.59844)"
     id="g92">
    <use
       xlink:href="#DejaVuSans-50"
       id="use90"
       x="0"
       y="0"
       width="100%"
       height="100%" />
  </g>
  <g
     id="g98">
    <use
       style="stroke:#000000;stroke-width:0.8"
       x="112.81244"
       xlink:href="#mc0ea6e0e08"
       y="252"
       id="use96"
       width="100%"
       height="100%" />
  </g>
  <g
     transform="matrix(0.1,0,0,-0.1,109.63119,266.59844)"
     id="g106">
    <use
       xlink:href="#DejaVuSans-52"
       id="use104"
       x="0"
       y="0"
       width="100%"
       height="100%" />
  </g>
  <g
     id="g112">
    <use
       style="stroke:#000000;stroke-width:0.8"
       x="158.34181"
       xlink:href="#mc0ea6e0e08"
       y="252"
       id="use110"
       width="100%"
       height="100%" />
  </g>
  <g
     transform="matrix(0.1,0,0,-0.1,155.16056,266.59844)"
     id="g120">
    <use
       xlink:href="#DejaVuSans-54"
       id="use118"
       x="0"
       y="0"
       width="100%"
       height="100%" />
  </g>
  <g
     id="g126">
    <use
       style="stroke:#000000;stroke-width:0.8"
       x="203.87119"
       xlink:href="#mc0ea6e0e08"
       y="252"
       id="use124"
       width="100%"
       height="100%" />
  </g>
  <g
     transform="matrix(0.1,0,0,-0.1,200.68994,266.59844)"
     id="g134">
    <use
       xlink:href="#DejaVuSans-56"
       id="use132"
       x="0"
       y="0"
       width="100%"
       height="100%" />
  </g>
  <g
     id="g140">
    <use
       style="stroke:#000000;stroke-width:0.8"
       x="249.40056"
       xlink:href="#mc0ea6e0e08"
       y="252"
       id="use138"
       width="100%"
       height="100%" />
  </g>
  <g
     transform="matrix(0.1,0,0,-0.1,243.03807,266.59844)"
     id="g151">
    <use
       xlink:href="#DejaVuSans-49"
       id="use147"
       x="0"
       y="0"
       width="100%"
       height="100%" />
    <use
       x="63.623047"
       xlink:href="#DejaVuSans-48"
       id="use149"
       y="0"
       width="100%"
       height="100%" />
  </g>
  <g
     id="g157">
    <use
       style="stroke:#000000;stroke-width:0.8"
       x="294.92993"
       xlink:href="#mc0ea6e0e08"
       y="252"
       id="use155"
       width="100%"
       height="100%" />
  </g>
  <g
     transform="matrix(0.1,0,0,-0.1,288.56744,266.59844)"
     id="g164">
    <use
       xlink:href="#DejaVuSans-49"
       id="use160"
       x="0"
       y="0"
       width="100%"
       height="100%" />
    <use
       x="63.623047"
       xlink:href="#DejaVuSans-50"
       id="use162"
       y="0"
       width="100%"
       height="100%" />
  </g>
  <g
     id="g170">
    <use
       style="stroke:#000000;stroke-width:0.8"
       x="340.45932"
       xlink:href="#mc0ea6e0e08"
       y="252"
       id="use168"
       width="100%"
       height="100%" />
  </g>
  <g
     transform="matrix(0.1,0,0,-0.1,334.09682,266.59844)"
     id="g177">
    <use
       xlink:href="#DejaVuSans-49"
       id="use173"
       x="0"
       y="0"
       width="100%"
       height="100%" />
    <use
       x="63.623047"
       xlink:href="#DejaVuSans-52"
       id="use175"
       y="0"
       width="100%"
       height="100%" />
  </g>
  <g
     id="g183">
    <use
       style="stroke:#000000;stroke-width:0.8"
       x="385.98871"
       xlink:href="#mc0ea6e0e08"
       y="252"
       id="use181"
       width="100%"
       height="100%" />
  </g>
  <g
     transform="matrix(0.1,0,0,-0.1,379.62619,266.59844)"
     id="g190">
    <use
       xlink:href="#DejaVuSans-49"
       id="use186"
       x="0"
       y="0"
       width="100%"
       height="100%" />
    <use
       x="63.623047"
       xlink:href="#DejaVuSans-54"
       id="use188"
       y="0"
       width="100%"
       height="100%" />
  </g>
  <use
     transform="matrix(0.1,0,0,-0.1,124.85469,280.27656)"
     xlink:href="#DejaVuSans-84"
     id="use215"
     x="0"
     y="0"
     width="100%"
     height="100%" />
  <use
     transform="matrix(0.1,0,0,-0.1,124.85469,280.27656)"
     x="60.818359"
     xlink:href="#DejaVuSans-111"
     id="use217"
     y="0"
     width="100%"
     height="100%" />
  <use
     transform="matrix(0.1,0,0,-0.1,124.85469,280.27656)"
     x="122"
     xlink:href="#DejaVuSans-116"
     id="use219"
     y="0"
     width="100%"
     height="100%" />
  <use
     transform="matrix(0.1,0,0,-0.1,124.85469,280.27656)"
     x="161.20898"
     xlink:href="#DejaVuSans-97"
     id="use221"
     y="0"
     width="100%"
     height="100%" />
  <use
     transform="matrix(0.1,0,0,-0.1,124.85469,280.27656)"
     x="222.48828"
     xlink:href="#DejaVuSans-108"
     id="use223"
     y="0"
     width="100%"
     height="100%" />
  <use
     transform="matrix(0.1,0,0,-0.1,124.85469,280.27656)"
     x="250.27148"
     xlink:href="#DejaVuSans-32"
     id="use225"
     y="0"
     width="100%"
     height="100%" />
  <use
     transform="matrix(0.1,0,0,-0.1,124.85469,280.27656)"
     x="282.05859"
     xlink:href="#DejaVuSans-67"
     id="use227"
     y="0"
     width="100%"
     height="100%" />
  <use
     transform="matrix(0.1,0,0,-0.1,124.85469,280.27656)"
     x="351.88281"
     xlink:href="#DejaVuSans-114"
     id="use229"
     y="0"
     width="100%"
     height="100%" />
  <use
     transform="matrix(0.1,0,0,-0.1,124.85469,280.27656)"
     x="392.99609"
     xlink:href="#DejaVuSans-105"
     id="use231"
     y="0"
     width="100%"
     height="100%" />
  <use
     transform="matrix(0.1,0,0,-0.1,124.85469,280.27656)"
     x="420.7793"
     xlink:href="#DejaVuSans-109"
     id="use233"
     y="0"
     width="100%"
     height="100%" />
  <use
     transform="matrix(0.1,0,0,-0.1,124.85469,280.27656)"
     x="518.19141"
     xlink:href="#DejaVuSans-101"
     id="use235"
     y="0"
     width="100%"
     height="100%" />
  <use
     transform="matrix(0.1,0,0,-0.1,124.85469,280.27656)"
     x="579.71484"
     xlink:href="#DejaVuSans-32"
     id="use237"
     y="0"
     width="100%"
     height="100%" />
  <use
     transform="matrix(0.1,0,0,-0.1,124.85469,280.27656)"
     x="611.50195"
     xlink:href="#DejaVuSans-82"
     id="use239"
     y="0"
     width="100%"
     height="100%" />
  <use
     transform="matrix(0.1,0,0,-0.1,124.85469,280.27656)"
     x="680.95312"
     xlink:href="#DejaVuSans-97"
     id="use241"
     y="0"
     width="100%"
     height="100%" />
  <use
     transform="matrix(0.1,0,0,-0.1,124.85469,280.27656)"
     x="742.23242"
     xlink:href="#DejaVuSans-116"
     id="use243"
     y="0"
     width="100%"
     height="100%" />
  <use
     transform="matrix(0.1,0,0,-0.1,124.85469,280.27656)"
     x="781.44141"
     xlink:href="#DejaVuSans-101"
     id="use245"
     y="0"
     width="100%"
     height="100%" />
  <use
     transform="matrix(0.1,0,0,-0.1,124.85469,280.27656)"
     x="842.96484"
     xlink:href="#DejaVuSans-32"
     id="use247"
     y="0"
     width="100%"
     height="100%" />
  <use
     transform="matrix(0.1,0,0,-0.1,124.85469,280.27656)"
     x="874.75195"
     xlink:href="#DejaVuSans-40"
     id="use249"
     y="0"
     width="100%"
     height="100%" />
  <use
     transform="matrix(0.1,0,0,-0.1,124.85469,280.27656)"
     x="913.76562"
     xlink:href="#DejaVuSans-112"
     id="use251"
     y="0"
     width="100%"
     height="100%" />
  <use
     transform="matrix(0.1,0,0,-0.1,124.85469,280.27656)"
     x="977.24219"
     xlink:href="#DejaVuSans-101"
     id="use253"
     y="0"
     width="100%"
     height="100%" />
  <use
     transform="matrix(0.1,0,0,-0.1,124.85469,280.27656)"
     x="1038.7656"
     xlink:href="#DejaVuSans-114"
     id="use255"
     y="0"
     width="100%"
     height="100%" />
  <use
     transform="matrix(0.1,0,0,-0.1,124.85469,280.27656)"
     x="1079.8789"
     xlink:href="#DejaVuSans-32"
     id="use257"
     y="0"
     width="100%"
     height="100%" />
  <use
     transform="matrix(0.1,0,0,-0.1,124.85469,280.27656)"
     x="1111.666"
     xlink:href="#DejaVuSans-49"
     id="use259"
     y="0"
     width="100%"
     height="100%" />
  <use
     transform="matrix(0.1,0,0,-0.1,124.85469,280.27656)"
     x="1175.2891"
     xlink:href="#DejaVuSans-44"
     id="use261"
     y="0"
     width="100%"
     height="100%" />
  <use
     transform="matrix(0.1,0,0,-0.1,124.85469,280.27656)"
     x="1207.0762"
     xlink:href="#DejaVuSans-48"
     id="use263"
     y="0"
     width="100%"
     height="100%" />
  <use
     transform="matrix(0.1,0,0,-0.1,124.85469,280.27656)"
     x="1270.6992"
     xlink:href="#DejaVuSans-48"
     id="use265"
     y="0"
     width="100%"
     height="100%" />
  <use
     transform="matrix(0.1,0,0,-0.1,124.85469,280.27656)"
     x="1334.3223"
     xlink:href="#DejaVuSans-48"
     id="use267"
     y="0"
     width="100%"
     height="100%" />
  <use
     transform="matrix(0.1,0,0,-0.1,124.85469,280.27656)"
     x="1397.9453"
     xlink:href="#DejaVuSans-32"
     id="use269"
     y="0"
     width="100%"
     height="100%" />
  <use
     transform="matrix(0.1,0,0,-0.1,124.85469,280.27656)"
     x="1429.7324"
     xlink:href="#DejaVuSans-114"
     id="use271"
     y="0"
     width="100%"
     height="100%" />
  <use
     transform="matrix(0.1,0,0,-0.1,124.85469,280.27656)"
     x="1470.8145"
     xlink:href="#DejaVuSans-101"
     id="use273"
     y="0"
     width="100%"
     height="100%" />
  <use
     transform="matrix(0.1,0,0,-0.1,124.85469,280.27656)"
     x="1532.3379"
     xlink:href="#DejaVuSans-115"
     id="use275"
     y="0"
     width="100%"
     height="100%" />
  <use
     transform="matrix(0.1,0,0,-0.1,124.85469,280.27656)"
     x="1584.4375"
     xlink:href="#DejaVuSans-105"
     id="use277"
     y="0"
     width="100%"
     height="100%" />
  <use
     transform="matrix(0.1,0,0,-0.1,124.85469,280.27656)"
     x="1612.2207"
     xlink:href="#DejaVuSans-100"
     id="use279"
     y="0"
     width="100%"
     height="100%" />
  <use
     transform="matrix(0.1,0,0,-0.1,124.85469,280.27656)"
     x="1675.6973"
     xlink:href="#DejaVuSans-101"
     id="use281"
     y="0"
     width="100%"
     height="100%" />
  <use
     transform="matrix(0.1,0,0,-0.1,124.85469,280.27656)"
     x="1737.2207"
     xlink:href="#DejaVuSans-110"
     id="use283"
     y="0"
     width="100%"
     height="100%" />
  <use
     transform="matrix(0.1,0,0,-0.1,124.85469,280.27656)"
     x="1800.5996"
     xlink:href="#DejaVuSans-116"
     id="use285"
     y="0"
     width="100%"
     height="100%" />
  <use
     transform="matrix(0.1,0,0,-0.1,124.85469,280.27656)"
     x="1839.8086"
     xlink:href="#DejaVuSans-115"
     id="use287"
     y="0"
     width="100%"
     height="100%" />
  <use
     transform="matrix(0.1,0,0,-0.1,124.85469,280.27656)"
     x="1891.9082"
     xlink:href="#DejaVuSans-41"
     id="use289"
     y="0"
     width="100%"
     height="100%" />
  <g
     id="g300">
    <use
       style="stroke:#000000;stroke-width:0.8"
       x="54"
       xlink:href="#mca9929ccda"
       y="236.69406"
       id="use298"
       width="100%"
       height="100%" />
  </g>
  <g
     transform="matrix(0.1,0,0,-0.1,27.9125,240.49327)"
     id="g312">
    <use
       xlink:href="#DejaVuSans-49"
       id="use306"
       x="0"
       y="0"
       width="100%"
       height="100%" />
    <use
       x="63.623047"
       xlink:href="#DejaVuSans-53"
       id="use308"
       y="0"
       width="100%"
       height="100%" />
    <use
       x="127.24609"
       xlink:href="#DejaVuSans-48"
       id="use310"
       y="0"
       width="100%"
       height="100%" />
  </g>
  <g
     id="g318">
    <use
       style="stroke:#000000;stroke-width:0.8"
       x="54"
       xlink:href="#mca9929ccda"
       y="208.78093"
       id="use316"
       width="100%"
       height="100%" />
  </g>
  <g
     transform="matrix(0.1,0,0,-0.1,27.9125,212.58015)"
     id="g330">
    <use
       xlink:href="#DejaVuSans-49"
       id="use324"
       x="0"
       y="0"
       width="100%"
       height="100%" />
    <use
       x="63.623047"
       xlink:href="#DejaVuSans-55"
       id="use326"
       y="0"
       width="100%"
       height="100%" />
    <use
       x="127.24609"
       xlink:href="#DejaVuSans-53"
       id="use328"
       y="0"
       width="100%"
       height="100%" />
  </g>
  <g
     id="g336">
    <use
       style="stroke:#000000;stroke-width:0.8"
       x="54"
       xlink:href="#mca9929ccda"
       y="180.86781"
       id="use334"
       width="100%"
       height="100%" />
  </g>
  <g
     transform="matrix(0.1,0,0,-0.1,27.9125,184.66703)"
     id="g345">
    <use
       xlink:href="#DejaVuSans-50"
       id="use339"
       x="0"
       y="0"
       width="100%"
       height="100%" />
    <use
       x="63.623047"
       xlink:href="#DejaVuSans-48"
       id="use341"
       y="0"
       width="100%"
       height="100%" />
    <use
       x="127.24609"
       xlink:href="#DejaVuSans-48"
       id="use343"
       y="0"
       width="100%"
       height="100%" />
  </g>
  <g
     id="g351">
    <use
       style="stroke:#000000;stroke-width:0.8"
       x="54"
       xlink:href="#mca9929ccda"
       y="152.95468"
       id="use349"
       width="100%"
       height="100%" />
  </g>
  <g
     transform="matrix(0.1,0,0,-0.1,27.9125,156.75391)"
     id="g360">
    <use
       xlink:href="#DejaVuSans-50"
       id="use354"
       x="0"
       y="0"
       width="100%"
       height="100%" />
    <use
       x="63.623047"
       xlink:href="#DejaVuSans-50"
       id="use356"
       y="0"
       width="100%"
       height="100%" />
    <use
       x="127.24609"
       xlink:href="#DejaVuSans-53"
       id="use358"
       y="0"
       width="100%"
       height="100%" />
  </g>
  <g
     id="g366">
    <use
       style="stroke:#000000;stroke-width:0.8"
       x="54"
       xlink:href="#mca9929ccda"
       y="125.04156"
       id="use364"
       width="100%"
       height="100%" />
  </g>
  <g
     transform="matrix(0.1,0,0,-0.1,27.9125,128.84078)"
     id="g375">
    <use
       xlink:href="#DejaVuSans-50"
       id="use369"
       x="0"
       y="0"
       width="100%"
       height="100%" />
    <use
       x="63.623047"
       xlink:href="#DejaVuSans-53"
       id="use371"
       y="0"
       width="100%"
       height="100%" />
    <use
       x="127.24609"
       xlink:href="#DejaVuSans-48"
       id="use373"
       y="0"
       width="100%"
       height="100%" />
  </g>
  <g
     id="g381">
    <use
       style="stroke:#000000;stroke-width:0.8"
       x="54"
       xlink:href="#mca9929ccda"
       y="97.128441"
       id="use379"
       width="100%"
       height="100%" />
  </g>
  <g
     transform="matrix(0.1,0,0,-0.1,27.9125,100.92766)"
     id="g390">
    <use
       xlink:href="#DejaVuSans-50"
       id="use384"
       x="0"
       y="0"
       width="100%"
       height="100%" />
    <use
       x="63.623047"
       xlink:href="#DejaVuSans-55"
       id="use386"
       y="0"
       width="100%"
       height="100%" />
    <use
       x="127.24609"
       xlink:href="#DejaVuSans-53"
       id="use388"
       y="0"
       width="100%"
       height="100%" />
  </g>
  <g
     id="g396">
    <use
       style="stroke:#000000;stroke-width:0.8"
       x="54"
       xlink:href="#mca9929ccda"
       y="69.215324"
       id="use394"
       width="100%"
       height="100%" />
  </g>
  <g
     transform="matrix(0.1,0,0,-0.1,27.9125,73.01454)"
     id="g408">
    <use
       xlink:href="#DejaVuSans-51"
       id="use402"
       x="0"
       y="0"
       width="100%"
       height="100%" />
    <use
       x="63.623047"
       xlink:href="#DejaVuSans-48"
       id="use404"
       y="0"
       width="100%"
       height="100%" />
    <use
       x="127.24609"
       xlink:href="#DejaVuSans-48"
       id="use406"
       y="0"
       width="100%"
       height="100%" />
  </g>
  <g
     id="g414">
    <use
       style="stroke:#000000;stroke-width:0.8"
       x="54"
       xlink:href="#mca9929ccda"
       y="41.3022"
       id="use412"
       width="100%"
       height="100%" />
  </g>
  <g
     transform="matrix(0.1,0,0,-0.1,27.9125,45.101418)"
     id="g423">
    <use
       xlink:href="#DejaVuSans-51"
       id="use417"
       x="0"
       y="0"
       width="100%"
       height="100%" />
    <use
       x="63.623047"
       xlink:href="#DejaVuSans-50"
       id="use419"
       y="0"
       width="100%"
       height="100%" />
    <use
       x="127.24609"
       xlink:href="#DejaVuSans-53"
       id="use421"
       y="0"
       width="100%"
       height="100%" />
  </g>
  <use
     transform="matrix(0,-0.1,-0.1,0,21.832812,204.41437)"
     xlink:href="#DejaVuSans-80"
     id="use434"
     x="0"
     y="0"
     width="100%"
     height="100%" />
  <use
     transform="matrix(0,-0.1,-0.1,0,21.832812,204.41437)"
     x="60.255859"
     xlink:href="#DejaVuSans-111"
     id="use436"
     y="0"
     width="100%"
     height="100%" />
  <use
     transform="matrix(0,-0.1,-0.1,0,21.832812,204.41437)"
     x="121.4375"
     xlink:href="#DejaVuSans-108"
     id="use438"
     y="0"
     width="100%"
     height="100%" />
  <use
     transform="matrix(0,-0.1,-0.1,0,21.832812,204.41437)"
     x="149.2207"
     xlink:href="#DejaVuSans-105"
     id="use440"
     y="0"
     width="100%"
     height="100%" />
  <use
     transform="matrix(0,-0.1,-0.1,0,21.832812,204.41437)"
     x="177.00391"
     xlink:href="#DejaVuSans-99"
     id="use442"
     y="0"
     width="100%"
     height="100%" />
  <use
     transform="matrix(0,-0.1,-0.1,0,21.832812,204.41437)"
     x="231.98438"
     xlink:href="#DejaVuSans-101"
     id="use444"
     y="0"
     width="100%"
     height="100%" />
  <use
     transform="matrix(0,-0.1,-0.1,0,21.832812,204.41437)"
     x="293.50781"
     xlink:href="#DejaVuSans-32"
     id="use446"
     y="0"
     width="100%"
     height="100%" />
  <use
     transform="matrix(0,-0.1,-0.1,0,21.832812,204.41437)"
     x="325.29492"
     xlink:href="#DejaVuSans-66"
     id="use448"
     y="0"
     width="100%"
     height="100%" />
  <use
     transform="matrix(0,-0.1,-0.1,0,21.832812,204.41437)"
     x="393.89844"
     xlink:href="#DejaVuSans-117"
     id="use450"
     y="0"
     width="100%"
     height="100%" />
  <use
     transform="matrix(0,-0.1,-0.1,0,21.832812,204.41437)"
     x="457.27734"
     xlink:href="#DejaVuSans-100"
     id="use452"
     y="0"
     width="100%"
     height="100%" />
  <use
     transform="matrix(0,-0.1,-0.1,0,21.832812,204.41437)"
     x="520.75391"
     xlink:href="#DejaVuSans-103"
     id="use454"
     y="0"
     width="100%"
     height="100%" />
  <use
     transform="matrix(0,-0.1,-0.1,0,21.832812,204.41437)"
     x="584.23047"
     xlink:href="#DejaVuSans-101"
     id="use456"
     y="0"
     width="100%"
     height="100%" />
  <use
     transform="matrix(0,-0.1,-0.1,0,21.832812,204.41437)"
     x="645.75391"
     xlink:href="#DejaVuSans-116"
     id="use458"
     y="0"
     width="100%"
     height="100%" />
  <use
     transform="matrix(0,-0.1,-0.1,0,21.832812,204.41437)"
     x="684.96289"
     xlink:href="#DejaVuSans-32"
     id="use460"
     y="0"
     width="100%"
     height="100%" />
  <use
     transform="matrix(0,-0.1,-0.1,0,21.832812,204.41437)"
     x="716.75"
     xlink:href="#DejaVuSans-112"
     id="use462"
     y="0"
     width="100%"
     height="100%" />
  <use
     transform="matrix(0,-0.1,-0.1,0,21.832812,204.41437)"
     x="780.22656"
     xlink:href="#DejaVuSans-101"
     id="use464"
     y="0"
     width="100%"
     height="100%" />
  <use
     transform="matrix(0,-0.1,-0.1,0,21.832812,204.41437)"
     x="841.75"
     xlink:href="#DejaVuSans-114"
     id="use466"
     y="0"
     width="100%"
     height="100%" />
  <use
     transform="matrix(0,-0.1,-0.1,0,21.832812,204.41437)"
     x="882.86328"
     xlink:href="#DejaVuSans-32"
     id="use468"
     y="0"
     width="100%"
     height="100%" />
  <use
     transform="matrix(0,-0.1,-0.1,0,21.832812,204.41437)"
     x="914.65039"
     xlink:href="#DejaVuSans-99"
     id="use470"
     y="0"
     width="100%"
     height="100%" />
  <use
     transform="matrix(0,-0.1,-0.1,0,21.832812,204.41437)"
     x="969.63086"
     xlink:href="#DejaVuSans-97"
     id="use472"
     y="0"
     width="100%"
     height="100%" />
  <use
     transform="matrix(0,-0.1,-0.1,0,21.832812,204.41437)"
     x="1030.9102"
     xlink:href="#DejaVuSans-112"
     id="use474"
     y="0"
     width="100%"
     height="100%" />
  <use
     transform="matrix(0,-0.1,-0.1,0,21.832812,204.41437)"
     x="1094.3867"
     xlink:href="#DejaVuSans-105"
     id="use476"
     y="0"
     width="100%"
     height="100%" />
  <use
     transform="matrix(0,-0.1,-0.1,0,21.832812,204.41437)"
     x="1122.1699"
     xlink:href="#DejaVuSans-116"
     id="use478"
     y="0"
     width="100%"
     height="100%" />
  <use
     transform="matrix(0,-0.1,-0.1,0,21.832812,204.41437)"
     x="1161.3789"
     xlink:href="#DejaVuSans-97"
     id="use480"
     y="0"
     width="100%"
     height="100%" />
  <path
     clip-path="url(#p8e68baeadd)"
     d="m 69.218182,176.31407 3.07438,-0.31362 3.07438,-0.31361 3.07438,-0.31362 3.07438,-0.31361 3.074381,-0.31362 3.07438,-0.31361 3.07438,-0.31362 3.07438,-0.31361 3.07438,-0.31362 3.07438,-0.31361 3.074377,-0.31362 3.07438,-0.31361 3.07438,-0.31362 3.07438,-0.31361 3.07438,-0.31362 3.07438,-0.31361 3.07439,-0.31362 3.07437,-0.31362 3.07439,-0.31361 3.07437,-0.31362 3.07438,-0.31361 3.07438,-0.31362 3.07439,-0.31361 3.07438,-0.31362 3.07438,-0.31361 3.07438,-0.31362 3.07438,-0.31361 3.07438,-0.31362 3.07438,-0.31361 3.07438,-0.31362 3.07438,-0.31361 3.07438,-0.31362 3.07438,-0.31361 3.07438,-0.31362 3.07438,-0.31361 3.07438,-0.31362 3.07438,-0.31361 3.07438,-0.31362 3.07438,-0.31361 3.07438,-0.31362 3.07438,-0.31362 3.07438,-0.31361 3.07438,-0.31361 3.07438,-0.31362 3.07438,-0.31362 3.07438,-0.31361 3.07438,-0.31362 3.07438,-0.31361 3.07438,-0.31362 3.07438,-0.31361 3.07438,-0.31362 3.07438,-0.31361 3.07438,-0.31362 3.07438,-0.31361 3.07438,-0.31362 3.07438,-0.31361 3.07438,-0.31362 3.07438,-0.31361 3.07438,-0.31362 3.07438,-0.31361 3.07438,-0.31362 3.07438,-0.31362 3.07438,-0.31361 3.07438,-0.31362 3.07438,-0.31361 3.07438,-0.31362 3.07438,-0.31361 3.07438,-0.31362 3.07438,-0.31361 3.07438,-0.31362 3.07438,-0.31361 3.07438,-0.31362 3.07438,-0.31361 3.07438,-0.31362 3.07438,-0.31361 3.07438,-0.31362 3.07438,-0.31361 3.07438,-0.31362 3.07439,-0.31361 3.07437,-0.31362 3.07438,-0.31361 3.07439,-0.31362 3.07438,-0.31361 3.07438,-0.31362 3.07438,-0.31362 3.07438,-0.31361 3.07438,-0.31361 3.07438,-0.31362 3.07438,-0.31362 3.07438,-0.31361 3.07438,-0.31362 3.07438,-0.31361 3.07438,-0.31362 3.07438,-0.31361 3.07438,-0.31362 3.07438,-0.31361 3.07438,-0.31362 3.07438,-0.31361 3.07438,-0.31362"
     style="fill:none;stroke:#1f77b4;stroke-width:2.25;stroke-linecap:square"
     id="path486" />
  <path
     d="M 54,252 V 34.56"
     style="fill:none;stroke:#000000;stroke-width:0.8;stroke-linecap:square;stroke-linejoin:miter"
     id="path489" />
  <path
     d="M 388.8,252 V 34.56"
     style="fill:none;stroke:#000000;stroke-width:0.8;stroke-linecap:square;stroke-linejoin:miter"
     id="path492" />
  <path
     d="M 54,252 H 388.8"
     style="fill:none;stroke:#000000;stroke-width:0.8;stroke-linecap:square;stroke-linejoin:miter"
     id="path495" />
  <path
     d="M 54,34.56 H 388.8"
     style="fill:none;stroke:#000000;stroke-width:0.8;stroke-linecap:square;stroke-linejoin:miter"
     id="path498" />
  <use
     transform="matrix(0.12,0,0,-0.12,89.859375,28.56)"
     height="100%"
     width="100%"
     y="0"
     x="0"
     id="use505"
     xlink:href="#DejaVuSans-67" />
  <use
     transform="matrix(0.12,0,0,-0.12,89.859375,28.56)"
     height="100%"
     width="100%"
     y="0"
     id="use507"
     xlink:href="#DejaVuSans-114"
     x="69.824219" />
  <use
     transform="matrix(0.12,0,0,-0.12,89.859375,28.56)"
     height="100%"
     width="100%"
     y="0"
     id="use509"
     xlink:href="#DejaVuSans-105"
     x="110.9375" />
  <use
     transform="matrix(0.12,0,0,-0.12,89.859375,28.56)"
     height="100%"
     width="100%"
     y="0"
     id="use511"
     xlink:href="#DejaVuSans-109"
     x="138.7207" />
  <use
     transform="matrix(0.12,0,0,-0.12,89.859375,28.56)"
     height="100%"
     width="100%"
     y="0"
     id="use513"
     xlink:href="#DejaVuSans-101"
     x="236.13281" />
  <use
     transform="matrix(0.12,0,0,-0.12,89.859375,28.56)"
     height="100%"
     width="100%"
     y="0"
     id="use515"
     xlink:href="#DejaVuSans-32"
     x="297.65625" />
  <use
     transform="matrix(0.12,0,0,-0.12,89.859375,28.56)"
     height="100%"
     width="100%"
     y="0"
     id="use517"
     xlink:href="#DejaVuSans-97"
     x="329.44336" />
  <use
     transform="matrix(0.12,0,0,-0.12,89.859375,28.56)"
     height="100%"
     width="100%"
     y="0"
     id="use519"
     xlink:href="#DejaVuSans-110"
     x="390.72266" />
  <use
     transform="matrix(0.12,0,0,-0.12,89.859375,28.56)"
     height="100%"
     width="100%"
     y="0"
     id="use521"
     xlink:href="#DejaVuSans-100"
     x="454.10156" />
  <use
     transform="matrix(0.12,0,0,-0.12,89.859375,28.56)"
     height="100%"
     width="100%"
     y="0"
     id="use523"
     xlink:href="#DejaVuSans-32"
     x="517.57812" />
  <use
     transform="matrix(0.12,0,0,-0.12,89.859375,28.56)"
     height="100%"
     width="100%"
     y="0"
     id="use525"
     xlink:href="#DejaVuSans-80"
     x="549.36523" />
  <use
     transform="matrix(0.12,0,0,-0.12,89.859375,28.56)"
     height="100%"
     width="100%"
     y="0"
     id="use527"
     xlink:href="#DejaVuSans-111"
     x="609.62109" />
  <use
     transform="matrix(0.12,0,0,-0.12,89.859375,28.56)"
     height="100%"
     width="100%"
     y="0"
     id="use529"
     xlink:href="#DejaVuSans-108"
     x="670.80273" />
  <use
     transform="matrix(0.12,0,0,-0.12,89.859375,28.56)"
     height="100%"
     width="100%"
     y="0"
     id="use531"
     xlink:href="#DejaVuSans-105"
     x="698.58594" />
  <use
     transform="matrix(0.12,0,0,-0.12,89.859375,28.56)"
     height="100%"
     width="100%"
     y="0"
     id="use533"
     xlink:href="#DejaVuSans-99"
     x="726.36914" />
  <use
     transform="matrix(0.12,0,0,-0.12,89.859375,28.56)"
     height="100%"
     width="100%"
     y="0"
     id="use535"
     xlink:href="#DejaVuSans-101"
     x="781.34961" />
  <use
     transform="matrix(0.12,0,0,-0.12,89.859375,28.56)"
     height="100%"
     width="100%"
     y="0"
     id="use537"
     xlink:href="#DejaVuSans-32"
     x="842.87305" />
  <use
     transform="matrix(0.12,0,0,-0.12,89.859375,28.56)"
     height="100%"
     width="100%"
     y="0"
     id="use539"
     xlink:href="#DejaVuSans-70"
     x="874.66016" />
  <use
     transform="matrix(0.12,0,0,-0.12,89.859375,28.56)"
     height="100%"
     width="100%"
     y="0"
     id="use541"
     xlink:href="#DejaVuSans-117"
     x="932.10156" />
  <use
     transform="matrix(0.12,0,0,-0.12,89.859375,28.56)"
     height="100%"
     width="100%"
     y="0"
     id="use543"
     xlink:href="#DejaVuSans-110"
     x="995.48047" />
  <use
     transform="matrix(0.12,0,0,-0.12,89.859375,28.56)"
     height="100%"
     width="100%"
     y="0"
     id="use545"
     xlink:href="#DejaVuSans-100"
     x="1058.8594" />
  <use
     transform="matrix(0.12,0,0,-0.12,89.859375,28.56)"
     height="100%"
     width="100%"
     y="0"
     id="use547"
     xlink:href="#DejaVuSans-105"
     x="1122.3359" />
  <use
     transform="matrix(0.12,0,0,-0.12,89.859375,28.56)"
     height="100%"
     width="100%"
     y="0"
     id="use549"
     xlink:href="#DejaVuSans-110"
     x="1150.1191" />
  <use
     transform="matrix(0.12,0,0,-0.12,89.859375,28.56)"
     height="100%"
     width="100%"
     y="0"
     id="use551"
     xlink:href="#DejaVuSans-103"
     x="1213.498" />
  <use
     transform="matrix(0.12,0,0,-0.12,89.859375,28.56)"
     height="100%"
     width="100%"
     y="0"
     id="use553"
     xlink:href="#DejaVuSans-32"
     x="1276.9746" />
  <use
     transform="matrix(0.12,0,0,-0.12,89.859375,28.56)"
     height="100%"
     width="100%"
     y="0"
     id="use555"
     xlink:href="#DejaVuSans-105"
     x="1308.7617" />
  <use
     transform="matrix(0.12,0,0,-0.12,89.859375,28.56)"
     height="100%"
     width="100%"
     y="0"
     id="use557"
     xlink:href="#DejaVuSans-110"
     x="1336.5449" />
  <use
     transform="matrix(0.12,0,0,-0.12,89.859375,28.56)"
     height="100%"
     width="100%"
     y="0"
     id="use559"
     xlink:href="#DejaVuSans-32"
     x="1399.9238" />
  <use
     transform="matrix(0.12,0,0,-0.12,89.859375,28.56)"
     height="100%"
     width="100%"
     y="0"
     id="use561"
     xlink:href="#DejaVuSans-71"
     x="1431.7109" />
  <use
     transform="matrix(0.12,0,0,-0.12,89.859375,28.56)"
     height="100%"
     width="100%"
     y="0"
     id="use563"
     xlink:href="#DejaVuSans-114"
     x="1509.2012" />
  <use
     transform="matrix(0.12,0,0,-0.12,89.859375,28.56)"
     height="100%"
     width="100%"
     y="0"
     id="use565"
     xlink:href="#DejaVuSans-101"
     x="1550.2832" />
  <use
     transform="matrix(0.12,0,0,-0.12,89.859375,28.56)"
     height="100%"
     width="100%"
     y="0"
     id="use567"
     xlink:href="#DejaVuSans-97"
     x="1611.8066" />
  <use
     transform="matrix(0.12,0,0,-0.12,89.859375,28.56)"
     height="100%"
     width="100%"
     y="0"
     id="use569"
     xlink:href="#DejaVuSans-116"
     x="1673.0859" />
  <use
     transform="matrix(0.12,0,0,-0.12,89.859375,28.56)"
     height="100%"
     width="100%"
     y="0"
     id="use571"
     xlink:href="#DejaVuSans-101"
     x="1712.2949" />
  <use
     transform="matrix(0.12,0,0,-0.12,89.859375,28.56)"
     height="100%"
     width="100%"
     y="0"
     id="use573"
     xlink:href="#DejaVuSans-114"
     x="1773.8184" />
  <use
     transform="matrix(0.12,0,0,-0.12,89.859375,28.56)"
     height="100%"
     width="100%"
     y="0"
     id="use575"
     xlink:href="#DejaVuSans-32"
     x="1814.9316" />
  <use
     transform="matrix(0.12,0,0,-0.12,89.859375,28.56)"
     height="100%"
     width="100%"
     y="0"
     id="use577"
     xlink:href="#DejaVuSans-66"
     x="1846.7188" />
  <use
     transform="matrix(0.12,0,0,-0.12,89.859375,28.56)"
     height="100%"
     width="100%"
     y="0"
     id="use579"
     xlink:href="#DejaVuSans-111"
     x="1915.3223" />
  <use
     transform="matrix(0.12,0,0,-0.12,89.859375,28.56)"
     height="100%"
     width="100%"
     y="0"
     id="use581"
     xlink:href="#DejaVuSans-115"
     x="1976.5039" />
  <use
     transform="matrix(0.12,0,0,-0.12,89.859375,28.56)"
     height="100%"
     width="100%"
     y="0"
     id="use583"
     xlink:href="#DejaVuSans-116"
     x="2028.6035" />
  <use
     transform="matrix(0.12,0,0,-0.12,89.859375,28.56)"
     height="100%"
     width="100%"
     y="0"
     id="use585"
     xlink:href="#DejaVuSans-111"
     x="2067.8125" />
  <use
     transform="matrix(0.12,0,0,-0.12,89.859375,28.56)"
     height="100%"
     width="100%"
     y="0"
     id="use587"
     xlink:href="#DejaVuSans-110"
     x="2128.9941" />
  <g
     transform="translate(-16.174135,-0.05284302)"
     id="g2191">
    <path
       d="M 328.35094,57.238125 H 398.54 q 2,0 2,-2 V 41.56 q 0,-2 -2,-2 h -70.18906 q -2,0 -2,2 v 13.678125 q 0,2 2,2 z"
       style="opacity:0.8;fill:#ffffff;stroke:#cccccc;stroke-linejoin:miter"
       id="path592" />
    <use
       height="100%"
       width="100%"
       id="use595"
       y="48.533436"
       xlink:href="#m19b3826b10"
       x="340.35095"
       style="stroke:#000000" />
    <use
       height="100%"
       width="100%"
       y="0"
       x="0"
       id="use604"
       xlink:href="#DejaVuSans-78"
       transform="matrix(0.1,0,0,-0.1,358.35094,51.158437)" />
    <use
       height="100%"
       width="100%"
       y="0"
       id="use606"
       xlink:href="#DejaVuSans-101"
       x="74.804688"
       transform="matrix(0.1,0,0,-0.1,358.35094,51.158437)" />
    <use
       height="100%"
       width="100%"
       y="0"
       id="use608"
       xlink:href="#DejaVuSans-119"
       x="136.32812"
       transform="matrix(0.1,0,0,-0.1,358.35094,51.158437)" />
    <use
       height="100%"
       width="100%"
       y="0"
       id="use610"
       xlink:href="#DejaVuSans-116"
       x="218.11523"
       transform="matrix(0.1,0,0,-0.1,358.35094,51.158437)" />
    <use
       height="100%"
       width="100%"
       y="0"
       id="use612"
       xlink:href="#DejaVuSans-111"
       x="257.32422"
       transform="matrix(0.1,0,0,-0.1,358.35094,51.158437)" />
    <use
       height="100%"
       width="100%"
       y="0"
       id="use614"
       xlink:href="#DejaVuSans-110"
       x="318.50586"
       transform="matrix(0.1,0,0,-0.1,358.35094,51.158437)" />
  </g>
  <defs
     id="defs625">
    <clipPath
       id="p8e68baeadd">
      <rect
         id="rect622"
         y="34.56"
         x="54"
         width="334.8"
         height="217.44" />
    </clipPath>
  </defs>
</svg>
