<?xml version="1.0" encoding="UTF-8" standalone="no"?>
<svg
   xmlns:dc="http://purl.org/dc/elements/1.1/"
   xmlns:cc="http://creativecommons.org/ns#"
   xmlns:rdf="http://www.w3.org/1999/02/22-rdf-syntax-ns#"
   xmlns:svg="http://www.w3.org/2000/svg"
   xmlns="http://www.w3.org/2000/svg"
   xmlns:xlink="http://www.w3.org/1999/xlink"
   xmlns:sodipodi="http://sodipodi.sourceforge.net/DTD/sodipodi-0.dtd"
   xmlns:inkscape="http://www.inkscape.org/namespaces/inkscape"
   inkscape:export-ydpi="96"
   inkscape:export-xdpi="96"
   inkscape:export-filename="/home/benmk/documents/code/personal/defundNPD/plots/top_50_bar19.png"
   inkscape:version="1.0 (6e3e5246a0, 2020-05-07)"
   sodipodi:docname="top_50_bar19.svg"
   id="svg510"
   width="576pt"
   viewBox="0 0 576 470.66876"
   version="1.1"
   height="470.66876pt">
  <metadata
     id="metadata514">
    <rdf:RDF>
      <cc:Work
         rdf:about="">
        <dc:format>image/svg+xml</dc:format>
        <dc:type
           rdf:resource="http://purl.org/dc/dcmitype/StillImage" />
      </cc:Work>
    </rdf:RDF>
  </metadata>
  <sodipodi:namedview
     inkscape:current-layer="svg510"
     inkscape:window-maximized="1"
     inkscape:window-y="0"
     inkscape:window-x="0"
     inkscape:cy="342.31891"
     inkscape:cx="384"
     inkscape:zoom="1.532197"
     showgrid="false"
     id="namedview512"
     inkscape:window-height="1136"
     inkscape:window-width="1920"
     inkscape:pageshadow="2"
     inkscape:pageopacity="0"
     guidetolerance="10"
     gridtolerance="10"
     objecttolerance="10"
     borderopacity="1"
     bordercolor="#666666"
     pagecolor="#ffffff" />
  <defs
     id="defs4">
    <style
       id="style2"
       type="text/css">
*{stroke-linecap:butt;stroke-linejoin:round;}
  </style>
  </defs>
  <g
     id="figure_1">
    <g
       id="patch_1">
      <path
         id="path6"
         style="fill:#ffffff"
         d="M 0,396 H 576 V 0 H 0 Z" />
    </g>
    <g
       id="axes_1">
      <g
         id="patch_2">
        <path
           id="path9"
           style="fill:#eaeaf2"
           d="M 72,346.5 H 518.4 V 47.52 H 72 Z" />
      </g>
      <g
         id="matplotlib.axis_1">
        <g
           id="xtick_1">
          <g
             id="line2d_1">
            <path
               id="path12"
               style="fill:none;stroke:#ffffff;stroke-linecap:round"
               d="M 116.64,346.5 V 47.52"
               clip-path="url(#p57a72a5f67)" />
          </g>
          <g
             id="line2d_2" />
          <g
             id="text_1">
            <!-- BUILDING DEPARTMENT -->
            <defs
               id="defs30">
              <path
                 id="LiberationSans-66"
                 d="m 61.421875,19.390625 q 0,-5.234375 -2.046875,-8.921875 -2.046875,-3.6875 -5.515625,-6 -3.46875,-2.3125 -8.0625,-3.390625 Q 41.21875,0 36.140625,0 h -27.9375 v 68.796875 h 25 q 5.71875,0 10.203125,-0.953125 4.5,-0.953125 7.625,-3 3.125,-2.046875 4.75,-5.203125 1.640625,-3.140625 1.640625,-7.546875 0,-2.875 -0.8125,-5.421875 -0.796875,-2.53125 -2.4375,-4.609375 -1.625,-2.078125 -4.09375,-3.5625 -2.46875,-1.484375 -5.734375,-2.21875 4.140625,-0.484375 7.34375,-1.90625 3.203125,-1.421875 5.34375,-3.625 2.15625,-2.1875 3.265625,-5.09375 1.125,-2.90625 1.125,-6.265625 z m -13.375,31.59375 q 0,5.5625 -3.8125,7.953125 -3.796875,2.390625 -11.03125,2.390625 H 17.53125 v -21.78125 h 15.671875 q 4.109375,0 6.9375,0.796875 2.828125,0.8125 4.578125,2.296875 1.765625,1.5 2.546875,3.59375 0.78125,2.109375 0.78125,4.75 z M 52,20.125 q 0,3.265625 -1.203125,5.5625 -1.1875,2.296875 -3.4375,3.75 -2.234375,1.46875 -5.390625,2.15625 -3.15625,0.6875 -7.0625,0.6875 h -17.375 V 7.46875 h 18.109375 q 3.5625,0 6.5625,0.578125 3.015625,0.59375 5.1875,2.0625 2.171875,1.46875 3.390625,3.90625 Q 52,16.453125 52,20.125 Z" />
              <path
                 id="LiberationSans-85"
                 d="m 35.6875,-0.984375 q -5.65625,0 -10.734375,1.515625 Q 19.875,2.046875 16.03125,5.25 12.203125,8.453125 9.953125,13.359375 7.71875,18.265625 7.71875,25 v 43.796875 h 9.328125 V 25.78125 q 0,-5.21875 1.390625,-8.859375 1.390625,-3.640625 3.875,-5.9375 2.5,-2.296875 5.890625,-3.34375 3.390625,-1.046875 7.4375,-1.046875 4.015625,0 7.578125,1.0625 3.5625,1.078125 6.25,3.421875 2.6875,2.34375 4.21875,6.125 1.53125,3.796875 1.53125,9.21875 v 42.375 H 64.5 V 25.875 Q 64.5,19 62.234375,13.9375 59.96875,8.890625 56.0625,5.5625 52.15625,2.25 46.90625,0.625 41.65625,-0.984375 35.6875,-0.984375 Z" />
              <path
                 id="LiberationSans-73"
                 d="M 9.234375,0 V 68.796875 H 18.5625 V 0 Z" />
              <path
                 id="LiberationSans-76"
                 d="M 8.203125,0 V 68.796875 H 17.53125 V 7.625 H 52.296875 V 0 Z" />
              <path
                 id="LiberationSans-68"
                 d="m 67.4375,35.109375 q 0,-8.59375 -2.59375,-15.171875 Q 62.25,13.375 57.75,8.953125 53.265625,4.546875 47.140625,2.265625 41.015625,0 33.9375,0 H 8.203125 v 68.796875 h 22.75 q 7.96875,0 14.671875,-1.984375 6.71875,-1.96875 11.546875,-6.09375 4.84375,-4.125 7.546875,-10.484375 2.71875,-6.34375 2.71875,-15.125 z m -9.375,0 q 0,6.984375 -2.015625,11.9375 -2,4.953125 -5.609375,8.125 -3.609375,3.171875 -8.640625,4.65625 -5.03125,1.5 -11.03125,1.5 H 17.53125 V 7.46875 h 15.328125 q 5.421875,0 10.03125,1.75 4.625,1.765625 7.984375,5.234375 3.375,3.46875 5.28125,8.640625 1.90625,5.171875 1.90625,12.015625 z" />
              <path
                 id="LiberationSans-78"
                 d="m 52.828125,0 -36.8125,58.59375 q 0.09375,-2.390625 0.25,-4.734375 0.09375,-2 0.15625,-4.234375 Q 16.5,47.40625 16.5,45.703125 V 0 H 8.203125 v 68.796875 h 10.84375 L 56.25,9.8125 q -0.140625,2.390625 -0.296875,4.78125 -0.09375,2.0625 -0.1875,4.46875 -0.09375,2.421875 -0.09375,4.625 V 68.796875 H 64.0625 V 0 Z" />
              <path
                 id="LiberationSans-71"
                 d="m 5.03125,34.71875 q 0,8.0625 2.171875,14.546875 2.171875,6.5 6.484375,11.0625 4.328125,4.5625 10.71875,7.03125 6.40625,2.46875 14.859375,2.46875 6.34375,0 11.125,-1.125 4.78125,-1.125 8.296875,-3.234375 3.515625,-2.09375 5.953125,-5.09375 2.453125,-3 4.15625,-6.765625 l -8.890625,-2.625 q -1.265625,2.53125 -3.046875,4.609375 -1.78125,2.078125 -4.328125,3.53125 -2.53125,1.46875 -5.875,2.265625 -3.34375,0.8125 -7.640625,0.8125 -6.25,0 -10.875,-1.953125 Q 23.53125,58.296875 20.5,54.6875 17.484375,51.078125 15.984375,46 14.5,40.921875 14.5,34.71875 q 0,-6.203125 1.609375,-11.359375 1.609375,-5.140625 4.78125,-8.875 Q 24.078125,10.75 28.78125,8.671875 33.5,6.59375 39.703125,6.59375 q 4.046875,0 7.46875,0.671875 3.421875,0.6875 6.171875,1.78125 2.765625,1.109375 4.859375,2.453125 2.09375,1.34375 3.515625,2.703125 v 12.40625 h -20.5625 v 7.8125 H 70.3125 V 10.6875 Q 68.015625,8.34375 64.90625,6.21875 61.8125,4.109375 57.953125,2.484375 q -3.84375,-1.609375 -8.4375,-2.53125 -4.59375,-0.9375 -9.8125,-0.9375 Q 31,-0.984375 24.5,1.671875 18.015625,4.34375 13.6875,9.109375 9.375,13.875 7.203125,20.40625 5.03125,26.953125 5.03125,34.71875 Z" />
              <path
                 d=""
                 id="LiberationSans-32" />
              <path
                 id="LiberationSans-69"
                 d="M 8.203125,0 V 68.796875 H 60.40625 V 61.1875 h -42.875 V 39.109375 h 39.9375 V 31.59375 H 17.53125 V 7.625 h 44.875 V 0 Z" />
              <path
                 id="LiberationSans-80"
                 d="m 61.421875,48.09375 q 0,-4.484375 -1.484375,-8.375 Q 58.453125,35.84375 55.5,32.984375 52.546875,30.125 48.09375,28.46875 43.65625,26.8125 37.75,26.8125 H 17.53125 V 0 H 8.203125 V 68.796875 H 37.15625 q 6.109375,0 10.640625,-1.484375 4.546875,-1.484375 7.578125,-4.203125 3.03125,-2.703125 4.53125,-6.546875 1.515625,-3.828125 1.515625,-8.46875 z M 52.046875,48 q 0,6.546875 -4,9.9375 -4,3.390625 -12.015625,3.390625 h -18.5 V 34.1875 h 18.890625 q 8.0625,0 11.84375,3.5625 3.78125,3.5625 3.78125,10.25 z" />
              <path
                 id="LiberationSans-65"
                 d="M 56.984375,0 49.125,20.125 H 17.78125 L 9.859375,0 h -9.65625 l 28.0625,68.796875 H 38.875 L 66.5,0 Z M 37.5,50.09375 Q 36.71875,52.046875 36,54.046875 35.296875,56.0625 34.765625,57.6875 34.234375,59.328125 33.859375,60.421875 33.5,61.53125 33.453125,61.765625 33.34375,61.53125 33,60.40625 q -0.328125,-1.125 -0.890625,-2.796875 -0.5625,-1.65625 -1.28125,-3.65625 -0.703125,-2 -1.4375,-3.953125 L 20.609375,27.390625 H 46.34375 Z" />
              <path
                 id="LiberationSans-82"
                 d="m 56.84375,0 -17.875,28.5625 H 17.53125 V 0 H 8.203125 v 68.796875 h 32.375 q 5.859375,0 10.375,-1.34375 4.515625,-1.34375 7.59375,-3.890625 3.078125,-2.53125 4.6875,-6.1875 1.609375,-3.65625 1.609375,-8.25 0,-3.28125 -0.953125,-6.453125 -0.953125,-3.171875 -3,-5.8125 -2.046875,-2.625 -5.234375,-4.53125 -3.171875,-1.90625 -7.609375,-2.6875 L 67.578125,0 Z m -1.375,49.03125 q 0,3.125 -1.078125,5.40625 -1.0625,2.296875 -3.125,3.828125 -2.046875,1.546875 -4.984375,2.296875 -2.921875,0.765625 -6.625,0.765625 h -22.125 V 35.9375 h 22.515625 q 4,0 6.921875,1 2.9375,1 4.8125,2.75 1.875,1.765625 2.78125,4.15625 0.90625,2.390625 0.90625,5.1875 z" />
              <path
                 id="LiberationSans-84"
                 d="M 35.15625,61.1875 V 0 H 25.875 V 61.1875 H 2.25 v 7.609375 H 58.796875 V 61.1875 Z" />
              <path
                 id="LiberationSans-77"
                 d="m 66.703125,0 v 45.90625 q 0,2.484375 0.04687,5.0625 0.04687,2.59375 0.140625,4.75 0.109375,2.484375 0.25,4.828125 -0.6875,-2.484375 -1.421875,-4.9375 -0.625,-2.09375 -1.390625,-4.46875 -0.75,-2.359375 -1.484375,-4.265625 L 45.0625,0 H 38.53125 L 20.515625,46.875 q -0.296875,0.734375 -0.625,1.703125 -0.3125,0.984375 -0.6875,2.078125 -0.359375,1.109375 -0.734375,2.25 -0.359375,1.140625 -0.6875,2.265625 -0.84375,2.59375 -1.625,5.375 Q 16.21875,57.8125 16.3125,55.125 16.40625,52.828125 16.453125,50.3125 16.5,47.796875 16.5,45.90625 V 0 H 8.203125 v 68.796875 h 12.25 l 18.3125,-47.703125 q 0.34375,-0.96875 0.828125,-2.515625 0.5,-1.53125 0.9375,-3.15625 0.4375,-1.609375 0.796875,-3.046875 0.375,-1.4375 0.515625,-2.21875 0.15625,0.78125 0.546875,2.25 0.390625,1.46875 0.890625,3.078125 0.515625,1.609375 1,3.125 0.5,1.515625 0.890625,2.484375 l 17.96875,47.703125 H 75.09375 V 0 Z" />
            </defs>
            <g
               id="g70"
               transform="matrix(0,-0.1,-0.1,0,119.22594,471.48906)"
               style="fill:#262626">
              <use
                 height="100%"
                 width="100%"
                 y="0"
                 x="0"
                 id="use32"
                 xlink:href="#LiberationSans-66" />
              <use
                 height="100%"
                 width="100%"
                 y="0"
                 id="use34"
                 xlink:href="#LiberationSans-85"
                 x="66.699219" />
              <use
                 height="100%"
                 width="100%"
                 y="0"
                 id="use36"
                 xlink:href="#LiberationSans-73"
                 x="138.91602" />
              <use
                 height="100%"
                 width="100%"
                 y="0"
                 id="use38"
                 xlink:href="#LiberationSans-76"
                 x="166.69922" />
              <use
                 height="100%"
                 width="100%"
                 y="0"
                 id="use40"
                 xlink:href="#LiberationSans-68"
                 x="222.31445" />
              <use
                 height="100%"
                 width="100%"
                 y="0"
                 id="use42"
                 xlink:href="#LiberationSans-73"
                 x="294.53125" />
              <use
                 height="100%"
                 width="100%"
                 y="0"
                 id="use44"
                 xlink:href="#LiberationSans-78"
                 x="322.31445" />
              <use
                 height="100%"
                 width="100%"
                 y="0"
                 id="use46"
                 xlink:href="#LiberationSans-71"
                 x="394.53125" />
              <use
                 height="100%"
                 width="100%"
                 y="0"
                 id="use48"
                 xlink:href="#LiberationSans-32"
                 x="472.31445" />
              <use
                 height="100%"
                 width="100%"
                 y="0"
                 id="use50"
                 xlink:href="#LiberationSans-68"
                 x="500.09766" />
              <use
                 height="100%"
                 width="100%"
                 y="0"
                 id="use52"
                 xlink:href="#LiberationSans-69"
                 x="572.31445" />
              <use
                 height="100%"
                 width="100%"
                 y="0"
                 id="use54"
                 xlink:href="#LiberationSans-80"
                 x="639.01367" />
              <use
                 height="100%"
                 width="100%"
                 y="0"
                 id="use56"
                 xlink:href="#LiberationSans-65"
                 x="698.33789" />
              <use
                 height="100%"
                 width="100%"
                 y="0"
                 id="use58"
                 xlink:href="#LiberationSans-82"
                 x="765.03711" />
              <use
                 height="100%"
                 width="100%"
                 y="0"
                 id="use60"
                 xlink:href="#LiberationSans-84"
                 x="835.50391" />
              <use
                 height="100%"
                 width="100%"
                 y="0"
                 id="use62"
                 xlink:href="#LiberationSans-77"
                 x="896.58789" />
              <use
                 height="100%"
                 width="100%"
                 y="0"
                 id="use64"
                 xlink:href="#LiberationSans-69"
                 x="979.88867" />
              <use
                 height="100%"
                 width="100%"
                 y="0"
                 id="use66"
                 xlink:href="#LiberationSans-78"
                 x="1046.5879" />
              <use
                 height="100%"
                 width="100%"
                 y="0"
                 id="use68"
                 xlink:href="#LiberationSans-84"
                 x="1118.8047" />
            </g>
          </g>
        </g>
        <g
           id="xtick_2">
          <g
             id="line2d_3">
            <path
               id="path74"
               style="fill:none;stroke:#ffffff;stroke-linecap:round"
               d="M 205.92,346.5 V 47.52"
               clip-path="url(#p57a72a5f67)" />
          </g>
          <g
             id="line2d_4" />
          <g
             id="text_2">
            <!-- EXECUTIVE -->
            <defs
               id="defs81">
              <path
                 id="LiberationSans-88"
                 d="M 54.296875,0 33.640625,30.078125 12.546875,0 H 2.25 L 28.421875,35.75 4.25,68.796875 h 10.296875 l 19.140625,-27 18.609375,27 H 62.59375 L 39.0625,36.078125 64.59375,0 Z" />
              <path
                 id="LiberationSans-67"
                 d="m 38.671875,62.203125 q -5.859375,0 -10.375,-1.953125 Q 23.78125,58.296875 20.71875,54.6875 17.671875,51.078125 16.109375,46 q -1.5625,-5.078125 -1.5625,-11.28125 0,-6.203125 1.6875,-11.359375 Q 17.921875,18.21875 21.0625,14.5 24.21875,10.796875 28.78125,8.734375 33.34375,6.6875 39.0625,6.6875 q 4,0 7.296875,1.046875 3.296875,1.0625 5.953125,2.953125 2.671875,1.90625 4.765625,4.515625 2.109375,2.625 3.71875,5.796875 L 68.40625,17.1875 Q 66.546875,13.328125 63.8125,10 61.078125,6.6875 57.390625,4.25 53.71875,1.8125 49.046875,0.40625 44.390625,-0.984375 38.625,-0.984375 30.28125,-0.984375 24,1.671875 17.71875,4.34375 13.5,9.109375 9.28125,13.875 7.171875,20.40625 q -2.09375,6.546875 -2.09375,14.3125 0,8.0625 2.21875,14.546875 2.21875,6.5 6.484375,11.0625 4.28125,4.5625 10.53125,7.03125 6.25,2.46875 14.265625,2.46875 10.984375,0 18.359375,-4.296875 7.375,-4.296875 10.84375,-12.75 L 58.9375,49.859375 q -0.984375,2.4375 -2.640625,4.65625 -1.65625,2.21875 -4.15625,3.921875 -2.484375,1.71875 -5.828125,2.734375 -3.34375,1.03125 -7.640625,1.03125 z" />
              <path
                 id="LiberationSans-86"
                 d="M 38.1875,0 H 28.515625 L 0.4375,68.796875 H 10.25 l 19.046875,-48.4375 q 0.734375,-2.1875 1.46875,-4.375 0.734375,-2.171875 1.3125,-3.875 0.6875,-2 1.328125,-3.90625 0.578125,1.8125 1.265625,3.8125 0.578125,1.703125 1.28125,3.84375 0.71875,2.15625 1.546875,4.5 l 18.953125,48.4375 h 9.8125 z" />
            </defs>
            <g
               id="g101"
               transform="matrix(0,-0.1,-0.1,0,208.50594,410.18125)"
               style="fill:#262626">
              <use
                 height="100%"
                 width="100%"
                 y="0"
                 x="0"
                 id="use83"
                 xlink:href="#LiberationSans-69" />
              <use
                 height="100%"
                 width="100%"
                 y="0"
                 id="use85"
                 xlink:href="#LiberationSans-88"
                 x="66.699219" />
              <use
                 height="100%"
                 width="100%"
                 y="0"
                 id="use87"
                 xlink:href="#LiberationSans-69"
                 x="133.39844" />
              <use
                 height="100%"
                 width="100%"
                 y="0"
                 id="use89"
                 xlink:href="#LiberationSans-67"
                 x="200.09766" />
              <use
                 height="100%"
                 width="100%"
                 y="0"
                 id="use91"
                 xlink:href="#LiberationSans-85"
                 x="272.31445" />
              <use
                 height="100%"
                 width="100%"
                 y="0"
                 id="use93"
                 xlink:href="#LiberationSans-84"
                 x="344.53125" />
              <use
                 height="100%"
                 width="100%"
                 y="0"
                 id="use95"
                 xlink:href="#LiberationSans-73"
                 x="405.61523" />
              <use
                 height="100%"
                 width="100%"
                 y="0"
                 id="use97"
                 xlink:href="#LiberationSans-86"
                 x="433.39844" />
              <use
                 height="100%"
                 width="100%"
                 y="0"
                 id="use99"
                 xlink:href="#LiberationSans-69"
                 x="500.09766" />
            </g>
          </g>
        </g>
        <g
           id="xtick_3">
          <g
             id="line2d_5">
            <path
               id="path105"
               style="fill:none;stroke:#ffffff;stroke-linecap:round"
               d="M 295.2,346.5 V 47.52"
               clip-path="url(#p57a72a5f67)" />
          </g>
          <g
             id="line2d_6" />
          <g
             id="text_3">
            <!-- FIRE DEPARTMENT -->
            <defs
               id="defs110">
              <path
                 id="LiberationSans-70"
                 d="M 17.53125,61.1875 V 35.59375 h 38.375 V 27.875 h -38.375 V 0 H 8.203125 v 68.796875 h 48.875 V 61.1875 Z" />
            </defs>
            <g
               id="g142"
               transform="matrix(0,-0.1,-0.1,0,297.78594,447.03594)"
               style="fill:#262626">
              <use
                 height="100%"
                 width="100%"
                 y="0"
                 x="0"
                 id="use112"
                 xlink:href="#LiberationSans-70" />
              <use
                 height="100%"
                 width="100%"
                 y="0"
                 id="use114"
                 xlink:href="#LiberationSans-73"
                 x="61.083984" />
              <use
                 height="100%"
                 width="100%"
                 y="0"
                 id="use116"
                 xlink:href="#LiberationSans-82"
                 x="88.867188" />
              <use
                 height="100%"
                 width="100%"
                 y="0"
                 id="use118"
                 xlink:href="#LiberationSans-69"
                 x="161.08398" />
              <use
                 height="100%"
                 width="100%"
                 y="0"
                 id="use120"
                 xlink:href="#LiberationSans-32"
                 x="227.7832" />
              <use
                 height="100%"
                 width="100%"
                 y="0"
                 id="use122"
                 xlink:href="#LiberationSans-68"
                 x="255.56641" />
              <use
                 height="100%"
                 width="100%"
                 y="0"
                 id="use124"
                 xlink:href="#LiberationSans-69"
                 x="327.7832" />
              <use
                 height="100%"
                 width="100%"
                 y="0"
                 id="use126"
                 xlink:href="#LiberationSans-80"
                 x="394.48242" />
              <use
                 height="100%"
                 width="100%"
                 y="0"
                 id="use128"
                 xlink:href="#LiberationSans-65"
                 x="453.80664" />
              <use
                 height="100%"
                 width="100%"
                 y="0"
                 id="use130"
                 xlink:href="#LiberationSans-82"
                 x="520.50586" />
              <use
                 height="100%"
                 width="100%"
                 y="0"
                 id="use132"
                 xlink:href="#LiberationSans-84"
                 x="590.97266" />
              <use
                 height="100%"
                 width="100%"
                 y="0"
                 id="use134"
                 xlink:href="#LiberationSans-77"
                 x="652.05664" />
              <use
                 height="100%"
                 width="100%"
                 y="0"
                 id="use136"
                 xlink:href="#LiberationSans-69"
                 x="735.35742" />
              <use
                 height="100%"
                 width="100%"
                 y="0"
                 id="use138"
                 xlink:href="#LiberationSans-78"
                 x="802.05664" />
              <use
                 height="100%"
                 width="100%"
                 y="0"
                 id="use140"
                 xlink:href="#LiberationSans-84"
                 x="874.27344" />
            </g>
          </g>
        </g>
        <g
           id="xtick_4">
          <g
             id="line2d_7">
            <path
               id="path146"
               style="fill:none;stroke:#ffffff;stroke-linecap:round"
               d="M 384.48,346.5 V 47.52"
               clip-path="url(#p57a72a5f67)" />
          </g>
          <g
             id="line2d_8" />
          <g
             id="text_4">
            <!-- POLICE DEPARTMENT -->
            <defs
               id="defs151">
              <path
                 id="LiberationSans-79"
                 d="M 73,34.71875 Q 73,26.65625 70.671875,20.0625 68.359375,13.484375 63.96875,8.796875 59.578125,4.109375 53.21875,1.5625 46.875,-0.984375 38.8125,-0.984375 q -8.484375,0 -14.890625,2.65625 Q 17.53125,4.34375 13.28125,9.109375 9.03125,13.875 6.875,20.40625 q -2.140625,6.546875 -2.140625,14.3125 0,8.0625 2.25,14.546875 2.25,6.5 6.59375,11.0625 4.34375,4.5625 10.71875,7.03125 6.375,2.46875 14.625,2.46875 8.203125,0 14.5625,-2.5 6.375,-2.484375 10.6875,-7.078125 Q 68.5,55.671875 70.75,49.171875 73,42.671875 73,34.71875 Z m -9.515625,0 q 0,6.203125 -1.59375,11.28125 -1.59375,5.078125 -4.6875,8.6875 -3.09375,3.609375 -7.6875,5.5625 -4.59375,1.953125 -10.59375,1.953125 -6.15625,0 -10.796875,-1.953125 -4.640625,-1.953125 -7.75,-5.5625 Q 17.28125,51.078125 15.734375,46 q -1.53125,-5.078125 -1.53125,-11.28125 0,-6.203125 1.59375,-11.359375 1.59375,-5.140625 4.6875,-8.875 3.09375,-3.734375 7.703125,-5.8125 4.625,-2.078125 10.625,-2.078125 6.453125,0 11.109375,2.09375 4.671875,2.109375 7.671875,5.84375 3,3.734375 4.4375,8.90625 1.453125,5.171875 1.453125,11.28125 z" />
            </defs>
            <g
               id="g187"
               transform="matrix(0,-0.1,-0.1,0,387.06594,460.9375)"
               style="fill:#262626">
              <use
                 height="100%"
                 width="100%"
                 y="0"
                 x="0"
                 id="use153"
                 xlink:href="#LiberationSans-80" />
              <use
                 height="100%"
                 width="100%"
                 y="0"
                 id="use155"
                 xlink:href="#LiberationSans-79"
                 x="66.699219" />
              <use
                 height="100%"
                 width="100%"
                 y="0"
                 id="use157"
                 xlink:href="#LiberationSans-76"
                 x="144.48242" />
              <use
                 height="100%"
                 width="100%"
                 y="0"
                 id="use159"
                 xlink:href="#LiberationSans-73"
                 x="200.09766" />
              <use
                 height="100%"
                 width="100%"
                 y="0"
                 id="use161"
                 xlink:href="#LiberationSans-67"
                 x="227.88086" />
              <use
                 height="100%"
                 width="100%"
                 y="0"
                 id="use163"
                 xlink:href="#LiberationSans-69"
                 x="300.09766" />
              <use
                 height="100%"
                 width="100%"
                 y="0"
                 id="use165"
                 xlink:href="#LiberationSans-32"
                 x="366.79688" />
              <use
                 height="100%"
                 width="100%"
                 y="0"
                 id="use167"
                 xlink:href="#LiberationSans-68"
                 x="394.58008" />
              <use
                 height="100%"
                 width="100%"
                 y="0"
                 id="use169"
                 xlink:href="#LiberationSans-69"
                 x="466.79688" />
              <use
                 height="100%"
                 width="100%"
                 y="0"
                 id="use171"
                 xlink:href="#LiberationSans-80"
                 x="533.49609" />
              <use
                 height="100%"
                 width="100%"
                 y="0"
                 id="use173"
                 xlink:href="#LiberationSans-65"
                 x="592.82031" />
              <use
                 height="100%"
                 width="100%"
                 y="0"
                 id="use175"
                 xlink:href="#LiberationSans-82"
                 x="659.51953" />
              <use
                 height="100%"
                 width="100%"
                 y="0"
                 id="use177"
                 xlink:href="#LiberationSans-84"
                 x="729.98633" />
              <use
                 height="100%"
                 width="100%"
                 y="0"
                 id="use179"
                 xlink:href="#LiberationSans-77"
                 x="791.07031" />
              <use
                 height="100%"
                 width="100%"
                 y="0"
                 id="use181"
                 xlink:href="#LiberationSans-69"
                 x="874.37109" />
              <use
                 height="100%"
                 width="100%"
                 y="0"
                 id="use183"
                 xlink:href="#LiberationSans-78"
                 x="941.07031" />
              <use
                 height="100%"
                 width="100%"
                 y="0"
                 id="use185"
                 xlink:href="#LiberationSans-84"
                 x="1013.2871" />
            </g>
          </g>
        </g>
        <g
           id="xtick_5">
          <g
             id="line2d_9">
            <path
               id="path191"
               style="fill:none;stroke:#ffffff;stroke-linecap:round"
               d="M 473.76,346.5 V 47.52"
               clip-path="url(#p57a72a5f67)" />
          </g>
          <g
             id="line2d_10" />
          <g
             id="text_5">
            <!-- SCHOOL DEPARTMENT -->
            <defs
               id="defs197">
              <path
                 id="LiberationSans-83"
                 d="m 62.109375,19 q 0,-4.34375 -1.6875,-8.015625 Q 58.734375,7.328125 55.21875,4.65625 51.703125,2 46.359375,0.5 41.015625,-0.984375 33.6875,-0.984375 q -12.84375,0 -20.015625,4.5 Q 6.5,8.015625 4.546875,16.5 l 9.03125,1.8125 q 0.6875,-2.6875 2.09375,-4.890625 1.421875,-2.1875 3.828125,-3.78125 2.421875,-1.578125 5.984375,-2.46875 3.5625,-0.875 8.546875,-0.875 4.15625,0 7.625,0.703125 3.46875,0.71875 5.953125,2.171875 2.484375,1.46875 3.875,3.78125 Q 52.875,15.28125 52.875,18.5 q 0,3.375 -1.53125,5.46875 -1.53125,2.109375 -4.328125,3.46875 -2.78125,1.375 -6.640625,2.296875 -3.84375,0.9375 -8.53125,2 -2.890625,0.640625 -5.796875,1.390625 -2.90625,0.765625 -5.5625,1.8125 -2.65625,1.046875 -5,2.453125 -2.34375,1.421875 -4.0625,3.40625 -1.703125,1.984375 -2.6875,4.59375 -0.96875,2.609375 -0.96875,6.03125 0,4.875 1.96875,8.359375 1.984375,3.5 5.5,5.75 3.515625,2.25 8.296875,3.265625 4.796875,1.03125 10.359375,1.03125 6.390625,0 10.921875,-1 4.546875,-1 7.671875,-3.015625 3.125,-2 5,-4.953125 Q 59.375,57.90625 60.5,54 l -9.1875,-1.609375 q -0.671875,2.5 -1.96875,4.453125 -1.296875,1.953125 -3.40625,3.265625 -2.09375,1.3125 -5.09375,2 -3,0.6875 -7.046875,0.6875 Q 29,62.796875 25.75,61.9375 22.515625,61.078125 20.53125,59.609375 18.5625,58.15625 17.703125,56.171875 16.84375,54.203125 16.84375,51.90625 q 0,-3.078125 1.53125,-5.0625 1.546875,-1.96875 4.1875,-3.296875 2.640625,-1.3125 6.09375,-2.1875 3.46875,-0.875 7.375,-1.765625 3.171875,-0.71875 6.328125,-1.484375 3.15625,-0.75 6.03125,-1.8125 2.875,-1.046875 5.390625,-2.46875 2.515625,-1.40625 4.375,-3.453125 1.859375,-2.046875 2.90625,-4.84375 Q 62.109375,22.75 62.109375,19 Z" />
              <path
                 id="LiberationSans-72"
                 d="M 54.734375,0 V 31.890625 H 17.53125 V 0 H 8.203125 v 68.796875 h 9.328125 v -29.09375 h 37.203125 v 29.09375 H 64.0625 V 0 Z" />
            </defs>
            <g
               id="g233"
               transform="matrix(0,-0.1,-0.1,0,476.34594,466.11406)"
               style="fill:#262626">
              <use
                 height="100%"
                 width="100%"
                 y="0"
                 x="0"
                 id="use199"
                 xlink:href="#LiberationSans-83" />
              <use
                 height="100%"
                 width="100%"
                 y="0"
                 id="use201"
                 xlink:href="#LiberationSans-67"
                 x="66.699219" />
              <use
                 height="100%"
                 width="100%"
                 y="0"
                 id="use203"
                 xlink:href="#LiberationSans-72"
                 x="138.91602" />
              <use
                 height="100%"
                 width="100%"
                 y="0"
                 id="use205"
                 xlink:href="#LiberationSans-79"
                 x="211.13281" />
              <use
                 height="100%"
                 width="100%"
                 y="0"
                 id="use207"
                 xlink:href="#LiberationSans-79"
                 x="288.91602" />
              <use
                 height="100%"
                 width="100%"
                 y="0"
                 id="use209"
                 xlink:href="#LiberationSans-76"
                 x="366.69922" />
              <use
                 height="100%"
                 width="100%"
                 y="0"
                 id="use211"
                 xlink:href="#LiberationSans-32"
                 x="418.56445" />
              <use
                 height="100%"
                 width="100%"
                 y="0"
                 id="use213"
                 xlink:href="#LiberationSans-68"
                 x="446.34766" />
              <use
                 height="100%"
                 width="100%"
                 y="0"
                 id="use215"
                 xlink:href="#LiberationSans-69"
                 x="518.56445" />
              <use
                 height="100%"
                 width="100%"
                 y="0"
                 id="use217"
                 xlink:href="#LiberationSans-80"
                 x="585.26367" />
              <use
                 height="100%"
                 width="100%"
                 y="0"
                 id="use219"
                 xlink:href="#LiberationSans-65"
                 x="644.58789" />
              <use
                 height="100%"
                 width="100%"
                 y="0"
                 id="use221"
                 xlink:href="#LiberationSans-82"
                 x="711.28711" />
              <use
                 height="100%"
                 width="100%"
                 y="0"
                 id="use223"
                 xlink:href="#LiberationSans-84"
                 x="781.75391" />
              <use
                 height="100%"
                 width="100%"
                 y="0"
                 id="use225"
                 xlink:href="#LiberationSans-77"
                 x="842.83789" />
              <use
                 height="100%"
                 width="100%"
                 y="0"
                 id="use227"
                 xlink:href="#LiberationSans-69"
                 x="926.13867" />
              <use
                 height="100%"
                 width="100%"
                 y="0"
                 id="use229"
                 xlink:href="#LiberationSans-78"
                 x="992.83789" />
              <use
                 height="100%"
                 width="100%"
                 y="0"
                 id="use231"
                 xlink:href="#LiberationSans-84"
                 x="1065.0547" />
            </g>
          </g>
        </g>
      </g>
      <g
         id="matplotlib.axis_2">
        <g
           id="ytick_1">
          <g
             id="line2d_11">
            <path
               id="path238"
               style="fill:none;stroke:#ffffff;stroke-linecap:round"
               d="M 72,346.5 H 518.4"
               clip-path="url(#p57a72a5f67)" />
          </g>
          <g
             id="line2d_12" />
          <g
             id="text_6">
            <!-- 0 -->
            <defs
               id="defs243">
              <path
                 id="LiberationSans-48"
                 d="m 51.703125,34.421875 q 0,-9.90625 -1.875,-16.671875 -1.875,-6.765625 -5.125,-10.9375 -3.25,-4.171875 -7.640625,-5.984375 -4.390625,-1.8125 -9.375,-1.8125 -5.03125,0 -9.375,1.8125 -4.34375,1.8125 -7.546875,5.953125 Q 7.5625,10.9375 5.734375,17.703125 3.90625,24.46875 3.90625,34.421875 q 0,10.40625 1.828125,17.21875 1.828125,6.8125 5.046875,10.859375 3.234375,4.046875 7.625,5.6875 4.390625,1.640625 9.578125,1.640625 4.921875,0 9.234375,-1.640625 Q 41.546875,66.546875 44.765625,62.5 48,58.453125 49.84375,51.640625 q 1.859375,-6.8125 1.859375,-17.21875 z m -8.921875,0 q 0,8.203125 -0.984375,13.640625 -0.96875,5.453125 -2.875,8.703125 -1.90625,3.25 -4.671875,4.59375 -2.75,1.34375 -6.265625,1.34375 -3.71875,0 -6.546875,-1.375 -2.828125,-1.359375 -4.765625,-4.609375 -1.921875,-3.25 -2.90625,-8.703125 -0.96875,-5.4375 -0.96875,-13.59375 0,-7.90625 1,-13.328125 1,-5.421875 2.921875,-8.71875 1.9375,-3.296875 4.71875,-4.734375 2.78125,-1.4375 6.34375,-1.4375 3.46875,0 6.25,1.4375 2.78125,1.4375 4.703125,4.734375 1.9375,3.296875 2.984375,8.71875 1.0625,5.421875 1.0625,13.328125 z" />
            </defs>
            <g
               id="g247"
               transform="matrix(0.1,0,0,-0.1,59.439062,350.12344)"
               style="fill:#262626">
              <use
                 height="100%"
                 width="100%"
                 y="0"
                 x="0"
                 id="use245"
                 xlink:href="#LiberationSans-48" />
            </g>
          </g>
        </g>
        <g
           id="ytick_2">
          <g
             id="line2d_13">
            <path
               id="path251"
               style="fill:none;stroke:#ffffff;stroke-linecap:round"
               d="M 72,287.17857 H 518.4"
               clip-path="url(#p57a72a5f67)" />
          </g>
          <g
             id="line2d_14" />
          <g
             id="text_7">
            <!-- 5 -->
            <defs
               id="defs256">
              <path
                 id="LiberationSans-53"
                 d="m 51.421875,22.40625 q 0,-5.171875 -1.5625,-9.46875 Q 48.296875,8.640625 45.21875,5.53125 42.140625,2.4375 37.578125,0.71875 33.015625,-0.984375 27,-0.984375 q -5.421875,0 -9.453125,1.265625 -4.015625,1.28125 -6.8125,3.5 Q 7.953125,6 6.3125,8.984375 4.6875,11.96875 4,15.375 l 8.890625,1.03125 q 0.53125,-1.953125 1.5,-3.78125 Q 15.375,10.796875 17.0625,9.34375 18.75,7.90625 21.21875,7.046875 q 2.46875,-0.84375 5.984375,-0.84375 3.40625,0 6.1875,1.046875 2.796875,1.046875 4.765625,3.09375 1.984375,2.0625 3.046875,5.03125 1.078125,2.984375 1.078125,6.84375 0,3.171875 -1.03125,5.828125 -1.015625,2.671875 -2.921875,4.59375 -1.90625,1.9375 -4.671875,3 -2.75,1.078125 -6.265625,1.078125 -2.1875,0 -4.046875,-0.390625 Q 21.484375,35.9375 19.890625,35.25 18.3125,34.578125 17.015625,33.671875 15.71875,32.765625 14.59375,31.78125 H 6 L 8.296875,68.796875 H 47.40625 v -7.46875 H 16.3125 L 14.984375,39.5 q 2.34375,1.8125 5.859375,3.09375 3.515625,1.296875 8.359375,1.296875 5.125,0 9.21875,-1.5625 4.109375,-1.5625 6.984375,-4.421875 2.890625,-2.84375 4.453125,-6.796875 1.5625,-3.953125 1.5625,-8.703125 z" />
            </defs>
            <g
               id="g260"
               transform="matrix(0.1,0,0,-0.1,59.439062,290.80201)"
               style="fill:#262626">
              <use
                 height="100%"
                 width="100%"
                 y="0"
                 x="0"
                 id="use258"
                 xlink:href="#LiberationSans-53" />
            </g>
          </g>
        </g>
        <g
           id="ytick_3">
          <g
             id="line2d_15">
            <path
               id="path264"
               style="fill:none;stroke:#ffffff;stroke-linecap:round"
               d="M 72,227.85714 H 518.4"
               clip-path="url(#p57a72a5f67)" />
          </g>
          <g
             id="line2d_16" />
          <g
             id="text_8">
            <!-- 10 -->
            <defs
               id="defs269">
              <path
                 id="LiberationSans-49"
                 d="m 7.625,0 v 7.46875 h 17.515625 v 52.9375 L 9.625,49.3125 v 8.3125 l 16.25,11.171875 h 8.109375 V 7.46875 h 16.75 V 0 Z" />
            </defs>
            <g
               id="g275"
               transform="matrix(0.1,0,0,-0.1,53.878125,231.48058)"
               style="fill:#262626">
              <use
                 height="100%"
                 width="100%"
                 y="0"
                 x="0"
                 id="use271"
                 xlink:href="#LiberationSans-49" />
              <use
                 height="100%"
                 width="100%"
                 y="0"
                 id="use273"
                 xlink:href="#LiberationSans-48"
                 x="55.615234" />
            </g>
          </g>
        </g>
        <g
           id="ytick_4">
          <g
             id="line2d_17">
            <path
               id="path279"
               style="fill:none;stroke:#ffffff;stroke-linecap:round"
               d="M 72,168.53571 H 518.4"
               clip-path="url(#p57a72a5f67)" />
          </g>
          <g
             id="line2d_18" />
          <g
             id="text_9">
            <!-- 15 -->
            <g
               id="g287"
               transform="matrix(0.1,0,0,-0.1,53.878125,172.15915)"
               style="fill:#262626">
              <use
                 height="100%"
                 width="100%"
                 y="0"
                 x="0"
                 id="use283"
                 xlink:href="#LiberationSans-49" />
              <use
                 height="100%"
                 width="100%"
                 y="0"
                 id="use285"
                 xlink:href="#LiberationSans-53"
                 x="55.615234" />
            </g>
          </g>
        </g>
        <g
           id="ytick_5">
          <g
             id="line2d_19">
            <path
               id="path291"
               style="fill:none;stroke:#ffffff;stroke-linecap:round"
               d="M 72,109.21429 H 518.4"
               clip-path="url(#p57a72a5f67)" />
          </g>
          <g
             id="line2d_20" />
          <g
             id="text_10">
            <!-- 20 -->
            <defs
               id="defs296">
              <path
                 id="LiberationSans-50"
                 d="m 5.03125,0 v 6.203125 q 2.484375,5.71875 6.078125,10.078125 3.59375,4.375 7.546875,7.90625 3.953125,3.546875 7.828125,6.578125 Q 30.375,33.796875 33.5,36.8125 q 3.125,3.03125 5.046875,6.34375 1.9375,3.328125 1.9375,7.53125 0,2.921875 -0.890625,5.140625 -0.875,2.234375 -2.53125,3.734375 -1.65625,1.515625 -3.984375,2.265625 -2.3125,0.765625 -5.140625,0.765625 -2.640625,0 -4.96875,-0.734375 -2.3125,-0.71875 -4.125,-2.1875 Q 17.046875,58.203125 15.890625,56.03125 14.75,53.859375 14.40625,50.984375 L 5.421875,51.8125 q 0.4375,3.703125 2.046875,6.96875 1.609375,3.28125 4.4375,5.75 2.84375,2.46875 6.8125,3.875 3.984375,1.421875 9.21875,1.421875 5.125,0 9.125,-1.21875 4,-1.21875 6.75,-3.625 2.765625,-2.390625 4.234375,-5.90625 1.46875,-3.515625 1.46875,-8.09375 0,-3.46875 -1.25,-6.59375 -1.25,-3.125 -3.328125,-5.96875 -2.0625,-2.828125 -4.796875,-5.46875 -2.734375,-2.625 -5.71875,-5.140625 -2.96875,-2.515625 -6,-4.984375 -3.03125,-2.46875 -5.703125,-4.96875 Q 20.0625,15.375 17.96875,12.8125 15.875,10.25 14.703125,7.46875 H 50.59375 V 0 Z" />
            </defs>
            <g
               id="g302"
               transform="matrix(0.1,0,0,-0.1,53.878125,112.83772)"
               style="fill:#262626">
              <use
                 height="100%"
                 width="100%"
                 y="0"
                 x="0"
                 id="use298"
                 xlink:href="#LiberationSans-50" />
              <use
                 height="100%"
                 width="100%"
                 y="0"
                 id="use300"
                 xlink:href="#LiberationSans-48"
                 x="55.615234" />
            </g>
          </g>
        </g>
        <g
           id="ytick_6">
          <g
             id="line2d_21">
            <path
               id="path306"
               style="fill:none;stroke:#ffffff;stroke-linecap:round"
               d="M 72,49.892857 H 518.4"
               clip-path="url(#p57a72a5f67)" />
          </g>
          <g
             id="line2d_22" />
          <g
             id="text_11">
            <!-- 25 -->
            <g
               id="g314"
               transform="matrix(0.1,0,0,-0.1,53.878125,53.516295)"
               style="fill:#262626">
              <use
                 height="100%"
                 width="100%"
                 y="0"
                 x="0"
                 id="use310"
                 xlink:href="#LiberationSans-50" />
              <use
                 height="100%"
                 width="100%"
                 y="0"
                 id="use312"
                 xlink:href="#LiberationSans-53"
                 x="55.615234" />
            </g>
          </g>
        </g>
        <g
           id="text_12">
          <!-- Number of Employees -->
          <defs
             id="defs329">
            <path
               id="LiberationSans-117"
               d="M 15.328125,52.828125 V 19.34375 q 0,-3.859375 0.5625,-6.453125 0.5625,-2.59375 1.828125,-4.1875 Q 19,7.125 21.0625,6.46875 23.140625,5.8125 26.21875,5.8125 q 3.125,0 5.640625,1.09375 2.515625,1.109375 4.296875,3.171875 1.78125,2.078125 2.75,5.125 0.984375,3.0625 0.984375,7.015625 V 52.828125 H 48.6875 V 11.28125 q 0,-1.65625 0.01563,-3.5 Q 48.734375,5.953125 48.78125,4.3125 48.828125,2.6875 48.875,1.515625 48.921875,0.34375 48.96875,0 h -8.296875 q -0.04687,0.25 -0.09375,1.3125 -0.04687,1.078125 -0.125,2.46875 -0.07813,1.390625 -0.125,2.828125 Q 40.28125,8.0625 40.28125,9.03125 H 40.140625 Q 38.875,6.734375 37.359375,4.875 35.84375,3.03125 33.84375,1.734375 q -2,-1.296875 -4.59375,-2 -2.59375,-0.71875 -6,-0.71875 -4.40625,0 -7.578125,1.078125 -3.171875,1.078125 -5.21875,3.328125 -2.046875,2.25 -3,5.765625 Q 6.5,12.703125 6.5,17.625 v 35.203125 z" />
            <path
               id="LiberationSans-109"
               d="m 37.5,0 v 33.5 q 0,3.859375 -0.484375,6.4375 -0.484375,2.59375 -1.640625,4.171875 -1.140625,1.59375 -3,2.25 -1.859375,0.65625 -4.546875,0.65625 -2.78125,0 -5.03125,-1.09375 Q 20.5625,44.828125 18.96875,42.75 17.390625,40.671875 16.53125,37.625 15.671875,34.578125 15.671875,30.609375 V 0 H 6.9375 v 41.546875 q 0,1.671875 -0.03125,3.5 Q 6.890625,46.875 6.828125,48.5 6.78125,50.140625 6.734375,51.3125 6.6875,52.484375 6.640625,52.828125 H 14.9375 q 0.04687,-0.234375 0.09375,-1.3125 0.0625,-1.078125 0.125,-2.46875 0.07813,-1.390625 0.125,-2.828125 0.04687,-1.4375 0.04687,-2.421875 h 0.15625 q 1.171875,2.296875 2.53125,4.15625 1.375,1.859375 3.203125,3.140625 1.828125,1.296875 4.1875,2 2.375,0.71875 5.5,0.71875 6.015625,0 9.5,-2.390625 3.484375,-2.390625 4.859375,-7.625 h 0.140625 q 1.171875,2.296875 2.640625,4.15625 1.46875,1.859375 3.421875,3.140625 1.953125,1.296875 4.390625,2 2.4375,0.71875 5.5625,0.71875 4.015625,0 6.90625,-1.078125 2.90625,-1.078125 4.765625,-3.328125 1.859375,-2.234375 2.734375,-5.78125 0.875,-3.53125 0.875,-8.421875 V 0 h -8.6875 v 33.5 q 0,3.859375 -0.484375,6.4375 -0.484375,2.59375 -1.640625,4.171875 -1.140625,1.59375 -3,2.25 -1.859375,0.65625 -4.546875,0.65625 -2.78125,0 -5.03125,-1.046875 Q 51.078125,44.921875 49.484375,42.875 47.90625,40.828125 47.046875,37.75 46.1875,34.671875 46.1875,30.609375 V 0 Z" />
            <path
               id="LiberationSans-98"
               d="m 51.421875,26.65625 q 0,-27.640625 -19.4375,-27.640625 -6,0 -9.984375,2.171875 -3.984375,2.1875 -6.46875,7.015625 H 15.4375 q 0,-1.265625 -0.07813,-2.640625 -0.07813,-1.359375 -0.15625,-2.53125 -0.0625,-1.171875 -0.140625,-2 Q 14.984375,0.203125 14.9375,0 H 6.453125 Q 6.5,0.4375 6.546875,1.484375 6.59375,2.546875 6.640625,4 q 0.046875,1.46875 0.0625,3.21875 0.03125,1.765625 0.03125,3.671875 V 72.46875 H 15.53125 V 51.8125 Q 15.53125,50.34375 15.5,49 15.484375,47.65625 15.4375,46.625 15.375,45.40625 15.328125,44.34375 h 0.203125 q 2.4375,5.078125 6.46875,7.265625 4.03125,2.203125 9.984375,2.203125 10.015625,0 14.71875,-6.75 4.71875,-6.734375 4.71875,-20.40625 z M 42.1875,26.375 q 0,5.46875 -0.6875,9.375 -0.671875,3.90625 -2.1875,6.40625 -1.515625,2.515625 -3.859375,3.6875 -2.34375,1.171875 -5.71875,1.171875 -3.46875,0 -6.125,-1.125 -2.65625,-1.109375 -4.4375,-3.609375 -1.78125,-2.484375 -2.71875,-6.546875 -0.921875,-4.046875 -0.921875,-9.90625 0,-5.65625 0.921875,-9.515625 0.9375,-3.859375 2.71875,-6.28125 1.78125,-2.40625 4.40625,-3.46875 2.640625,-1.046875 6.0625,-1.046875 3.21875,0 5.5625,1.125 2.34375,1.125 3.90625,3.609375 1.5625,2.5 2.3125,6.46875 0.765625,3.984375 0.765625,9.65625 z" />
            <path
               id="LiberationSans-101"
               d="m 13.484375,24.5625 q 0,-4.15625 0.84375,-7.65625 0.859375,-3.484375 2.640625,-6 1.78125,-2.5 4.5625,-3.90625 2.78125,-1.390625 6.6875,-1.390625 5.71875,0 9.15625,2.296875 3.453125,2.296875 4.671875,5.8125 L 49.75,11.53125 Q 48.921875,9.328125 47.4375,7.109375 45.953125,4.890625 43.453125,3.09375 40.96875,1.3125 37.234375,0.15625 33.5,-0.984375 28.21875,-0.984375 16.5,-0.984375 10.375,6 4.25,12.984375 4.25,26.765625 q 0,7.421875 1.84375,12.5625 1.859375,5.15625 5.078125,8.375 3.234375,3.21875 7.53125,4.65625 Q 23,53.8125 27.875,53.8125 q 6.640625,0 11.109375,-2.15625 4.46875,-2.140625 7.171875,-5.9375 2.71875,-3.78125 3.859375,-8.90625 1.15625,-5.125 1.15625,-11.078125 V 24.5625 Z m 28.609375,6.734375 q -0.734375,8.359375 -4.25,12.1875 -3.515625,3.828125 -10.109375,3.828125 -2.203125,0 -4.625,-0.703125 -2.40625,-0.703125 -4.453125,-2.515625 -2.046875,-1.8125 -3.46875,-4.921875 -1.421875,-3.09375 -1.609375,-7.875 z" />
            <path
               id="LiberationSans-114"
               d="m 6.9375,0 v 40.53125 q 0,1.65625 -0.03125,3.390625 Q 6.890625,45.65625 6.828125,47.265625 6.78125,48.875 6.734375,50.28125 6.6875,51.703125 6.640625,52.828125 H 14.9375 q 0.04687,-1.125 0.125,-2.5625 0.07813,-1.4375 0.140625,-2.953125 0.07813,-1.515625 0.09375,-2.90625 0.03125,-1.390625 0.03125,-2.359375 H 15.53125 Q 16.453125,45.0625 17.5,47.28125 q 1.0625,2.234375 2.46875,3.671875 1.421875,1.4375 3.375,2.140625 1.953125,0.71875 4.734375,0.71875 1.078125,0 2.046875,-0.171875 0.984375,-0.171875 1.515625,-0.3125 v -8.0625 q -0.875,0.25 -2.046875,0.359375 -1.171875,0.125 -2.640625,0.125 -3.03125,0 -5.15625,-1.375 -2.125,-1.359375 -3.46875,-3.78125 Q 17,38.1875 16.359375,34.84375 15.71875,31.5 15.71875,27.546875 V 0 Z" />
            <path
               id="LiberationSans-111"
               d="m 51.421875,26.46875 q 0,-13.875 -6.109375,-20.671875 -6.109375,-6.78125 -17.71875,-6.78125 -5.515625,0 -9.875,1.65625 -4.34375,1.671875 -7.34375,5.09375 -3,3.421875 -4.59375,8.5625 -1.578125,5.15625 -1.578125,12.140625 0,27.34375 23.671875,27.34375 6.15625,0 10.625,-1.71875 4.46875,-1.703125 7.328125,-5.125 2.859375,-3.40625 4.21875,-8.546875 1.375,-5.125 1.375,-11.953125 z m -9.234375,0 q 0,6.15625 -0.953125,10.15625 -0.953125,4 -2.78125,6.390625 -1.828125,2.390625 -4.46875,3.34375 -2.640625,0.953125 -5.953125,0.953125 -3.375,0 -6.09375,-1 -2.703125,-1 -4.609375,-3.421875 -1.890625,-2.40625 -2.90625,-6.421875 -1,-4 -1,-10 0,-6.15625 1.078125,-10.1875 1.078125,-4.03125 2.953125,-6.421875 1.890625,-2.390625 4.453125,-3.375 2.5625,-0.96875 5.578125,-0.96875 3.375,0 6.109375,0.953125 2.734375,0.953125 4.640625,3.34375 1.90625,2.390625 2.921875,6.4375 1.03125,4.0625 1.03125,10.21875 z" />
            <path
               id="LiberationSans-102"
               d="M 17.625,46.4375 V 0 H 8.84375 V 46.4375 H 1.421875 v 6.390625 H 8.84375 v 5.96875 q 0,2.875 0.53125,5.34375 0.53125,2.46875 1.96875,4.296875 1.453125,1.828125 3.9375,2.875 2.5,1.046875 6.453125,1.046875 1.5625,0 3.234375,-0.140625 1.6875,-0.140625 2.96875,-0.4375 v -6.6875 Q 27.09375,65.234375 26,65.359375 q -1.09375,0.125 -1.96875,0.125 -1.953125,0 -3.203125,-0.546875 -1.25,-0.53125 -1.953125,-1.53125 -0.703125,-1 -0.984375,-2.46875 Q 17.625,59.46875 17.625,57.5625 V 52.828125 H 27.9375 V 46.4375 Z" />
            <path
               id="LiberationSans-112"
               d="m 51.421875,26.65625 q 0,-6 -0.984375,-11.078125 -0.96875,-5.078125 -3.25,-8.75 -2.265625,-3.65625 -6,-5.734375 -3.734375,-2.078125 -9.203125,-2.078125 -5.671875,0 -9.921875,2.15625 -4.234375,2.15625 -6.484375,7.03125 h -0.25 Q 15.375,8.109375 15.40625,7.328125 15.4375,6.546875 15.453125,5.375 15.484375,4.203125 15.5,2.75 15.53125,1.3125 15.53125,-0.09375 V -20.75 H 6.734375 v 62.796875 q 0,1.90625 -0.03125,3.65625 Q 6.6875,47.46875 6.640625,48.90625 6.59375,50.34375 6.546875,51.359375 6.5,52.390625 6.453125,52.828125 H 14.9375 q 0.04687,-0.140625 0.125,-1.03125 0.07813,-0.875 0.140625,-2.125 0.07813,-1.234375 0.15625,-2.65625 0.07813,-1.40625 0.07813,-2.671875 h 0.1875 q 1.21875,2.53125 2.78125,4.3125 1.5625,1.78125 3.5625,2.921875 2,1.15625 4.46875,1.671875 2.46875,0.515625 5.546875,0.515625 5.46875,0 9.203125,-1.953125 3.734375,-1.953125 6,-5.5 2.28125,-3.53125 3.25,-8.546875 0.984375,-5 0.984375,-11.109375 z M 42.1875,26.46875 q 0,4.875 -0.59375,8.6875 -0.578125,3.8125 -2.015625,6.4375 -1.4375,2.640625 -3.84375,4 -2.390625,1.375 -6,1.375 -2.921875,0 -5.515625,-0.828125 Q 21.625,45.3125 19.703125,42.96875 17.78125,40.625 16.65625,36.5 q -1.125,-4.125 -1.125,-10.71875 0,-5.609375 0.921875,-9.5 0.9375,-3.875 2.71875,-6.265625 1.78125,-2.390625 4.40625,-3.453125 2.640625,-1.046875 6.0625,-1.046875 3.65625,0 6.078125,1.40625 2.421875,1.421875 3.859375,4.109375 1.4375,2.6875 2.015625,6.5625 0.59375,3.890625 0.59375,8.875 z" />
            <path
               id="LiberationSans-108"
               d="M 6.734375,0 V 72.46875 H 15.53125 V 0 Z" />
            <path
               id="LiberationSans-121"
               d="m 29.5,0 q -1.859375,-4.78125 -3.796875,-8.609375 -1.921875,-3.84375 -4.3125,-6.546875 Q 19,-17.875 16.0625,-19.3125 13.140625,-20.75 9.328125,-20.75 q -1.65625,0 -3.078125,0.09375 -1.421875,0.09375 -2.984375,0.4375 v 6.59375 q 0.9375,-0.140625 2.109375,-0.21875 1.171875,-0.07813 2,-0.07813 3.859375,0 7.171875,2.890625 3.328125,2.875 5.8125,9.171875 L 21.1875,0.25 0.25,52.828125 H 9.625 L 20.75,23.640625 Q 21.234375,22.3125 21.984375,20.109375 22.75,17.921875 23.5,15.71875 q 0.765625,-2.1875 1.34375,-3.953125 0.59375,-1.75 0.6875,-2.1875 0.15625,0.53125 0.71875,2.109375 0.5625,1.59375 1.265625,3.546875 0.703125,1.953125 1.4375,3.953125 0.734375,2 1.21875,3.46875 L 40.53125,52.828125 h 9.28125 z" />
            <path
               id="LiberationSans-115"
               d="m 46.390625,14.59375 q 0,-3.703125 -1.453125,-6.609375 Q 43.5,5.078125 40.765625,3.09375 38.03125,1.125 34.046875,0.0625 q -3.96875,-1.046875 -9.09375,-1.046875 -4.59375,0 -8.28125,0.71875 Q 12.984375,0.4375 10.203125,2 7.421875,3.5625 5.53125,6.125 q -1.875,2.5625 -2.75,6.28125 l 7.765625,1.515625 q 1.125,-4.25 4.640625,-6.234375 3.515625,-1.96875 9.765625,-1.96875 2.828125,0 5.1875,0.390625 2.375,0.390625 4.078125,1.34375 1.71875,0.953125 2.671875,2.53125 0.953125,1.59375 0.953125,3.9375 0,2.390625 -1.125,3.921875 -1.125,1.546875 -3.125,2.5625 -2,1.03125 -4.859375,1.78125 -2.859375,0.765625 -6.265625,1.6875 -3.1875,0.828125 -6.3125,1.859375 -3.125,1.03125 -5.640625,2.703125 -2.5,1.6875 -4.0625,4.171875 -1.5625,2.5 -1.5625,6.265625 0,7.21875 5.140625,11 5.15625,3.78125 15.015625,3.78125 8.75,0 13.890625,-3.078125 5.15625,-3.0625 6.515625,-9.859375 L 37.546875,39.75 q -0.4375,2.046875 -1.609375,3.4375 -1.171875,1.390625 -2.828125,2.25 -1.65625,0.859375 -3.734375,1.21875 -2.078125,0.359375 -4.328125,0.359375 -5.953125,0 -8.796875,-1.8125 Q 13.421875,43.40625 13.421875,39.75 q 0,-2.15625 1.046875,-3.546875 1.0625,-1.390625 2.9375,-2.34375 1.875,-0.953125 4.515625,-1.65625 2.640625,-0.703125 5.8125,-1.484375 2.09375,-0.546875 4.296875,-1.15625 2.203125,-0.609375 4.265625,-1.46875 2.078125,-0.84375 3.90625,-2 1.84375,-1.140625 3.203125,-2.75 1.375,-1.609375 2.171875,-3.765625 0.8125,-2.140625 0.8125,-4.984375 z" />
          </defs>
          <g
             id="g369"
             transform="matrix(0,-0.11,-0.11,0,47.595625,251.41875)"
             style="fill:#262626">
            <use
               height="100%"
               width="100%"
               y="0"
               x="0"
               id="use331"
               xlink:href="#LiberationSans-78" />
            <use
               height="100%"
               width="100%"
               y="0"
               id="use333"
               xlink:href="#LiberationSans-117"
               x="72.216797" />
            <use
               height="100%"
               width="100%"
               y="0"
               id="use335"
               xlink:href="#LiberationSans-109"
               x="127.83203" />
            <use
               height="100%"
               width="100%"
               y="0"
               id="use337"
               xlink:href="#LiberationSans-98"
               x="211.13281" />
            <use
               height="100%"
               width="100%"
               y="0"
               id="use339"
               xlink:href="#LiberationSans-101"
               x="266.74805" />
            <use
               height="100%"
               width="100%"
               y="0"
               id="use341"
               xlink:href="#LiberationSans-114"
               x="322.36328" />
            <use
               height="100%"
               width="100%"
               y="0"
               id="use343"
               xlink:href="#LiberationSans-32"
               x="355.66406" />
            <use
               height="100%"
               width="100%"
               y="0"
               id="use345"
               xlink:href="#LiberationSans-111"
               x="383.44727" />
            <use
               height="100%"
               width="100%"
               y="0"
               id="use347"
               xlink:href="#LiberationSans-102"
               x="439.0625" />
            <use
               height="100%"
               width="100%"
               y="0"
               id="use349"
               xlink:href="#LiberationSans-32"
               x="466.8457" />
            <use
               height="100%"
               width="100%"
               y="0"
               id="use351"
               xlink:href="#LiberationSans-69"
               x="494.62891" />
            <use
               height="100%"
               width="100%"
               y="0"
               id="use353"
               xlink:href="#LiberationSans-109"
               x="561.32812" />
            <use
               height="100%"
               width="100%"
               y="0"
               id="use355"
               xlink:href="#LiberationSans-112"
               x="644.62891" />
            <use
               height="100%"
               width="100%"
               y="0"
               id="use357"
               xlink:href="#LiberationSans-108"
               x="700.24414" />
            <use
               height="100%"
               width="100%"
               y="0"
               id="use359"
               xlink:href="#LiberationSans-111"
               x="722.46094" />
            <use
               height="100%"
               width="100%"
               y="0"
               id="use361"
               xlink:href="#LiberationSans-121"
               x="778.07617" />
            <use
               height="100%"
               width="100%"
               y="0"
               id="use363"
               xlink:href="#LiberationSans-101"
               x="828.07617" />
            <use
               height="100%"
               width="100%"
               y="0"
               id="use365"
               xlink:href="#LiberationSans-101"
               x="883.69141" />
            <use
               height="100%"
               width="100%"
               y="0"
               id="use367"
               xlink:href="#LiberationSans-115"
               x="939.30664" />
          </g>
        </g>
      </g>
      <g
         id="patch_3">
        <path
           id="path373"
           style="fill:#4c72b0"
           d="m 94.32,346.5 h 44.64 V 334.63571 H 94.32 Z"
           clip-path="url(#p57a72a5f67)" />
      </g>
      <g
         id="patch_4">
        <path
           id="path376"
           style="fill:#4c72b0"
           d="m 183.6,346.5 h 44.64 V 322.77143 H 183.6 Z"
           clip-path="url(#p57a72a5f67)" />
      </g>
      <g
         id="patch_5">
        <path
           id="path379"
           style="fill:#4c72b0"
           d="m 272.88,346.5 h 44.64 V 168.53571 h -44.64 z"
           clip-path="url(#p57a72a5f67)" />
      </g>
      <g
         id="patch_6">
        <path
           id="path382"
           style="fill:#4c72b0"
           d="M 362.16,346.5 H 406.8 V 61.757143 h -44.64 z"
           clip-path="url(#p57a72a5f67)" />
      </g>
      <g
         id="patch_7">
        <path
           id="path385"
           style="fill:#4c72b0"
           d="m 451.44,346.5 h 44.64 V 239.72143 h -44.64 z"
           clip-path="url(#p57a72a5f67)" />
      </g>
      <g
         id="patch_8">
        <path
           id="path388"
           style="fill:none"
           d="M 72,346.5 V 47.52" />
      </g>
      <g
         id="patch_9">
        <path
           id="path391"
           style="fill:none"
           d="M 518.4,346.5 V 47.52" />
      </g>
      <g
         id="patch_10">
        <path
           id="path394"
           style="fill:none"
           d="M 72,346.5 H 518.4" />
      </g>
      <g
         id="patch_11">
        <path
           id="path397"
           style="fill:none"
           d="M 72,47.52 H 518.4" />
      </g>
      <g
         id="text_13">
        <!-- 50 Top Earning Employees by Department (2019) -->
        <defs
           id="defs408">
          <path
             id="LiberationSans-97"
             d="m 20.21875,-0.984375 q -7.96875,0 -11.96875,4.203125 -4,4.203125 -4,11.53125 0,5.21875 1.96875,8.5625 1.984375,3.34375 5.171875,5.25 3.203125,1.90625 7.296875,2.640625 4.109375,0.734375 8.359375,0.828125 l 11.875,0.203125 v 2.875 q 0,3.265625 -0.6875,5.5625 -0.6875,2.296875 -2.109375,3.703125 -1.40625,1.421875 -3.53125,2.078125 -2.125,0.671875 -5,0.671875 -2.546875,0 -4.59375,-0.375 -2.046875,-0.359375 -3.5625,-1.3125 -1.515625,-0.953125 -2.453125,-2.59375 -0.921875,-1.625 -1.21875,-4.125 L 6.59375,39.546875 q 0.484375,3.125 1.84375,5.734375 1.375,2.625 3.890625,4.515625 2.515625,1.90625 6.296875,2.953125 3.78125,1.0625 9.15625,1.0625 9.96875,0 14.984375,-4.578125 5.03125,-4.5625 5.03125,-13.203125 v -22.75 q 0,-3.90625 1.03125,-5.890625 1.03125,-1.96875 3.90625,-1.96875 0.734375,0 1.46875,0.09375 0.734375,0.09375 1.40625,0.25 V 0.296875 Q 53.953125,-0.09375 52.3125,-0.28125 q -1.625,-0.203125 -3.484375,-0.203125 -2.484375,0 -4.265625,0.65625 -1.78125,0.65625 -2.90625,2 -1.125,1.34375 -1.71875,3.3125 -0.578125,1.984375 -0.734375,4.625 h -0.28125 Q 37.5,7.5625 35.8125,5.515625 34.125,3.46875 31.875,2.03125 29.640625,0.59375 26.78125,-0.1875 23.921875,-0.984375 20.21875,-0.984375 Z m 2,6.59375 q 4.203125,0 7.34375,1.53125 3.15625,1.546875 5.21875,3.9375 2.078125,2.40625 3.109375,5.234375 1.03125,2.828125 1.03125,5.421875 v 4.34375 l -9.625,-0.203125 q -3.21875,-0.04687 -6.125,-0.46875 Q 20.265625,25 18.0625,23.78125 15.875,22.5625 14.578125,20.359375 13.28125,18.171875 13.28125,14.59375 q 0,-4.296875 2.3125,-6.640625 2.328125,-2.34375 6.625,-2.34375 z" />
          <path
             id="LiberationSans-110"
             d="m 40.28125,0 v 33.5 q 0,3.859375 -0.5625,6.4375 -0.5625,2.59375 -1.828125,4.171875 -1.265625,1.59375 -3.34375,2.25 -2.078125,0.65625 -5.15625,0.65625 -3.125,0 -5.640625,-1.09375 Q 21.234375,44.828125 19.453125,42.75 17.671875,40.671875 16.6875,37.625 15.71875,34.578125 15.71875,30.609375 V 0 H 6.9375 v 41.546875 q 0,1.671875 -0.03125,3.5 Q 6.890625,46.875 6.828125,48.5 6.78125,50.140625 6.734375,51.3125 6.6875,52.484375 6.640625,52.828125 H 14.9375 q 0.04687,-0.234375 0.09375,-1.3125 0.0625,-1.078125 0.125,-2.46875 0.07813,-1.390625 0.125,-2.828125 0.04687,-1.4375 0.04687,-2.421875 h 0.15625 q 1.265625,2.296875 2.78125,4.15625 1.515625,1.859375 3.515625,3.140625 2,1.296875 4.578125,2 2.59375,0.71875 6.015625,0.71875 4.390625,0 7.5625,-1.078125 3.171875,-1.078125 5.21875,-3.328125 2.0625,-2.234375 3.015625,-5.78125 Q 49.125,40.09375 49.125,35.203125 V 0 Z" />
          <path
             id="LiberationSans-105"
             d="m 6.6875,64.0625 v 8.40625 h 8.796875 V 64.0625 Z M 6.6875,0 v 52.828125 h 8.796875 V 0 Z" />
          <path
             id="LiberationSans-103"
             d="m 26.765625,-20.75 q -4.546875,0 -8.0625,0.9375 -3.515625,0.921875 -6.015625,2.65625 -2.484375,1.71875 -4.046875,4.125 -1.5625,2.390625 -2.25,5.3125 l 8.84375,1.265625 q 0.875,-3.65625 3.875,-5.625 Q 22.125,-14.0625 27,-14.0625 q 2.984375,0 5.421875,0.828125 2.4375,0.828125 4.140625,2.671875 1.71875,1.828125 2.640625,4.765625 0.9375,2.921875 0.9375,7.109375 v 8.5 h -0.09375 Q 39.0625,7.8125 37.625,5.984375 36.1875,4.15625 34.109375,2.734375 32.03125,1.3125 29.296875,0.453125 q -2.734375,-0.84375 -6.25,-0.84375 -5.03125,0 -8.625,1.6875 -3.578125,1.6875 -5.859375,5.046875 -2.265625,3.375 -3.3125,8.375 -1.046875,5.015625 -1.046875,11.59375 0,6.359375 1.046875,11.4375 1.046875,5.078125 3.40625,8.609375 2.375,3.546875 6.15625,5.421875 3.796875,1.875 9.21875,1.875 5.609375,0 9.734375,-2.5625 4.125,-2.5625 6.375,-7.296875 h 0.09375 q 0,1.21875 0.0625,2.734375 0.07813,1.515625 0.15625,2.859375 0.07813,1.34375 0.171875,2.3125 0.09375,0.984375 0.203125,1.125 h 8.34375 q -0.04687,-0.4375 -0.09375,-1.484375 -0.04687,-1.046875 -0.109375,-2.515625 -0.04687,-1.46875 -0.07813,-3.25 -0.01563,-1.78125 -0.01563,-3.6875 v -40.375 q 0,-11.09375 -5.453125,-16.671875 -5.4375,-5.59375 -16.65625,-5.59375 z m 13.375,47.171875 q 0,5.515625 -1.203125,9.4375 -1.1875,3.9375 -3.140625,6.421875 -1.953125,2.5 -4.46875,3.671875 Q 28.8125,47.125 26.171875,47.125 q -3.375,0 -5.796875,-1.171875 -2.40625,-1.171875 -4,-3.6875 Q 14.796875,39.75 14.03125,35.8125 q -0.75,-3.921875 -0.75,-9.390625 0,-5.71875 0.75,-9.609375 0.765625,-3.875 2.328125,-6.265625 1.5625,-2.390625 3.953125,-3.421875 2.390625,-1.015625 5.71875,-1.015625 2.625,0 5.140625,1.109375 2.515625,1.125 4.515625,3.5625 2.015625,2.453125 3.234375,6.3125 1.21875,3.859375 1.21875,9.328125 z" />
          <path
             id="LiberationSans-116"
             d="m 27.046875,0.390625 q -2,-0.53125 -4.078125,-0.84375 Q 20.90625,-0.78125 18.171875,-0.78125 7.625,-0.78125 7.625,11.1875 v 35.25 H 1.515625 v 6.390625 h 6.4375 l 2.59375,11.828125 H 16.40625 V 52.828125 h 9.765625 V 46.4375 H 16.40625 V 13.09375 q 0,-3.8125 1.234375,-5.359375 1.25,-1.53125 4.328125,-1.53125 1.28125,0 2.46875,0.1875 1.203125,0.203125 2.609375,0.5 z" />
          <path
             id="LiberationSans-40"
             d="m 6.203125,25.984375 q 0,6.78125 1.015625,12.984375 1.03125,6.203125 3.21875,11.90625 2.203125,5.71875 5.625,11.078125 3.421875,5.375 8.15625,10.515625 h 8.5 Q 28.125,67.328125 24.78125,61.9375 q -3.34375,-5.390625 -5.5,-11.140625 -2.140625,-5.734375 -3.1875,-11.9375 -1.046875,-6.1875 -1.046875,-12.984375 0,-6.78125 1.046875,-12.984375 1.046875,-6.203125 3.1875,-11.96875 2.15625,-5.75 5.5,-11.125 3.34375,-5.375 7.9375,-10.5 h -8.5 q -4.734375,5.125 -8.15625,10.5 -3.421875,5.375 -5.625,11.078125 Q 8.25,6.59375 7.21875,12.765625 6.203125,18.953125 6.203125,25.78125 Z" />
          <path
             id="LiberationSans-57"
             d="m 50.875,35.796875 q 0,-9.1875 -1.734375,-16.09375 -1.734375,-6.90625 -4.953125,-11.5 -3.21875,-4.59375 -7.84375,-6.890625 -4.609375,-2.296875 -10.359375,-2.296875 -3.96875,0 -7.140625,0.8125 -3.171875,0.8125 -5.671875,2.515625 -2.484375,1.703125 -4.25,4.4375 -1.75,2.734375 -2.8125,6.59375 L 14.5,14.703125 q 1.375,-4.453125 4.28125,-6.53125 2.90625,-2.0625 7.34375,-2.0625 3.5625,0 6.515625,1.671875 2.953125,1.6875 5.03125,5.0625 2.078125,3.375 3.25,8.453125 Q 42.09375,26.375 42.1875,33.203125 41.15625,30.90625 39.375,29.09375 37.59375,27.296875 35.328125,26.046875 33.0625,24.8125 30.421875,24.140625 q -2.640625,-0.65625 -5.328125,-0.65625 -4.6875,0 -8.46875,1.6875 -3.78125,1.6875 -6.421875,4.703125 Q 7.5625,32.90625 6.125,37.171875 4.6875,41.453125 4.6875,46.6875 q 0,5.3125 1.53125,9.609375 1.546875,4.296875 4.46875,7.296875 2.9375,3.015625 7.203125,4.625 4.28125,1.609375 9.703125,1.609375 11.46875,0 17.375,-8.5 5.90625,-8.5 5.90625,-25.53125 z m -9.5625,8.484375 q 0,3.8125 -0.90625,7.171875 -0.90625,3.375 -2.6875,5.859375 -1.78125,2.5 -4.390625,3.9375 -2.609375,1.453125 -6.03125,1.453125 -3.171875,0 -5.71875,-1.125 -2.53125,-1.125 -4.296875,-3.203125 -1.75,-2.078125 -2.703125,-5.0625 Q 13.625,50.34375 13.625,46.6875 q 0,-3.46875 0.84375,-6.453125 0.859375,-2.984375 2.5625,-5.15625 1.71875,-2.171875 4.25,-3.421875 2.546875,-1.234375 5.921875,-1.234375 2.4375,0 4.953125,0.828125 2.515625,0.828125 4.53125,2.53125 2.03125,1.71875 3.328125,4.328125 1.296875,2.609375 1.296875,6.171875 z" />
          <path
             id="LiberationSans-41"
             d="m 27.09375,25.78125 q 0,-6.828125 -1.03125,-13.015625 Q 25.046875,6.59375 22.84375,0.875 q -2.1875,-5.703125 -5.609375,-11.078125 -3.421875,-5.375 -8.15625,-10.5 H 0.59375 q 4.578125,5.125 7.921875,10.5 3.34375,5.375 5.484375,11.125 2.15625,5.765625 3.203125,11.96875 1.0625,6.203125 1.0625,12.984375 0,6.796875 -1.0625,12.984375 Q 16.15625,45.0625 14,50.796875 11.859375,56.546875 8.515625,61.9375 5.171875,67.328125 0.59375,72.46875 H 9.078125 Q 13.8125,67.328125 17.234375,61.953125 20.65625,56.59375 22.84375,50.875 25.046875,45.171875 26.0625,38.96875 27.09375,32.765625 27.09375,25.984375 Z" />
        </defs>
        <g
           id="g500"
           transform="matrix(0.12,0,0,-0.12,163.57781,41.52)"
           style="fill:#262626">
          <use
             height="100%"
             width="100%"
             y="0"
             x="0"
             id="use410"
             xlink:href="#LiberationSans-53" />
          <use
             height="100%"
             width="100%"
             y="0"
             id="use412"
             xlink:href="#LiberationSans-48"
             x="55.615234" />
          <use
             height="100%"
             width="100%"
             y="0"
             id="use414"
             xlink:href="#LiberationSans-32"
             x="111.23047" />
          <use
             height="100%"
             width="100%"
             y="0"
             id="use416"
             xlink:href="#LiberationSans-84"
             x="137.26367" />
          <use
             height="100%"
             width="100%"
             y="0"
             id="use418"
             xlink:href="#LiberationSans-111"
             x="187.22266" />
          <use
             height="100%"
             width="100%"
             y="0"
             id="use420"
             xlink:href="#LiberationSans-112"
             x="242.83789" />
          <use
             height="100%"
             width="100%"
             y="0"
             id="use422"
             xlink:href="#LiberationSans-32"
             x="298.45312" />
          <use
             height="100%"
             width="100%"
             y="0"
             id="use424"
             xlink:href="#LiberationSans-69"
             x="326.23633" />
          <use
             height="100%"
             width="100%"
             y="0"
             id="use426"
             xlink:href="#LiberationSans-97"
             x="392.93555" />
          <use
             height="100%"
             width="100%"
             y="0"
             id="use428"
             xlink:href="#LiberationSans-114"
             x="448.55078" />
          <use
             height="100%"
             width="100%"
             y="0"
             id="use430"
             xlink:href="#LiberationSans-110"
             x="481.85156" />
          <use
             height="100%"
             width="100%"
             y="0"
             id="use432"
             xlink:href="#LiberationSans-105"
             x="537.4668" />
          <use
             height="100%"
             width="100%"
             y="0"
             id="use434"
             xlink:href="#LiberationSans-110"
             x="559.68359" />
          <use
             height="100%"
             width="100%"
             y="0"
             id="use436"
             xlink:href="#LiberationSans-103"
             x="615.29883" />
          <use
             height="100%"
             width="100%"
             y="0"
             id="use438"
             xlink:href="#LiberationSans-32"
             x="670.91406" />
          <use
             height="100%"
             width="100%"
             y="0"
             id="use440"
             xlink:href="#LiberationSans-69"
             x="698.69727" />
          <use
             height="100%"
             width="100%"
             y="0"
             id="use442"
             xlink:href="#LiberationSans-109"
             x="765.39648" />
          <use
             height="100%"
             width="100%"
             y="0"
             id="use444"
             xlink:href="#LiberationSans-112"
             x="848.69727" />
          <use
             height="100%"
             width="100%"
             y="0"
             id="use446"
             xlink:href="#LiberationSans-108"
             x="904.3125" />
          <use
             height="100%"
             width="100%"
             y="0"
             id="use448"
             xlink:href="#LiberationSans-111"
             x="926.5293" />
          <use
             height="100%"
             width="100%"
             y="0"
             id="use450"
             xlink:href="#LiberationSans-121"
             x="982.14453" />
          <use
             height="100%"
             width="100%"
             y="0"
             id="use452"
             xlink:href="#LiberationSans-101"
             x="1032.1445" />
          <use
             height="100%"
             width="100%"
             y="0"
             id="use454"
             xlink:href="#LiberationSans-101"
             x="1087.7598" />
          <use
             height="100%"
             width="100%"
             y="0"
             id="use456"
             xlink:href="#LiberationSans-115"
             x="1143.375" />
          <use
             height="100%"
             width="100%"
             y="0"
             id="use458"
             xlink:href="#LiberationSans-32"
             x="1193.375" />
          <use
             height="100%"
             width="100%"
             y="0"
             id="use460"
             xlink:href="#LiberationSans-98"
             x="1221.1582" />
          <use
             height="100%"
             width="100%"
             y="0"
             id="use462"
             xlink:href="#LiberationSans-121"
             x="1276.7734" />
          <use
             height="100%"
             width="100%"
             y="0"
             id="use464"
             xlink:href="#LiberationSans-32"
             x="1326.7734" />
          <use
             height="100%"
             width="100%"
             y="0"
             id="use466"
             xlink:href="#LiberationSans-68"
             x="1354.5566" />
          <use
             height="100%"
             width="100%"
             y="0"
             id="use468"
             xlink:href="#LiberationSans-101"
             x="1426.7734" />
          <use
             height="100%"
             width="100%"
             y="0"
             id="use470"
             xlink:href="#LiberationSans-112"
             x="1482.3887" />
          <use
             height="100%"
             width="100%"
             y="0"
             id="use472"
             xlink:href="#LiberationSans-97"
             x="1538.0039" />
          <use
             height="100%"
             width="100%"
             y="0"
             id="use474"
             xlink:href="#LiberationSans-114"
             x="1593.6191" />
          <use
             height="100%"
             width="100%"
             y="0"
             id="use476"
             xlink:href="#LiberationSans-116"
             x="1626.9199" />
          <use
             height="100%"
             width="100%"
             y="0"
             id="use478"
             xlink:href="#LiberationSans-109"
             x="1654.7031" />
          <use
             height="100%"
             width="100%"
             y="0"
             id="use480"
             xlink:href="#LiberationSans-101"
             x="1738.0039" />
          <use
             height="100%"
             width="100%"
             y="0"
             id="use482"
             xlink:href="#LiberationSans-110"
             x="1793.6191" />
          <use
             height="100%"
             width="100%"
             y="0"
             id="use484"
             xlink:href="#LiberationSans-116"
             x="1849.2344" />
          <use
             height="100%"
             width="100%"
             y="0"
             id="use486"
             xlink:href="#LiberationSans-32"
             x="1877.0176" />
          <use
             height="100%"
             width="100%"
             y="0"
             id="use488"
             xlink:href="#LiberationSans-40"
             x="1904.8008" />
          <use
             height="100%"
             width="100%"
             y="0"
             id="use490"
             xlink:href="#LiberationSans-50"
             x="1938.1016" />
          <use
             height="100%"
             width="100%"
             y="0"
             id="use492"
             xlink:href="#LiberationSans-48"
             x="1993.7168" />
          <use
             height="100%"
             width="100%"
             y="0"
             id="use494"
             xlink:href="#LiberationSans-49"
             x="2049.332" />
          <use
             height="100%"
             width="100%"
             y="0"
             id="use496"
             xlink:href="#LiberationSans-57"
             x="2104.9473" />
          <use
             height="100%"
             width="100%"
             y="0"
             id="use498"
             xlink:href="#LiberationSans-41"
             x="2160.5625" />
        </g>
      </g>
    </g>
  </g>
  <defs
     id="defs508">
    <clipPath
       id="p57a72a5f67">
      <rect
         id="rect505"
         y="47.52"
         x="72"
         width="446.39999"
         height="298.98001" />
    </clipPath>
  </defs>
</svg>
