<?xml version="1.0" encoding="UTF-8" standalone="no"?>
<svg
   xmlns:dc="http://purl.org/dc/elements/1.1/"
   xmlns:cc="http://creativecommons.org/ns#"
   xmlns:rdf="http://www.w3.org/1999/02/22-rdf-syntax-ns#"
   xmlns:svg="http://www.w3.org/2000/svg"
   xmlns="http://www.w3.org/2000/svg"
   xmlns:xlink="http://www.w3.org/1999/xlink"
   xmlns:sodipodi="http://sodipodi.sourceforge.net/DTD/sodipodi-0.dtd"
   xmlns:inkscape="http://www.inkscape.org/namespaces/inkscape"
   inkscape:version="1.0 (6e3e5246a0, 2020-05-07)"
   sodipodi:docname="xdepts19.svg"
   id="svg659"
   width="634.62164pt"
   viewBox="0 0 634.62164 396"
   version="1.1"
   height="396pt">
  <metadata
     id="metadata663">
    <rdf:RDF>
      <cc:Work
         rdf:about="">
        <dc:format>image/svg+xml</dc:format>
        <dc:type
           rdf:resource="http://purl.org/dc/dcmitype/StillImage" />
      </cc:Work>
    </rdf:RDF>
  </metadata>
  <sodipodi:namedview
     inkscape:current-layer="svg659"
     inkscape:window-maximized="1"
     inkscape:window-y="0"
     inkscape:window-x="0"
     inkscape:cy="266.41753"
     inkscape:cx="404.44003"
     inkscape:zoom="1.532197"
     showgrid="false"
     id="namedview661"
     inkscape:window-height="1136"
     inkscape:window-width="1920"
     inkscape:pageshadow="2"
     inkscape:pageopacity="0"
     guidetolerance="10"
     gridtolerance="10"
     objecttolerance="10"
     borderopacity="1"
     bordercolor="#666666"
     pagecolor="#ffffff" />
  <defs
     id="defs4">
    <style
       id="style2"
       type="text/css">
*{stroke-linecap:butt;stroke-linejoin:round;}
  </style>
    <defs
       id="defs449">
      <path
         d="m 61.421875,19.390625 q 0,-5.234375 -2.046875,-8.921875 -2.046875,-3.6875 -5.515625,-6 -3.46875,-2.3125 -8.0625,-3.390625 Q 41.21875,0 36.140625,0 h -27.9375 v 68.796875 h 25 q 5.71875,0 10.203125,-0.953125 4.5,-0.953125 7.625,-3 3.125,-2.046875 4.75,-5.203125 1.640625,-3.140625 1.640625,-7.546875 0,-2.875 -0.8125,-5.421875 -0.796875,-2.53125 -2.4375,-4.609375 -1.625,-2.078125 -4.09375,-3.5625 -2.46875,-1.484375 -5.734375,-2.21875 4.140625,-0.484375 7.34375,-1.90625 3.203125,-1.421875 5.34375,-3.625 2.15625,-2.1875 3.265625,-5.09375 1.125,-2.90625 1.125,-6.265625 z m -13.375,31.59375 q 0,5.5625 -3.8125,7.953125 -3.796875,2.390625 -11.03125,2.390625 H 17.53125 v -21.78125 h 15.671875 q 4.109375,0 6.9375,0.796875 2.828125,0.8125 4.578125,2.296875 1.765625,1.5 2.546875,3.59375 0.78125,2.109375 0.78125,4.75 z M 52,20.125 q 0,3.265625 -1.203125,5.5625 -1.1875,2.296875 -3.4375,3.75 -2.234375,1.46875 -5.390625,2.15625 -3.15625,0.6875 -7.0625,0.6875 h -17.375 V 7.46875 h 18.109375 q 3.5625,0 6.5625,0.578125 3.015625,0.59375 5.1875,2.0625 2.171875,1.46875 3.390625,3.90625 Q 52,16.453125 52,20.125 Z"
         id="LiberationSans-66" />
      <path
         d="m 39.84375,0 -17.875,24.125 -6.4375,-5.328125 V 0 H 6.734375 V 72.46875 H 15.53125 V 27.203125 l 23.1875,25.625 h 10.3125 L 27.59375,30.125 50.140625,0 Z"
         id="LiberationSans-107" />
      <path
         d="M 40.09375,8.5 Q 37.640625,3.421875 33.609375,1.21875 29.59375,-0.984375 23.640625,-0.984375 13.625,-0.984375 8.90625,5.75 4.203125,12.5 4.203125,26.171875 q 0,27.640625 19.4375,27.640625 6,0 10,-2.203125 4,-2.1875 6.453125,-6.984375 h 0.09375 q 0,0.5 -0.03125,1.546875 -0.01563,1.046875 -0.04687,2.1875 -0.01563,1.15625 -0.01563,2.171875 0,1.03125 0,1.46875 V 72.46875 H 48.875 V 10.890625 q 0,-1.90625 0.01563,-3.671875 Q 48.921875,5.46875 48.96875,4 49.03125,2.546875 49.078125,1.484375 49.125,0.4375 49.171875,0 h -8.40625 Q 40.671875,0.484375 40.59375,1.390625 40.53125,2.296875 40.453125,3.46875 40.375,4.640625 40.328125,5.9375 40.28125,7.234375 40.28125,8.5 Z M 13.421875,26.46875 q 0,-5.46875 0.6875,-9.375 0.6875,-3.90625 2.203125,-6.421875 1.515625,-2.515625 3.859375,-3.6875 Q 22.515625,5.8125 25.875,5.8125 q 3.46875,0 6.125,1.125 2.671875,1.125 4.453125,3.640625 1.78125,2.515625 2.703125,6.5625 0.9375,4.046875 0.9375,9.90625 0,5.625 -0.9375,9.5 -0.921875,3.890625 -2.734375,6.28125 Q 34.625,45.21875 32,46.265625 29.390625,47.3125 25.984375,47.3125 22.75,47.3125 20.40625,46.1875 18.0625,45.0625 16.5,42.578125 q -1.5625,-2.484375 -2.328125,-6.46875 -0.75,-3.984375 -0.75,-9.640625 z"
         id="LiberationSans-100" />
      <path
         d="M 57.328125,0 H 47.125 l -8.453125,34.078125 q -0.390625,1.328125 -0.8125,3.28125 Q 37.453125,39.3125 37.0625,41.15625 36.578125,43.3125 36.140625,45.609375 35.6875,43.40625 35.203125,41.265625 34.8125,39.40625 34.34375,37.40625 33.890625,35.40625 33.5,33.890625 L 24.8125,0 H 14.65625 L -0.140625,52.828125 h 8.6875 l 8.9375,-35.890625 q 0.34375,-1.109375 0.671875,-2.75 Q 18.5,12.546875 18.84375,10.984375 19.1875,9.1875 19.578125,7.28125 19.96875,9.125 20.40625,10.890625 q 0.390625,1.515625 0.78125,3.078125 0.390625,1.5625 0.6875,2.578125 l 9.578125,36.28125 H 40.875 l 9.21875,-36.28125 q 0.34375,-1.265625 0.734375,-2.875 0.390625,-1.609375 0.734375,-3.03125 0.390625,-1.65625 0.78125,-3.359375 0.390625,1.84375 0.78125,3.609375 0.34375,1.515625 0.703125,3.140625 0.375,1.640625 0.71875,2.90625 L 63.875,52.828125 h 8.59375 z"
         id="LiberationSans-119" />
      <path
         d="m 6.203125,25.984375 q 0,6.78125 1.015625,12.984375 1.03125,6.203125 3.21875,11.90625 2.203125,5.71875 5.625,11.078125 3.421875,5.375 8.15625,10.515625 h 8.5 Q 28.125,67.328125 24.78125,61.9375 q -3.34375,-5.390625 -5.5,-11.140625 -2.140625,-5.734375 -3.1875,-11.9375 -1.046875,-6.1875 -1.046875,-12.984375 0,-6.78125 1.046875,-12.984375 1.046875,-6.203125 3.1875,-11.96875 2.15625,-5.75 5.5,-11.125 3.34375,-5.375 7.9375,-10.5 h -8.5 q -4.734375,5.125 -8.15625,10.5 -3.421875,5.375 -5.625,11.078125 Q 8.25,6.59375 7.21875,12.765625 6.203125,18.953125 6.203125,25.78125 Z"
         id="LiberationSans-40" />
      <path
         d="m 50.875,35.796875 q 0,-9.1875 -1.734375,-16.09375 -1.734375,-6.90625 -4.953125,-11.5 -3.21875,-4.59375 -7.84375,-6.890625 -4.609375,-2.296875 -10.359375,-2.296875 -3.96875,0 -7.140625,0.8125 -3.171875,0.8125 -5.671875,2.515625 -2.484375,1.703125 -4.25,4.4375 -1.75,2.734375 -2.8125,6.59375 L 14.5,14.703125 q 1.375,-4.453125 4.28125,-6.53125 2.90625,-2.0625 7.34375,-2.0625 3.5625,0 6.515625,1.671875 2.953125,1.6875 5.03125,5.0625 2.078125,3.375 3.25,8.453125 Q 42.09375,26.375 42.1875,33.203125 41.15625,30.90625 39.375,29.09375 37.59375,27.296875 35.328125,26.046875 33.0625,24.8125 30.421875,24.140625 q -2.640625,-0.65625 -5.328125,-0.65625 -4.6875,0 -8.46875,1.6875 -3.78125,1.6875 -6.421875,4.703125 Q 7.5625,32.90625 6.125,37.171875 4.6875,41.453125 4.6875,46.6875 q 0,5.3125 1.53125,9.609375 1.546875,4.296875 4.46875,7.296875 2.9375,3.015625 7.203125,4.625 4.28125,1.609375 9.703125,1.609375 11.46875,0 17.375,-8.5 5.90625,-8.5 5.90625,-25.53125 z m -9.5625,8.484375 q 0,3.8125 -0.90625,7.171875 -0.90625,3.375 -2.6875,5.859375 -1.78125,2.5 -4.390625,3.9375 -2.609375,1.453125 -6.03125,1.453125 -3.171875,0 -5.71875,-1.125 -2.53125,-1.125 -4.296875,-3.203125 -1.75,-2.078125 -2.703125,-5.0625 Q 13.625,50.34375 13.625,46.6875 q 0,-3.46875 0.84375,-6.453125 0.859375,-2.984375 2.5625,-5.15625 1.71875,-2.171875 4.25,-3.421875 2.546875,-1.234375 5.921875,-1.234375 2.4375,0 4.953125,0.828125 2.515625,0.828125 4.53125,2.53125 2.03125,1.71875 3.328125,4.328125 1.296875,2.609375 1.296875,6.171875 z"
         id="LiberationSans-57" />
      <path
         d="m 27.09375,25.78125 q 0,-6.828125 -1.03125,-13.015625 Q 25.046875,6.59375 22.84375,0.875 q -2.1875,-5.703125 -5.609375,-11.078125 -3.421875,-5.375 -8.15625,-10.5 H 0.59375 q 4.578125,5.125 7.921875,10.5 3.34375,5.375 5.484375,11.125 2.15625,5.765625 3.203125,11.96875 1.0625,6.203125 1.0625,12.984375 0,6.796875 -1.0625,12.984375 Q 16.15625,45.0625 14,50.796875 11.859375,56.546875 8.515625,61.9375 5.171875,67.328125 0.59375,72.46875 H 9.078125 Q 13.8125,67.328125 17.234375,61.953125 20.65625,56.59375 22.84375,50.875 25.046875,45.171875 26.0625,38.96875 27.09375,32.765625 27.09375,25.984375 Z"
         id="LiberationSans-41" />
    </defs>
    <defs
       id="defs132">
      <path
         id="LiberationSans-70"
         d="M 17.53125,61.1875 V 35.59375 h 38.375 V 27.875 h -38.375 V 0 H 8.203125 v 68.796875 h 48.875 V 61.1875 Z" />
      <path
         id="LiberationSans-114"
         d="m 6.9375,0 v 40.53125 q 0,1.65625 -0.03125,3.390625 Q 6.890625,45.65625 6.828125,47.265625 6.78125,48.875 6.734375,50.28125 6.6875,51.703125 6.640625,52.828125 H 14.9375 q 0.04687,-1.125 0.125,-2.5625 0.07813,-1.4375 0.140625,-2.953125 0.07813,-1.515625 0.09375,-2.90625 0.03125,-1.390625 0.03125,-2.359375 H 15.53125 Q 16.453125,45.0625 17.5,47.28125 q 1.0625,2.234375 2.46875,3.671875 1.421875,1.4375 3.375,2.140625 1.953125,0.71875 4.734375,0.71875 1.078125,0 2.046875,-0.171875 0.984375,-0.171875 1.515625,-0.3125 v -8.0625 q -0.875,0.25 -2.046875,0.359375 -1.171875,0.125 -2.640625,0.125 -3.03125,0 -5.15625,-1.375 -2.125,-1.359375 -3.46875,-3.78125 Q 17,38.1875 16.359375,34.84375 15.71875,31.5 15.71875,27.546875 V 0 Z" />
      <path
         id="LiberationSans-97"
         d="m 20.21875,-0.984375 q -7.96875,0 -11.96875,4.203125 -4,4.203125 -4,11.53125 0,5.21875 1.96875,8.5625 1.984375,3.34375 5.171875,5.25 3.203125,1.90625 7.296875,2.640625 4.109375,0.734375 8.359375,0.828125 l 11.875,0.203125 v 2.875 q 0,3.265625 -0.6875,5.5625 -0.6875,2.296875 -2.109375,3.703125 -1.40625,1.421875 -3.53125,2.078125 -2.125,0.671875 -5,0.671875 -2.546875,0 -4.59375,-0.375 -2.046875,-0.359375 -3.5625,-1.3125 -1.515625,-0.953125 -2.453125,-2.59375 -0.921875,-1.625 -1.21875,-4.125 L 6.59375,39.546875 q 0.484375,3.125 1.84375,5.734375 1.375,2.625 3.890625,4.515625 2.515625,1.90625 6.296875,2.953125 3.78125,1.0625 9.15625,1.0625 9.96875,0 14.984375,-4.578125 5.03125,-4.5625 5.03125,-13.203125 v -22.75 q 0,-3.90625 1.03125,-5.890625 1.03125,-1.96875 3.90625,-1.96875 0.734375,0 1.46875,0.09375 0.734375,0.09375 1.40625,0.25 V 0.296875 Q 53.953125,-0.09375 52.3125,-0.28125 q -1.625,-0.203125 -3.484375,-0.203125 -2.484375,0 -4.265625,0.65625 -1.78125,0.65625 -2.90625,2 -1.125,1.34375 -1.71875,3.3125 -0.578125,1.984375 -0.734375,4.625 h -0.28125 Q 37.5,7.5625 35.8125,5.515625 34.125,3.46875 31.875,2.03125 29.640625,0.59375 26.78125,-0.1875 23.921875,-0.984375 20.21875,-0.984375 Z m 2,6.59375 q 4.203125,0 7.34375,1.53125 3.15625,1.546875 5.21875,3.9375 2.078125,2.40625 3.109375,5.234375 1.03125,2.828125 1.03125,5.421875 v 4.34375 l -9.625,-0.203125 q -3.21875,-0.04687 -6.125,-0.46875 Q 20.265625,25 18.0625,23.78125 15.875,22.5625 14.578125,20.359375 13.28125,18.171875 13.28125,14.59375 q 0,-4.296875 2.3125,-6.640625 2.328125,-2.34375 6.625,-2.34375 z" />
      <path
         id="LiberationSans-99"
         d="m 13.421875,26.65625 q 0,-4.53125 0.65625,-8.34375 Q 14.75,14.5 16.3125,11.734375 17.875,8.984375 20.4375,7.46875 23,5.953125 26.765625,5.953125 q 4.6875,0 7.828125,2.53125 3.15625,2.546875 3.890625,7.828125 l 8.875,-0.59375 Q 46.921875,12.453125 45.453125,9.421875 44,6.390625 41.484375,4.09375 38.96875,1.8125 35.34375,0.40625 31.734375,-0.984375 27,-0.984375 q -6.203125,0 -10.546875,2.09375 Q 12.109375,3.21875 9.390625,6.90625 6.6875,10.59375 5.46875,15.59375 4.25,20.609375 4.25,26.46875 q 0,5.3125 0.875,9.390625 0.875,4.078125 2.46875,7.125 1.59375,3.0625 3.734375,5.140625 2.15625,2.078125 4.65625,3.3125 2.515625,1.25 5.296875,1.8125 2.796875,0.5625 5.625,0.5625 4.4375,0 7.90625,-1.21875 Q 38.28125,51.375 40.796875,49.25 43.3125,47.125 44.875,44.234375 q 1.5625,-2.875 2.203125,-6.203125 L 38.03125,37.359375 q -0.671875,4.390625 -3.46875,6.96875 -2.78125,2.59375 -7.90625,2.59375 -3.75,0 -6.265625,-1.25 Q 17.875,44.4375 16.3125,41.921875 14.75,39.40625 14.078125,35.59375 q -0.65625,-3.8125 -0.65625,-8.9375 z" />
      <path
         id="LiberationSans-116"
         d="m 27.046875,0.390625 q -2,-0.53125 -4.078125,-0.84375 Q 20.90625,-0.78125 18.171875,-0.78125 7.625,-0.78125 7.625,11.1875 v 35.25 H 1.515625 v 6.390625 h 6.4375 l 2.59375,11.828125 H 16.40625 V 52.828125 h 9.765625 V 46.4375 H 16.40625 V 13.09375 q 0,-3.8125 1.234375,-5.359375 1.25,-1.53125 4.328125,-1.53125 1.28125,0 2.46875,0.1875 1.203125,0.203125 2.609375,0.5 z" />
      <path
         id="LiberationSans-105"
         d="m 6.6875,64.0625 v 8.40625 h 8.796875 V 64.0625 Z M 6.6875,0 v 52.828125 h 8.796875 V 0 Z" />
      <path
         id="LiberationSans-111"
         d="m 51.421875,26.46875 q 0,-13.875 -6.109375,-20.671875 -6.109375,-6.78125 -17.71875,-6.78125 -5.515625,0 -9.875,1.65625 -4.34375,1.671875 -7.34375,5.09375 -3,3.421875 -4.59375,8.5625 -1.578125,5.15625 -1.578125,12.140625 0,27.34375 23.671875,27.34375 6.15625,0 10.625,-1.71875 4.46875,-1.703125 7.328125,-5.125 2.859375,-3.40625 4.21875,-8.546875 1.375,-5.125 1.375,-11.953125 z m -9.234375,0 q 0,6.15625 -0.953125,10.15625 -0.953125,4 -2.78125,6.390625 -1.828125,2.390625 -4.46875,3.34375 -2.640625,0.953125 -5.953125,0.953125 -3.375,0 -6.09375,-1 -2.703125,-1 -4.609375,-3.421875 -1.890625,-2.40625 -2.90625,-6.421875 -1,-4 -1,-10 0,-6.15625 1.078125,-10.1875 1.078125,-4.03125 2.953125,-6.421875 1.890625,-2.390625 4.453125,-3.375 2.5625,-0.96875 5.578125,-0.96875 3.375,0 6.109375,0.953125 2.734375,0.953125 4.640625,3.34375 1.90625,2.390625 2.921875,6.4375 1.03125,4.0625 1.03125,10.21875 z" />
      <path
         id="LiberationSans-110"
         d="m 40.28125,0 v 33.5 q 0,3.859375 -0.5625,6.4375 -0.5625,2.59375 -1.828125,4.171875 -1.265625,1.59375 -3.34375,2.25 -2.078125,0.65625 -5.15625,0.65625 -3.125,0 -5.640625,-1.09375 Q 21.234375,44.828125 19.453125,42.75 17.671875,40.671875 16.6875,37.625 15.71875,34.578125 15.71875,30.609375 V 0 H 6.9375 v 41.546875 q 0,1.671875 -0.03125,3.5 Q 6.890625,46.875 6.828125,48.5 6.78125,50.140625 6.734375,51.3125 6.6875,52.484375 6.640625,52.828125 H 14.9375 q 0.04687,-0.234375 0.09375,-1.3125 0.0625,-1.078125 0.125,-2.46875 0.07813,-1.390625 0.125,-2.828125 0.04687,-1.4375 0.04687,-2.421875 h 0.15625 q 1.265625,2.296875 2.78125,4.15625 1.515625,1.859375 3.515625,3.140625 2,1.296875 4.578125,2 2.59375,0.71875 6.015625,0.71875 4.390625,0 7.5625,-1.078125 3.171875,-1.078125 5.21875,-3.328125 2.0625,-2.234375 3.015625,-5.78125 Q 49.125,40.09375 49.125,35.203125 V 0 Z" />
      <path
         d=""
         id="LiberationSans-32" />
      <path
         id="LiberationSans-102"
         d="M 17.625,46.4375 V 0 H 8.84375 V 46.4375 H 1.421875 v 6.390625 H 8.84375 v 5.96875 q 0,2.875 0.53125,5.34375 0.53125,2.46875 1.96875,4.296875 1.453125,1.828125 3.9375,2.875 2.5,1.046875 6.453125,1.046875 1.5625,0 3.234375,-0.140625 1.6875,-0.140625 2.96875,-0.4375 v -6.6875 Q 27.09375,65.234375 26,65.359375 q -1.09375,0.125 -1.96875,0.125 -1.953125,0 -3.203125,-0.546875 -1.25,-0.53125 -1.953125,-1.53125 -0.703125,-1 -0.984375,-2.46875 Q 17.625,59.46875 17.625,57.5625 V 52.828125 H 27.9375 V 46.4375 Z" />
      <path
         id="LiberationSans-108"
         d="M 6.734375,0 V 72.46875 H 15.53125 V 0 Z" />
      <path
         id="LiberationSans-101"
         d="m 13.484375,24.5625 q 0,-4.15625 0.84375,-7.65625 0.859375,-3.484375 2.640625,-6 1.78125,-2.5 4.5625,-3.90625 2.78125,-1.390625 6.6875,-1.390625 5.71875,0 9.15625,2.296875 3.453125,2.296875 4.671875,5.8125 L 49.75,11.53125 Q 48.921875,9.328125 47.4375,7.109375 45.953125,4.890625 43.453125,3.09375 40.96875,1.3125 37.234375,0.15625 33.5,-0.984375 28.21875,-0.984375 16.5,-0.984375 10.375,6 4.25,12.984375 4.25,26.765625 q 0,7.421875 1.84375,12.5625 1.859375,5.15625 5.078125,8.375 3.234375,3.21875 7.53125,4.65625 Q 23,53.8125 27.875,53.8125 q 6.640625,0 11.109375,-2.15625 4.46875,-2.140625 7.171875,-5.9375 2.71875,-3.78125 3.859375,-8.90625 1.15625,-5.125 1.15625,-11.078125 V 24.5625 Z m 28.609375,6.734375 q -0.734375,8.359375 -4.25,12.1875 -3.515625,3.828125 -10.109375,3.828125 -2.203125,0 -4.625,-0.703125 -2.40625,-0.703125 -4.453125,-2.515625 -2.046875,-1.8125 -3.46875,-4.921875 -1.421875,-3.09375 -1.609375,-7.875 z" />
      <path
         id="LiberationSans-103"
         d="m 26.765625,-20.75 q -4.546875,0 -8.0625,0.9375 -3.515625,0.921875 -6.015625,2.65625 -2.484375,1.71875 -4.046875,4.125 -1.5625,2.390625 -2.25,5.3125 l 8.84375,1.265625 q 0.875,-3.65625 3.875,-5.625 Q 22.125,-14.0625 27,-14.0625 q 2.984375,0 5.421875,0.828125 2.4375,0.828125 4.140625,2.671875 1.71875,1.828125 2.640625,4.765625 0.9375,2.921875 0.9375,7.109375 v 8.5 h -0.09375 Q 39.0625,7.8125 37.625,5.984375 36.1875,4.15625 34.109375,2.734375 32.03125,1.3125 29.296875,0.453125 q -2.734375,-0.84375 -6.25,-0.84375 -5.03125,0 -8.625,1.6875 -3.578125,1.6875 -5.859375,5.046875 -2.265625,3.375 -3.3125,8.375 -1.046875,5.015625 -1.046875,11.59375 0,6.359375 1.046875,11.4375 1.046875,5.078125 3.40625,8.609375 2.375,3.546875 6.15625,5.421875 3.796875,1.875 9.21875,1.875 5.609375,0 9.734375,-2.5625 4.125,-2.5625 6.375,-7.296875 h 0.09375 q 0,1.21875 0.0625,2.734375 0.07813,1.515625 0.15625,2.859375 0.07813,1.34375 0.171875,2.3125 0.09375,0.984375 0.203125,1.125 h 8.34375 q -0.04687,-0.4375 -0.09375,-1.484375 -0.04687,-1.046875 -0.109375,-2.515625 -0.04687,-1.46875 -0.07813,-3.25 -0.01563,-1.78125 -0.01563,-3.6875 v -40.375 q 0,-11.09375 -5.453125,-16.671875 -5.4375,-5.59375 -16.65625,-5.59375 z m 13.375,47.171875 q 0,5.515625 -1.203125,9.4375 -1.1875,3.9375 -3.140625,6.421875 -1.953125,2.5 -4.46875,3.671875 Q 28.8125,47.125 26.171875,47.125 q -3.375,0 -5.796875,-1.171875 -2.40625,-1.171875 -4,-3.6875 Q 14.796875,39.75 14.03125,35.8125 q -0.75,-3.921875 -0.75,-9.390625 0,-5.71875 0.75,-9.609375 0.765625,-3.875 2.328125,-6.265625 1.5625,-2.390625 3.953125,-3.421875 2.390625,-1.015625 5.71875,-1.015625 2.625,0 5.140625,1.109375 2.515625,1.125 4.515625,3.5625 2.015625,2.453125 3.234375,6.3125 1.21875,3.859375 1.21875,9.328125 z" />
      <path
         id="LiberationSans-115"
         d="m 46.390625,14.59375 q 0,-3.703125 -1.453125,-6.609375 Q 43.5,5.078125 40.765625,3.09375 38.03125,1.125 34.046875,0.0625 q -3.96875,-1.046875 -9.09375,-1.046875 -4.59375,0 -8.28125,0.71875 Q 12.984375,0.4375 10.203125,2 7.421875,3.5625 5.53125,6.125 q -1.875,2.5625 -2.75,6.28125 l 7.765625,1.515625 q 1.125,-4.25 4.640625,-6.234375 3.515625,-1.96875 9.765625,-1.96875 2.828125,0 5.1875,0.390625 2.375,0.390625 4.078125,1.34375 1.71875,0.953125 2.671875,2.53125 0.953125,1.59375 0.953125,3.9375 0,2.390625 -1.125,3.921875 -1.125,1.546875 -3.125,2.5625 -2,1.03125 -4.859375,1.78125 -2.859375,0.765625 -6.265625,1.6875 -3.1875,0.828125 -6.3125,1.859375 -3.125,1.03125 -5.640625,2.703125 -2.5,1.6875 -4.0625,4.171875 -1.5625,2.5 -1.5625,6.265625 0,7.21875 5.140625,11 5.15625,3.78125 15.015625,3.78125 8.75,0 13.890625,-3.078125 5.15625,-3.0625 6.515625,-9.859375 L 37.546875,39.75 q -0.4375,2.046875 -1.609375,3.4375 -1.171875,1.390625 -2.828125,2.25 -1.65625,0.859375 -3.734375,1.21875 -2.078125,0.359375 -4.328125,0.359375 -5.953125,0 -8.796875,-1.8125 Q 13.421875,43.40625 13.421875,39.75 q 0,-2.15625 1.046875,-3.546875 1.0625,-1.390625 2.9375,-2.34375 1.875,-0.953125 4.515625,-1.65625 2.640625,-0.703125 5.8125,-1.484375 2.09375,-0.546875 4.296875,-1.15625 2.203125,-0.609375 4.265625,-1.46875 2.078125,-0.84375 3.90625,-2 1.84375,-1.140625 3.203125,-2.75 1.375,-1.609375 2.171875,-3.765625 0.8125,-2.140625 0.8125,-4.984375 z" />
      <path
         id="LiberationSans-109"
         d="m 37.5,0 v 33.5 q 0,3.859375 -0.484375,6.4375 -0.484375,2.59375 -1.640625,4.171875 -1.140625,1.59375 -3,2.25 -1.859375,0.65625 -4.546875,0.65625 -2.78125,0 -5.03125,-1.09375 Q 20.5625,44.828125 18.96875,42.75 17.390625,40.671875 16.53125,37.625 15.671875,34.578125 15.671875,30.609375 V 0 H 6.9375 v 41.546875 q 0,1.671875 -0.03125,3.5 Q 6.890625,46.875 6.828125,48.5 6.78125,50.140625 6.734375,51.3125 6.6875,52.484375 6.640625,52.828125 H 14.9375 q 0.04687,-0.234375 0.09375,-1.3125 0.0625,-1.078125 0.125,-2.46875 0.07813,-1.390625 0.125,-2.828125 0.04687,-1.4375 0.04687,-2.421875 h 0.15625 q 1.171875,2.296875 2.53125,4.15625 1.375,1.859375 3.203125,3.140625 1.828125,1.296875 4.1875,2 2.375,0.71875 5.5,0.71875 6.015625,0 9.5,-2.390625 3.484375,-2.390625 4.859375,-7.625 h 0.140625 q 1.171875,2.296875 2.640625,4.15625 1.46875,1.859375 3.421875,3.140625 1.953125,1.296875 4.390625,2 2.4375,0.71875 5.5625,0.71875 4.015625,0 6.90625,-1.078125 2.90625,-1.078125 4.765625,-3.328125 1.859375,-2.234375 2.734375,-5.78125 0.875,-3.53125 0.875,-8.421875 V 0 h -8.6875 v 33.5 q 0,3.859375 -0.484375,6.4375 -0.484375,2.59375 -1.640625,4.171875 -1.140625,1.59375 -3,2.25 -1.859375,0.65625 -4.546875,0.65625 -2.78125,0 -5.03125,-1.046875 Q 51.078125,44.921875 49.484375,42.875 47.90625,40.828125 47.046875,37.75 46.1875,34.671875 46.1875,30.609375 V 0 Z" />
      <path
         id="LiberationSans-112"
         d="m 51.421875,26.65625 q 0,-6 -0.984375,-11.078125 -0.96875,-5.078125 -3.25,-8.75 -2.265625,-3.65625 -6,-5.734375 -3.734375,-2.078125 -9.203125,-2.078125 -5.671875,0 -9.921875,2.15625 -4.234375,2.15625 -6.484375,7.03125 h -0.25 Q 15.375,8.109375 15.40625,7.328125 15.4375,6.546875 15.453125,5.375 15.484375,4.203125 15.5,2.75 15.53125,1.3125 15.53125,-0.09375 V -20.75 H 6.734375 v 62.796875 q 0,1.90625 -0.03125,3.65625 Q 6.6875,47.46875 6.640625,48.90625 6.59375,50.34375 6.546875,51.359375 6.5,52.390625 6.453125,52.828125 H 14.9375 q 0.04687,-0.140625 0.125,-1.03125 0.07813,-0.875 0.140625,-2.125 0.07813,-1.234375 0.15625,-2.65625 0.07813,-1.40625 0.07813,-2.671875 h 0.1875 q 1.21875,2.53125 2.78125,4.3125 1.5625,1.78125 3.5625,2.921875 2,1.15625 4.46875,1.671875 2.46875,0.515625 5.546875,0.515625 5.46875,0 9.203125,-1.953125 3.734375,-1.953125 6,-5.5 2.28125,-3.53125 3.25,-8.546875 0.984375,-5 0.984375,-11.109375 z M 42.1875,26.46875 q 0,4.875 -0.59375,8.6875 -0.578125,3.8125 -2.015625,6.4375 -1.4375,2.640625 -3.84375,4 -2.390625,1.375 -6,1.375 -2.921875,0 -5.515625,-0.828125 Q 21.625,45.3125 19.703125,42.96875 17.78125,40.625 16.65625,36.5 q -1.125,-4.125 -1.125,-10.71875 0,-5.609375 0.921875,-9.5 0.9375,-3.875 2.71875,-6.265625 1.78125,-2.390625 4.40625,-3.453125 2.640625,-1.046875 6.0625,-1.046875 3.65625,0 6.078125,1.40625 2.421875,1.421875 3.859375,4.109375 1.4375,2.6875 2.015625,6.5625 0.59375,3.890625 0.59375,8.875 z" />
      <path
         id="LiberationSans-121"
         d="m 29.5,0 q -1.859375,-4.78125 -3.796875,-8.609375 -1.921875,-3.84375 -4.3125,-6.546875 Q 19,-17.875 16.0625,-19.3125 13.140625,-20.75 9.328125,-20.75 q -1.65625,0 -3.078125,0.09375 -1.421875,0.09375 -2.984375,0.4375 v 6.59375 q 0.9375,-0.140625 2.109375,-0.21875 1.171875,-0.07813 2,-0.07813 3.859375,0 7.171875,2.890625 3.328125,2.875 5.8125,9.171875 L 21.1875,0.25 0.25,52.828125 H 9.625 L 20.75,23.640625 Q 21.234375,22.3125 21.984375,20.109375 22.75,17.921875 23.5,15.71875 q 0.765625,-2.1875 1.34375,-3.953125 0.59375,-1.75 0.6875,-2.1875 0.15625,0.53125 0.71875,2.109375 0.5625,1.59375 1.265625,3.546875 0.703125,1.953125 1.4375,3.953125 0.734375,2 1.21875,3.46875 L 40.53125,52.828125 h 9.28125 z" />
    </defs>
    <defs
       id="defs570">
      <path
         id="LiberationSans-117"
         d="M 15.328125,52.828125 V 19.34375 q 0,-3.859375 0.5625,-6.453125 0.5625,-2.59375 1.828125,-4.1875 Q 19,7.125 21.0625,6.46875 23.140625,5.8125 26.21875,5.8125 q 3.125,0 5.640625,1.09375 2.515625,1.109375 4.296875,3.171875 1.78125,2.078125 2.75,5.125 0.984375,3.0625 0.984375,7.015625 V 52.828125 H 48.6875 V 11.28125 q 0,-1.65625 0.01563,-3.5 Q 48.734375,5.953125 48.78125,4.3125 48.828125,2.6875 48.875,1.515625 48.921875,0.34375 48.96875,0 h -8.296875 q -0.04687,0.25 -0.09375,1.3125 -0.04687,1.078125 -0.125,2.46875 -0.07813,1.390625 -0.125,2.828125 Q 40.28125,8.0625 40.28125,9.03125 H 40.140625 Q 38.875,6.734375 37.359375,4.875 35.84375,3.03125 33.84375,1.734375 q -2,-1.296875 -4.59375,-2 -2.59375,-0.71875 -6,-0.71875 -4.40625,0 -7.578125,1.078125 -3.171875,1.078125 -5.21875,3.328125 -2.046875,2.25 -3,5.765625 Q 6.5,12.703125 6.5,17.625 v 35.203125 z" />
    </defs>
    <defs
       id="defs593">
      <path
         id="LiberationSans-118"
         d="M 29.9375,0 H 19.53125 L 0.34375,52.828125 h 9.375 l 11.625,-34.375 q 0.34375,-1.0625 0.796875,-2.609375 0.46875,-1.53125 0.953125,-3.203125 Q 23.578125,10.984375 24,9.4375 24.421875,7.90625 24.703125,6.890625 25,7.90625 25.453125,9.4375 q 0.46875,1.546875 0.953125,3.15625 0.5,1.609375 1.015625,3.140625 0.515625,1.546875 0.90625,2.625 l 12,34.46875 h 9.328125 z" />
    </defs>
    <defs
       id="defs636">
      <path
         id="LiberationSans-104"
         d="m 15.484375,43.796875 q 1.453125,2.6875 3.15625,4.5625 1.71875,1.890625 3.765625,3.109375 2.0625,1.21875 4.5,1.78125 2.4375,0.5625 5.46875,0.5625 5.078125,0 8.328125,-1.375 3.25,-1.359375 5.125,-3.828125 1.875,-2.46875 2.578125,-5.890625 Q 49.125,39.3125 49.125,35.203125 V 0 h -8.84375 v 33.5 q 0,3.359375 -0.421875,5.890625 -0.40625,2.546875 -1.578125,4.234375 -1.171875,1.6875 -3.328125,2.53125 -2.140625,0.859375 -5.5625,0.859375 -3.125,0 -5.640625,-1.125 Q 21.234375,44.78125 19.453125,42.71875 17.671875,40.671875 16.6875,37.734375 15.71875,34.8125 15.71875,31.15625 V 0 H 6.9375 v 72.46875 h 8.78125 V 53.609375 q 0,-1.609375 -0.04687,-3.21875 -0.04687,-1.609375 -0.125,-2.984375 -0.0625,-1.359375 -0.125,-2.3125 -0.04687,-0.953125 -0.09375,-1.296875 z" />
    </defs>
    <defs
       id="defs248">
      <path
         d="m 61.421875,48.09375 q 0,-4.484375 -1.484375,-8.375 Q 58.453125,35.84375 55.5,32.984375 52.546875,30.125 48.09375,28.46875 43.65625,26.8125 37.75,26.8125 H 17.53125 V 0 H 8.203125 V 68.796875 H 37.15625 q 6.109375,0 10.640625,-1.484375 4.546875,-1.484375 7.578125,-4.203125 3.03125,-2.703125 4.53125,-6.546875 1.515625,-3.828125 1.515625,-8.46875 z M 52.046875,48 q 0,6.546875 -4,9.9375 -4,3.390625 -12.015625,3.390625 h -18.5 V 34.1875 h 18.890625 q 8.0625,0 11.84375,3.5625 3.78125,3.5625 3.78125,10.25 z"
         id="LiberationSans-80" />
      <path
         d="M 73,34.71875 Q 73,26.65625 70.671875,20.0625 68.359375,13.484375 63.96875,8.796875 59.578125,4.109375 53.21875,1.5625 46.875,-0.984375 38.8125,-0.984375 q -8.484375,0 -14.890625,2.65625 Q 17.53125,4.34375 13.28125,9.109375 9.03125,13.875 6.875,20.40625 q -2.140625,6.546875 -2.140625,14.3125 0,8.0625 2.25,14.546875 2.25,6.5 6.59375,11.0625 4.34375,4.5625 10.71875,7.03125 6.375,2.46875 14.625,2.46875 8.203125,0 14.5625,-2.5 6.375,-2.484375 10.6875,-7.078125 Q 68.5,55.671875 70.75,49.171875 73,42.671875 73,34.71875 Z m -9.515625,0 q 0,6.203125 -1.59375,11.28125 -1.59375,5.078125 -4.6875,8.6875 -3.09375,3.609375 -7.6875,5.5625 -4.59375,1.953125 -10.59375,1.953125 -6.15625,0 -10.796875,-1.953125 -4.640625,-1.953125 -7.75,-5.5625 Q 17.28125,51.078125 15.734375,46 q -1.53125,-5.078125 -1.53125,-11.28125 0,-6.203125 1.59375,-11.359375 1.59375,-5.140625 4.6875,-8.875 3.09375,-3.734375 7.703125,-5.8125 4.625,-2.078125 10.625,-2.078125 6.453125,0 11.109375,2.09375 4.671875,2.109375 7.671875,5.84375 3,3.734375 4.4375,8.90625 1.453125,5.171875 1.453125,11.28125 z"
         id="LiberationSans-79" />
      <path
         d="M 8.203125,0 V 68.796875 H 17.53125 V 7.625 H 52.296875 V 0 Z"
         id="LiberationSans-76" />
      <path
         d="M 9.234375,0 V 68.796875 H 18.5625 V 0 Z"
         id="LiberationSans-73" />
      <path
         d="m 38.671875,62.203125 q -5.859375,0 -10.375,-1.953125 Q 23.78125,58.296875 20.71875,54.6875 17.671875,51.078125 16.109375,46 q -1.5625,-5.078125 -1.5625,-11.28125 0,-6.203125 1.6875,-11.359375 Q 17.921875,18.21875 21.0625,14.5 24.21875,10.796875 28.78125,8.734375 33.34375,6.6875 39.0625,6.6875 q 4,0 7.296875,1.046875 3.296875,1.0625 5.953125,2.953125 2.671875,1.90625 4.765625,4.515625 2.109375,2.625 3.71875,5.796875 L 68.40625,17.1875 Q 66.546875,13.328125 63.8125,10 61.078125,6.6875 57.390625,4.25 53.71875,1.8125 49.046875,0.40625 44.390625,-0.984375 38.625,-0.984375 30.28125,-0.984375 24,1.671875 17.71875,4.34375 13.5,9.109375 9.28125,13.875 7.171875,20.40625 q -2.09375,6.546875 -2.09375,14.3125 0,8.0625 2.21875,14.546875 2.21875,6.5 6.484375,11.0625 4.28125,4.5625 10.53125,7.03125 6.25,2.46875 14.265625,2.46875 10.984375,0 18.359375,-4.296875 7.375,-4.296875 10.84375,-12.75 L 58.9375,49.859375 q -0.984375,2.4375 -2.640625,4.65625 -1.65625,2.21875 -4.15625,3.921875 -2.484375,1.71875 -5.828125,2.734375 -3.34375,1.03125 -7.640625,1.03125 z"
         id="LiberationSans-67" />
      <path
         d="M 8.203125,0 V 68.796875 H 60.40625 V 61.1875 h -42.875 V 39.109375 h 39.9375 V 31.59375 H 17.53125 V 7.625 h 44.875 V 0 Z"
         id="LiberationSans-69" />
      <path
         d="m 67.4375,35.109375 q 0,-8.59375 -2.59375,-15.171875 Q 62.25,13.375 57.75,8.953125 53.265625,4.546875 47.140625,2.265625 41.015625,0 33.9375,0 H 8.203125 v 68.796875 h 22.75 q 7.96875,0 14.671875,-1.984375 6.71875,-1.96875 11.546875,-6.09375 4.84375,-4.125 7.546875,-10.484375 2.71875,-6.34375 2.71875,-15.125 z m -9.375,0 q 0,6.984375 -2.015625,11.9375 -2,4.953125 -5.609375,8.125 -3.609375,3.171875 -8.640625,4.65625 -5.03125,1.5 -11.03125,1.5 H 17.53125 V 7.46875 h 15.328125 q 5.421875,0 10.03125,1.75 4.625,1.765625 7.984375,5.234375 3.375,3.46875 5.28125,8.640625 1.90625,5.171875 1.90625,12.015625 z"
         id="LiberationSans-68" />
      <path
         d="M 56.984375,0 49.125,20.125 H 17.78125 L 9.859375,0 h -9.65625 l 28.0625,68.796875 H 38.875 L 66.5,0 Z M 37.5,50.09375 Q 36.71875,52.046875 36,54.046875 35.296875,56.0625 34.765625,57.6875 34.234375,59.328125 33.859375,60.421875 33.5,61.53125 33.453125,61.765625 33.34375,61.53125 33,60.40625 q -0.328125,-1.125 -0.890625,-2.796875 -0.5625,-1.65625 -1.28125,-3.65625 -0.703125,-2 -1.4375,-3.953125 L 20.609375,27.390625 H 46.34375 Z"
         id="LiberationSans-65" />
      <path
         d="m 56.84375,0 -17.875,28.5625 H 17.53125 V 0 H 8.203125 v 68.796875 h 32.375 q 5.859375,0 10.375,-1.34375 4.515625,-1.34375 7.59375,-3.890625 3.078125,-2.53125 4.6875,-6.1875 1.609375,-3.65625 1.609375,-8.25 0,-3.28125 -0.953125,-6.453125 -0.953125,-3.171875 -3,-5.8125 -2.046875,-2.625 -5.234375,-4.53125 -3.171875,-1.90625 -7.609375,-2.6875 L 67.578125,0 Z m -1.375,49.03125 q 0,3.125 -1.078125,5.40625 -1.0625,2.296875 -3.125,3.828125 -2.046875,1.546875 -4.984375,2.296875 -2.921875,0.765625 -6.625,0.765625 h -22.125 V 35.9375 h 22.515625 q 4,0 6.921875,1 2.9375,1 4.8125,2.75 1.875,1.765625 2.78125,4.15625 0.90625,2.390625 0.90625,5.1875 z"
         id="LiberationSans-82" />
      <path
         d="M 35.15625,61.1875 V 0 H 25.875 V 61.1875 H 2.25 v 7.609375 H 58.796875 V 61.1875 Z"
         id="LiberationSans-84" />
      <path
         d="m 66.703125,0 v 45.90625 q 0,2.484375 0.04687,5.0625 0.04687,2.59375 0.140625,4.75 0.109375,2.484375 0.25,4.828125 -0.6875,-2.484375 -1.421875,-4.9375 -0.625,-2.09375 -1.390625,-4.46875 -0.75,-2.359375 -1.484375,-4.265625 L 45.0625,0 H 38.53125 L 20.515625,46.875 q -0.296875,0.734375 -0.625,1.703125 -0.3125,0.984375 -0.6875,2.078125 -0.359375,1.109375 -0.734375,2.25 -0.359375,1.140625 -0.6875,2.265625 -0.84375,2.59375 -1.625,5.375 Q 16.21875,57.8125 16.3125,55.125 16.40625,52.828125 16.453125,50.3125 16.5,47.796875 16.5,45.90625 V 0 H 8.203125 v 68.796875 h 12.25 l 18.3125,-47.703125 q 0.34375,-0.96875 0.828125,-2.515625 0.5,-1.53125 0.9375,-3.15625 0.4375,-1.609375 0.796875,-3.046875 0.375,-1.4375 0.515625,-2.21875 0.15625,0.78125 0.546875,2.25 0.390625,1.46875 0.890625,3.078125 0.515625,1.609375 1,3.125 0.5,1.515625 0.890625,2.484375 l 17.96875,47.703125 H 75.09375 V 0 Z"
         id="LiberationSans-77" />
      <path
         d="m 52.828125,0 -36.8125,58.59375 q 0.09375,-2.390625 0.25,-4.734375 0.09375,-2 0.15625,-4.234375 Q 16.5,47.40625 16.5,45.703125 V 0 H 8.203125 v 68.796875 h 10.84375 L 56.25,9.8125 q -0.140625,2.390625 -0.296875,4.78125 -0.09375,2.0625 -0.1875,4.46875 -0.09375,2.421875 -0.09375,4.625 V 68.796875 H 64.0625 V 0 Z"
         id="LiberationSans-78" />
    </defs>
    <defs
       id="defs294">
      <path
         d="m 62.109375,19 q 0,-4.34375 -1.6875,-8.015625 Q 58.734375,7.328125 55.21875,4.65625 51.703125,2 46.359375,0.5 41.015625,-0.984375 33.6875,-0.984375 q -12.84375,0 -20.015625,4.5 Q 6.5,8.015625 4.546875,16.5 l 9.03125,1.8125 q 0.6875,-2.6875 2.09375,-4.890625 1.421875,-2.1875 3.828125,-3.78125 2.421875,-1.578125 5.984375,-2.46875 3.5625,-0.875 8.546875,-0.875 4.15625,0 7.625,0.703125 3.46875,0.71875 5.953125,2.171875 2.484375,1.46875 3.875,3.78125 Q 52.875,15.28125 52.875,18.5 q 0,3.375 -1.53125,5.46875 -1.53125,2.109375 -4.328125,3.46875 -2.78125,1.375 -6.640625,2.296875 -3.84375,0.9375 -8.53125,2 -2.890625,0.640625 -5.796875,1.390625 -2.90625,0.765625 -5.5625,1.8125 -2.65625,1.046875 -5,2.453125 -2.34375,1.421875 -4.0625,3.40625 -1.703125,1.984375 -2.6875,4.59375 -0.96875,2.609375 -0.96875,6.03125 0,4.875 1.96875,8.359375 1.984375,3.5 5.5,5.75 3.515625,2.25 8.296875,3.265625 4.796875,1.03125 10.359375,1.03125 6.390625,0 10.921875,-1 4.546875,-1 7.671875,-3.015625 3.125,-2 5,-4.953125 Q 59.375,57.90625 60.5,54 l -9.1875,-1.609375 q -0.671875,2.5 -1.96875,4.453125 -1.296875,1.953125 -3.40625,3.265625 -2.09375,1.3125 -5.09375,2 -3,0.6875 -7.046875,0.6875 Q 29,62.796875 25.75,61.9375 22.515625,61.078125 20.53125,59.609375 18.5625,58.15625 17.703125,56.171875 16.84375,54.203125 16.84375,51.90625 q 0,-3.078125 1.53125,-5.0625 1.546875,-1.96875 4.1875,-3.296875 2.640625,-1.3125 6.09375,-2.1875 3.46875,-0.875 7.375,-1.765625 3.171875,-0.71875 6.328125,-1.484375 3.15625,-0.75 6.03125,-1.8125 2.875,-1.046875 5.390625,-2.46875 2.515625,-1.40625 4.375,-3.453125 1.859375,-2.046875 2.90625,-4.84375 Q 62.109375,22.75 62.109375,19 Z"
         id="LiberationSans-83" />
      <path
         d="M 54.734375,0 V 31.890625 H 17.53125 V 0 H 8.203125 v 68.796875 h 9.328125 v -29.09375 h 37.203125 v 29.09375 H 64.0625 V 0 Z"
         id="LiberationSans-72" />
    </defs>
    <defs
       id="defs341">
      <path
         d="m 58.25,-0.59375 q -4.6875,0 -8.203125,1.609375 -3.515625,1.625 -6.34375,4.59375 Q 42.234375,4.34375 40.375,3.171875 38.53125,2 36.25,1.0625 33.984375,0.140625 31.3125,-0.421875 q -2.65625,-0.5625 -5.78125,-0.5625 -5.703125,0 -9.890625,1.46875 -4.171875,1.46875 -6.859375,4.03125 -2.671875,2.5625 -3.96875,6.046875 -1.296875,3.5 -1.296875,7.546875 0,3.859375 1.234375,7 1.25,3.15625 3.46875,5.71875 2.234375,2.578125 5.3125,4.59375 3.078125,2.03125 6.734375,3.640625 -0.875,1.65625 -1.59375,3.53125 -0.703125,1.890625 -1.25,3.796875 -0.53125,1.90625 -0.828125,3.796875 -0.28125,1.90625 -0.28125,3.625 0,3.21875 0.96875,6.015625 0.984375,2.8125 3.046875,4.890625 2.078125,2.078125 5.328125,3.265625 3.25,1.203125 7.796875,1.203125 3.5625,0 6.5625,-0.9375 3,-0.921875 5.1875,-2.6875 2.203125,-1.75 3.421875,-4.34375 1.234375,-2.578125 1.234375,-5.890625 0,-3.671875 -1.625,-6.53125 -1.609375,-2.84375 -4.34375,-5.09375 -2.734375,-2.25 -6.34375,-4.078125 -3.609375,-1.828125 -7.65625,-3.4375 3.015625,-5.578125 6.578125,-10.484375 3.578125,-4.90625 7.71875,-9.640625 2.984375,4.390625 4.953125,9.25 1.984375,4.859375 3.40625,10.765625 L 59.625,33.984375 Q 57.90625,27.203125 55.296875,21.65625 52.6875,16.109375 49.265625,11.078125 51.859375,8.453125 54.4375,7.375 q 2.59375,-1.078125 4.984375,-1.078125 1.5625,0 3,0.171875 1.453125,0.171875 2.71875,0.609375 V 0.484375 Q 63.765625,-0.046875 61.9375,-0.3125 60.109375,-0.59375 58.25,-0.59375 Z M 42.4375,55.328125 q 0,1.796875 -0.671875,3.265625 -0.65625,1.46875 -1.828125,2.515625 -1.171875,1.046875 -2.859375,1.609375 -1.671875,0.5625 -3.734375,0.5625 -4.6875,0 -7.125,-2.515625 -2.4375,-2.515625 -2.4375,-6.953125 0,-2.890625 0.90625,-6.046875 0.90625,-3.140625 2.265625,-5.875 3.171875,1.28125 6,2.609375 2.84375,1.34375 4.9375,2.9375 2.09375,1.59375 3.3125,3.515625 1.234375,1.921875 1.234375,4.375 z M 38.8125,10.59375 q -4.34375,5.125 -8.34375,10.734375 -4,5.625 -7.21875,11.578125 -5.53125,-2.34375 -8.53125,-5.953125 -3,-3.609375 -3,-8.734375 0,-2.6875 0.84375,-5.015625 0.859375,-2.3125 2.609375,-4.046875 1.765625,-1.734375 4.421875,-2.734375 2.671875,-1 6.234375,-1 2.15625,0 4.078125,0.453125 1.9375,0.46875 3.59375,1.203125 1.65625,0.734375 3,1.65625 1.34375,0.9375 2.3125,1.859375 z"
         id="LiberationSans-38" />
      <path
         d="m 35.6875,-0.984375 q -5.65625,0 -10.734375,1.515625 Q 19.875,2.046875 16.03125,5.25 12.203125,8.453125 9.953125,13.359375 7.71875,18.265625 7.71875,25 v 43.796875 h 9.328125 V 25.78125 q 0,-5.21875 1.390625,-8.859375 1.390625,-3.640625 3.875,-5.9375 2.5,-2.296875 5.890625,-3.34375 3.390625,-1.046875 7.4375,-1.046875 4.015625,0 7.578125,1.0625 3.5625,1.078125 6.25,3.421875 2.6875,2.34375 4.21875,6.125 1.53125,3.796875 1.53125,9.21875 v 42.375 H 64.5 V 25.875 Q 64.5,19 62.234375,13.9375 59.96875,8.890625 56.0625,5.5625 52.15625,2.25 46.90625,0.625 41.65625,-0.984375 35.6875,-0.984375 Z"
         id="LiberationSans-85" />
      <path
         d="M 38.1875,0 H 28.515625 L 0.4375,68.796875 H 10.25 l 19.046875,-48.4375 q 0.734375,-2.1875 1.46875,-4.375 0.734375,-2.171875 1.3125,-3.875 0.6875,-2 1.328125,-3.90625 0.578125,1.8125 1.265625,3.8125 0.578125,1.703125 1.28125,3.84375 0.71875,2.15625 1.546875,4.5 l 18.953125,48.4375 h 9.8125 z"
         id="LiberationSans-86" />
    </defs>
  </defs>
  <g
     inkscape:export-ydpi="96"
     inkscape:export-xdpi="96"
     id="g2659">
    <path
       id="path9"
       style="fill:#eaeaf2"
       d="M 91.001222,346.5 H 537.40122 V 47.52 H 91.001222 Z" />
    <g
       id="line2d_1"
       transform="translate(19.001222)">
      <path
         clip-path="url(#pa45af4f251)"
         d="M 72,346.5 V 47.52"
         style="fill:none;stroke:#ffffff;stroke-linecap:round"
         id="path12" />
    </g>
    <g
       id="line2d_2"
       transform="translate(19.001222)" />
    <g
       id="text_1"
       transform="translate(19.001222)">
      <!-- 0.0 -->
      <defs
         id="defs18">
        <path
           d="m 51.703125,34.421875 q 0,-9.90625 -1.875,-16.671875 -1.875,-6.765625 -5.125,-10.9375 -3.25,-4.171875 -7.640625,-5.984375 -4.390625,-1.8125 -9.375,-1.8125 -5.03125,0 -9.375,1.8125 -4.34375,1.8125 -7.546875,5.953125 Q 7.5625,10.9375 5.734375,17.703125 3.90625,24.46875 3.90625,34.421875 q 0,10.40625 1.828125,17.21875 1.828125,6.8125 5.046875,10.859375 3.234375,4.046875 7.625,5.6875 4.390625,1.640625 9.578125,1.640625 4.921875,0 9.234375,-1.640625 Q 41.546875,66.546875 44.765625,62.5 48,58.453125 49.84375,51.640625 q 1.859375,-6.8125 1.859375,-17.21875 z m -8.921875,0 q 0,8.203125 -0.984375,13.640625 -0.96875,5.453125 -2.875,8.703125 -1.90625,3.25 -4.671875,4.59375 -2.75,1.34375 -6.265625,1.34375 -3.71875,0 -6.546875,-1.375 -2.828125,-1.359375 -4.765625,-4.609375 -1.921875,-3.25 -2.90625,-8.703125 -0.96875,-5.4375 -0.96875,-13.59375 0,-7.90625 1,-13.328125 1,-5.421875 2.921875,-8.71875 1.9375,-3.296875 4.71875,-4.734375 2.78125,-1.4375 6.34375,-1.4375 3.46875,0 6.25,1.4375 2.78125,1.4375 4.703125,4.734375 1.9375,3.296875 2.984375,8.71875 1.0625,5.421875 1.0625,13.328125 z"
           id="LiberationSans-48" />
        <path
           d="m 9.125,0 v 10.6875 h 9.53125 V 0 Z"
           id="LiberationSans-46" />
      </defs>
      <g
         style="fill:#262626"
         transform="matrix(0.1,0,0,-0.1,65.05,360.74687)"
         id="g26">
        <use
           xlink:href="#LiberationSans-48"
           id="use20"
           x="0"
           y="0"
           width="100%"
           height="100%" />
        <use
           x="55.615234"
           xlink:href="#LiberationSans-46"
           id="use22"
           y="0"
           width="100%"
           height="100%" />
        <use
           x="83.398438"
           xlink:href="#LiberationSans-48"
           id="use24"
           y="0"
           width="100%"
           height="100%" />
      </g>
    </g>
    <g
       id="line2d_3"
       transform="translate(19.001222)">
      <path
         clip-path="url(#pa45af4f251)"
         d="M 157.02857,346.5 V 47.52"
         style="fill:none;stroke:#ffffff;stroke-linecap:round"
         id="path30" />
    </g>
    <g
       id="line2d_4"
       transform="translate(19.001222)" />
    <g
       id="text_2"
       transform="translate(19.001222)">
      <!-- 0.2 -->
      <defs
         id="defs35">
        <path
           d="m 5.03125,0 v 6.203125 q 2.484375,5.71875 6.078125,10.078125 3.59375,4.375 7.546875,7.90625 3.953125,3.546875 7.828125,6.578125 Q 30.375,33.796875 33.5,36.8125 q 3.125,3.03125 5.046875,6.34375 1.9375,3.328125 1.9375,7.53125 0,2.921875 -0.890625,5.140625 -0.875,2.234375 -2.53125,3.734375 -1.65625,1.515625 -3.984375,2.265625 -2.3125,0.765625 -5.140625,0.765625 -2.640625,0 -4.96875,-0.734375 -2.3125,-0.71875 -4.125,-2.1875 Q 17.046875,58.203125 15.890625,56.03125 14.75,53.859375 14.40625,50.984375 L 5.421875,51.8125 q 0.4375,3.703125 2.046875,6.96875 1.609375,3.28125 4.4375,5.75 2.84375,2.46875 6.8125,3.875 3.984375,1.421875 9.21875,1.421875 5.125,0 9.125,-1.21875 4,-1.21875 6.75,-3.625 2.765625,-2.390625 4.234375,-5.90625 1.46875,-3.515625 1.46875,-8.09375 0,-3.46875 -1.25,-6.59375 -1.25,-3.125 -3.328125,-5.96875 -2.0625,-2.828125 -4.796875,-5.46875 -2.734375,-2.625 -5.71875,-5.140625 -2.96875,-2.515625 -6,-4.984375 -3.03125,-2.46875 -5.703125,-4.96875 Q 20.0625,15.375 17.96875,12.8125 15.875,10.25 14.703125,7.46875 H 50.59375 V 0 Z"
           id="LiberationSans-50" />
      </defs>
      <g
         style="fill:#262626"
         transform="matrix(0.1,0,0,-0.1,150.07857,360.74687)"
         id="g43">
        <use
           xlink:href="#LiberationSans-48"
           id="use37"
           x="0"
           y="0"
           width="100%"
           height="100%" />
        <use
           x="55.615234"
           xlink:href="#LiberationSans-46"
           id="use39"
           y="0"
           width="100%"
           height="100%" />
        <use
           x="83.398438"
           xlink:href="#LiberationSans-50"
           id="use41"
           y="0"
           width="100%"
           height="100%" />
      </g>
    </g>
    <g
       id="line2d_5"
       transform="translate(19.001222)">
      <path
         clip-path="url(#pa45af4f251)"
         d="M 242.05714,346.5 V 47.52"
         style="fill:none;stroke:#ffffff;stroke-linecap:round"
         id="path47" />
    </g>
    <g
       id="line2d_6"
       transform="translate(19.001222)" />
    <g
       id="text_3"
       transform="translate(19.001222)">
      <!-- 0.4 -->
      <defs
         id="defs52">
        <path
           d="M 43.015625,15.578125 V 0 H 34.71875 V 15.578125 H 2.296875 v 6.828125 l 31.5,46.390625 h 9.21875 V 22.515625 H 52.6875 v -6.9375 z m -8.296875,43.3125 q -0.09375,-0.25 -0.484375,-0.953125 -0.390625,-0.703125 -0.890625,-1.59375 -0.484375,-0.875 -1,-1.78125 -0.5,-0.90625 -0.890625,-1.484375 L 13.8125,27.09375 Q 13.578125,26.703125 13.109375,26.0625 12.640625,25.4375 12.15625,24.78125 11.671875,24.125 11.171875,23.484375 10.6875,22.859375 10.40625,22.515625 h 24.3125 z"
           id="LiberationSans-52" />
      </defs>
      <g
         style="fill:#262626"
         transform="matrix(0.1,0,0,-0.1,235.10714,360.74687)"
         id="g60">
        <use
           xlink:href="#LiberationSans-48"
           id="use54"
           x="0"
           y="0"
           width="100%"
           height="100%" />
        <use
           x="55.615234"
           xlink:href="#LiberationSans-46"
           id="use56"
           y="0"
           width="100%"
           height="100%" />
        <use
           x="83.398438"
           xlink:href="#LiberationSans-52"
           id="use58"
           y="0"
           width="100%"
           height="100%" />
      </g>
    </g>
    <g
       id="line2d_7"
       transform="translate(19.001222)">
      <path
         clip-path="url(#pa45af4f251)"
         d="M 327.08571,346.5 V 47.52"
         style="fill:none;stroke:#ffffff;stroke-linecap:round"
         id="path64" />
    </g>
    <g
       id="line2d_8"
       transform="translate(19.001222)" />
    <g
       id="text_4"
       transform="translate(19.001222)">
      <!-- 0.6 -->
      <defs
         id="defs69">
        <path
           d="m 51.21875,22.515625 q 0,-5.1875 -1.4375,-9.515625 -1.4375,-4.3125 -4.25,-7.421875 Q 42.71875,2.484375 38.5625,0.75 34.421875,-0.984375 29,-0.984375 q -6,0 -10.5,2.296875 Q 14.015625,3.609375 11.03125,7.921875 8.0625,12.25 6.5625,18.53125 5.078125,24.8125 5.078125,32.8125 q 0,9.1875 1.6875,16.109375 1.6875,6.9375 4.859375,11.578125 3.171875,4.640625 7.734375,6.984375 4.5625,2.34375 10.328125,2.34375 3.515625,0 6.59375,-0.734375 3.078125,-0.734375 5.59375,-2.375 2.515625,-1.625 4.40625,-4.3125 1.90625,-2.6875 3.03125,-6.59375 l -8.390625,-1.515625 q -1.375,4.4375 -4.375,6.421875 -3,1.984375 -6.953125,1.984375 -3.609375,0 -6.546875,-1.71875 Q 20.125,59.28125 18.0625,55.875 16.015625,52.484375 14.90625,47.359375 13.8125,42.234375 13.8125,35.40625 q 2.40625,4.4375 6.75,6.75 4.34375,2.328125 9.953125,2.328125 4.6875,0 8.5,-1.515625 3.8125,-1.515625 6.515625,-4.375 Q 48.25,35.75 49.734375,31.671875 51.21875,27.59375 51.21875,22.515625 Z M 42.28125,22.125 q 0,3.5625 -0.875,6.4375 -0.875,2.890625 -2.640625,4.90625 -1.75,2.03125 -4.34375,3.125 -2.578125,1.109375 -6,1.109375 -2.390625,0 -4.84375,-0.71875 Q 21.140625,36.28125 19.15625,34.6875 17.1875,33.109375 15.9375,30.515625 14.703125,27.9375 14.703125,24.21875 q 0,-3.8125 0.96875,-7.109375 0.984375,-3.296875 2.8125,-5.734375 1.828125,-2.4375 4.40625,-3.859375 2.59375,-1.40625 5.828125,-1.40625 3.171875,0 5.6875,1.09375 2.515625,1.09375 4.265625,3.171875 1.765625,2.078125 2.6875,5.046875 0.921875,2.984375 0.921875,6.703125 z"
           id="LiberationSans-54" />
      </defs>
      <g
         style="fill:#262626"
         transform="matrix(0.1,0,0,-0.1,320.13571,360.74687)"
         id="g77">
        <use
           xlink:href="#LiberationSans-48"
           id="use71"
           x="0"
           y="0"
           width="100%"
           height="100%" />
        <use
           x="55.615234"
           xlink:href="#LiberationSans-46"
           id="use73"
           y="0"
           width="100%"
           height="100%" />
        <use
           x="83.398438"
           xlink:href="#LiberationSans-54"
           id="use75"
           y="0"
           width="100%"
           height="100%" />
      </g>
    </g>
    <g
       id="line2d_9"
       transform="translate(19.001222)">
      <path
         clip-path="url(#pa45af4f251)"
         d="M 412.11429,346.5 V 47.52"
         style="fill:none;stroke:#ffffff;stroke-linecap:round"
         id="path81" />
    </g>
    <g
       id="line2d_10"
       transform="translate(19.001222)" />
    <g
       id="text_5"
       transform="translate(19.001222)">
      <!-- 0.8 -->
      <defs
         id="defs86">
        <path
           d="m 51.265625,19.1875 q 0,-4.390625 -1.390625,-8.078125 -1.390625,-3.6875 -4.25,-6.375 -2.84375,-2.6875 -7.296875,-4.203125 -4.4375,-1.515625 -10.5,-1.515625 -6.046875,0 -10.46875,1.515625 Q 12.9375,2.046875 10.03125,4.703125 7.125,7.375 5.734375,11.0625 4.34375,14.75 4.34375,19.09375 q 0,3.765625 1.140625,6.6875 1.15625,2.9375 3.078125,5.046875 1.9375,2.125 4.40625,3.421875 2.46875,1.296875 5.09375,1.734375 V 36.1875 q -2.875,0.671875 -5.15625,2.1875 -2.265625,1.515625 -3.8125,3.640625 -1.53125,2.125 -2.34375,4.703125 -0.796875,2.59375 -0.796875,5.484375 0,3.609375 1.390625,6.796875 1.390625,3.203125 4.125,5.625 2.734375,2.421875 6.78125,3.8125 4.0625,1.390625 9.390625,1.390625 5.609375,0 9.734375,-1.421875 Q 41.5,67 44.203125,64.578125 46.921875,62.15625 48.234375,58.9375 49.5625,55.71875 49.5625,52.09375 q 0,-2.828125 -0.8125,-5.421875 -0.796875,-2.578125 -2.34375,-4.703125 -1.53125,-2.125 -3.8125,-3.625 -2.265625,-1.484375 -5.234375,-2.0625 v -0.203125 q 2.96875,-0.484375 5.5,-1.78125 2.546875,-1.28125 4.40625,-3.40625 1.859375,-2.125 2.921875,-5.0625 1.078125,-2.921875 1.078125,-6.640625 z M 40.4375,51.609375 q 0,2.59375 -0.671875,4.734375 -0.65625,2.15625 -2.171875,3.6875 -1.515625,1.546875 -3.953125,2.390625 -2.4375,0.859375 -6,0.859375 -3.46875,0 -5.859375,-0.859375 -2.390625,-0.84375 -3.9375,-2.390625 Q 16.3125,58.5 15.625,56.34375 q -0.6875,-2.140625 -0.6875,-4.734375 0,-2.046875 0.53125,-4.203125 0.546875,-2.140625 1.953125,-3.90625 1.421875,-1.75 3.90625,-2.875 2.5,-1.125 6.40625,-1.125 4.15625,0 6.671875,1.125 2.515625,1.125 3.84375,2.875 1.34375,1.765625 1.765625,3.90625 0.421875,2.15625 0.421875,4.203125 z m 1.703125,-31.59375 q 0,2.5 -0.6875,4.8125 -0.6875,2.328125 -2.34375,4.109375 -1.65625,1.78125 -4.46875,2.875 -2.796875,1.09375 -7,1.09375 -3.859375,0 -6.578125,-1.09375 -2.703125,-1.09375 -4.390625,-2.90625 -1.6875,-1.8125 -2.46875,-4.1875 -0.78125,-2.359375 -0.78125,-4.890625 0,-3.171875 0.78125,-5.796875 0.78125,-2.609375 2.484375,-4.484375 1.71875,-1.875 4.5,-2.90625 2.78125,-1.03125 6.75,-1.03125 4,0 6.734375,1.03125 2.734375,1.03125 4.390625,2.90625 1.65625,1.875 2.359375,4.53125 0.71875,2.671875 0.71875,5.9375 z"
           id="LiberationSans-56" />
      </defs>
      <g
         style="fill:#262626"
         transform="matrix(0.1,0,0,-0.1,405.16429,360.74687)"
         id="g94">
        <use
           xlink:href="#LiberationSans-48"
           id="use88"
           x="0"
           y="0"
           width="100%"
           height="100%" />
        <use
           x="55.615234"
           xlink:href="#LiberationSans-46"
           id="use90"
           y="0"
           width="100%"
           height="100%" />
        <use
           x="83.398438"
           xlink:href="#LiberationSans-56"
           id="use92"
           y="0"
           width="100%"
           height="100%" />
      </g>
    </g>
    <g
       id="line2d_11"
       transform="translate(19.001222)">
      <path
         clip-path="url(#pa45af4f251)"
         d="M 497.14286,346.5 V 47.52"
         style="fill:none;stroke:#ffffff;stroke-linecap:round"
         id="path98" />
    </g>
    <g
       id="line2d_12"
       transform="translate(19.001222)" />
    <g
       id="text_6"
       transform="translate(19.001222)">
      <!-- 1.0 -->
      <defs
         id="defs103">
        <path
           d="m 7.625,0 v 7.46875 h 17.515625 v 52.9375 L 9.625,49.3125 v 8.3125 l 16.25,11.171875 h 8.109375 V 7.46875 h 16.75 V 0 Z"
           id="LiberationSans-49" />
      </defs>
      <g
         style="fill:#262626"
         transform="matrix(0.1,0,0,-0.1,490.19286,360.74687)"
         id="g111">
        <use
           xlink:href="#LiberationSans-49"
           id="use105"
           x="0"
           y="0"
           width="100%"
           height="100%" />
        <use
           x="55.615234"
           xlink:href="#LiberationSans-46"
           id="use107"
           y="0"
           width="100%"
           height="100%" />
        <use
           x="83.398438"
           xlink:href="#LiberationSans-48"
           id="use109"
           y="0"
           width="100%"
           height="100%" />
      </g>
    </g>
    <g
       style="fill:#262626"
       transform="matrix(0.11,0,0,-0.11,200.79294,374.79344)"
       id="g228">
      <use
         xlink:href="#LiberationSans-70"
         id="use134"
         x="0"
         y="0"
         width="100%"
         height="100%" />
      <use
         x="61.083984"
         xlink:href="#LiberationSans-114"
         id="use136"
         y="0"
         width="100%"
         height="100%" />
      <use
         x="94.384766"
         xlink:href="#LiberationSans-97"
         id="use138"
         y="0"
         width="100%"
         height="100%" />
      <use
         x="150"
         xlink:href="#LiberationSans-99"
         id="use140"
         y="0"
         width="100%"
         height="100%" />
      <use
         x="200"
         xlink:href="#LiberationSans-116"
         id="use142"
         y="0"
         width="100%"
         height="100%" />
      <use
         x="227.7832"
         xlink:href="#LiberationSans-105"
         id="use144"
         y="0"
         width="100%"
         height="100%" />
      <use
         x="250"
         xlink:href="#LiberationSans-111"
         id="use146"
         y="0"
         width="100%"
         height="100%" />
      <use
         x="305.61523"
         xlink:href="#LiberationSans-110"
         id="use148"
         y="0"
         width="100%"
         height="100%" />
      <use
         x="361.23047"
         xlink:href="#LiberationSans-32"
         id="use150"
         y="0"
         width="100%"
         height="100%" />
      <use
         x="389.01367"
         xlink:href="#LiberationSans-111"
         id="use152"
         y="0"
         width="100%"
         height="100%" />
      <use
         x="444.62891"
         xlink:href="#LiberationSans-102"
         id="use154"
         y="0"
         width="100%"
         height="100%" />
      <use
         x="472.41211"
         xlink:href="#LiberationSans-32"
         id="use156"
         y="0"
         width="100%"
         height="100%" />
      <use
         x="500.19531"
         xlink:href="#LiberationSans-116"
         id="use158"
         y="0"
         width="100%"
         height="100%" />
      <use
         x="527.97852"
         xlink:href="#LiberationSans-111"
         id="use160"
         y="0"
         width="100%"
         height="100%" />
      <use
         x="583.59375"
         xlink:href="#LiberationSans-116"
         id="use162"
         y="0"
         width="100%"
         height="100%" />
      <use
         x="611.37695"
         xlink:href="#LiberationSans-97"
         id="use164"
         y="0"
         width="100%"
         height="100%" />
      <use
         x="666.99219"
         xlink:href="#LiberationSans-108"
         id="use166"
         y="0"
         width="100%"
         height="100%" />
      <use
         x="689.20898"
         xlink:href="#LiberationSans-32"
         id="use168"
         y="0"
         width="100%"
         height="100%" />
      <use
         x="716.99219"
         xlink:href="#LiberationSans-101"
         id="use170"
         y="0"
         width="100%"
         height="100%" />
      <use
         x="772.60742"
         xlink:href="#LiberationSans-97"
         id="use172"
         y="0"
         width="100%"
         height="100%" />
      <use
         x="828.22266"
         xlink:href="#LiberationSans-114"
         id="use174"
         y="0"
         width="100%"
         height="100%" />
      <use
         x="861.52344"
         xlink:href="#LiberationSans-110"
         id="use176"
         y="0"
         width="100%"
         height="100%" />
      <use
         x="917.13867"
         xlink:href="#LiberationSans-105"
         id="use178"
         y="0"
         width="100%"
         height="100%" />
      <use
         x="939.35547"
         xlink:href="#LiberationSans-110"
         id="use180"
         y="0"
         width="100%"
         height="100%" />
      <use
         x="994.9707"
         xlink:href="#LiberationSans-103"
         id="use182"
         y="0"
         width="100%"
         height="100%" />
      <use
         x="1050.5859"
         xlink:href="#LiberationSans-115"
         id="use184"
         y="0"
         width="100%"
         height="100%" />
      <use
         x="1100.5859"
         xlink:href="#LiberationSans-32"
         id="use186"
         y="0"
         width="100%"
         height="100%" />
      <use
         x="1128.3691"
         xlink:href="#LiberationSans-97"
         id="use188"
         y="0"
         width="100%"
         height="100%" />
      <use
         x="1183.9844"
         xlink:href="#LiberationSans-99"
         id="use190"
         y="0"
         width="100%"
         height="100%" />
      <use
         x="1233.9844"
         xlink:href="#LiberationSans-114"
         id="use192"
         y="0"
         width="100%"
         height="100%" />
      <use
         x="1267.2852"
         xlink:href="#LiberationSans-111"
         id="use194"
         y="0"
         width="100%"
         height="100%" />
      <use
         x="1322.9004"
         xlink:href="#LiberationSans-115"
         id="use196"
         y="0"
         width="100%"
         height="100%" />
      <use
         x="1372.9004"
         xlink:href="#LiberationSans-115"
         id="use198"
         y="0"
         width="100%"
         height="100%" />
      <use
         x="1422.9004"
         xlink:href="#LiberationSans-32"
         id="use200"
         y="0"
         width="100%"
         height="100%" />
      <use
         x="1450.6836"
         xlink:href="#LiberationSans-97"
         id="use202"
         y="0"
         width="100%"
         height="100%" />
      <use
         x="1506.2988"
         xlink:href="#LiberationSans-108"
         id="use204"
         y="0"
         width="100%"
         height="100%" />
      <use
         x="1528.5156"
         xlink:href="#LiberationSans-108"
         id="use206"
         y="0"
         width="100%"
         height="100%" />
      <use
         x="1550.7324"
         xlink:href="#LiberationSans-32"
         id="use208"
         y="0"
         width="100%"
         height="100%" />
      <use
         x="1578.5156"
         xlink:href="#LiberationSans-101"
         id="use210"
         y="0"
         width="100%"
         height="100%" />
      <use
         x="1634.1309"
         xlink:href="#LiberationSans-109"
         id="use212"
         y="0"
         width="100%"
         height="100%" />
      <use
         x="1717.4316"
         xlink:href="#LiberationSans-112"
         id="use214"
         y="0"
         width="100%"
         height="100%" />
      <use
         x="1773.0469"
         xlink:href="#LiberationSans-108"
         id="use216"
         y="0"
         width="100%"
         height="100%" />
      <use
         x="1795.2637"
         xlink:href="#LiberationSans-111"
         id="use218"
         y="0"
         width="100%"
         height="100%" />
      <use
         x="1850.8789"
         xlink:href="#LiberationSans-121"
         id="use220"
         y="0"
         width="100%"
         height="100%" />
      <use
         x="1900.8789"
         xlink:href="#LiberationSans-101"
         id="use222"
         y="0"
         width="100%"
         height="100%" />
      <use
         x="1956.4941"
         xlink:href="#LiberationSans-101"
         id="use224"
         y="0"
         width="100%"
         height="100%" />
      <use
         x="2012.1094"
         xlink:href="#LiberationSans-115"
         id="use226"
         y="0"
         width="100%"
         height="100%" />
    </g>
    <g
       id="line2d_13"
       transform="translate(19.001222)">
      <path
         clip-path="url(#pa45af4f251)"
         d="M 72,296.67 H 518.4"
         style="fill:none;stroke:#ffffff;stroke-linecap:round"
         id="path232" />
    </g>
    <g
       id="line2d_14"
       transform="translate(19.001222)" />
    <use
       style="fill:#262626"
       x="366.79688"
       xlink:href="#LiberationSans-32"
       id="use262"
       y="0"
       width="100%"
       height="100%"
       transform="matrix(0.1,0,0,-0.1,-23.436277,300.29344)" />
    <g
       id="g2366"
       transform="translate(11.679883,6)">
      <g
         transform="translate(55.208008,-11.505002)"
         id="g2290">
        <use
           style="fill:#262626"
           xlink:href="#LiberationSans-80"
           id="use250"
           x="0"
           y="0"
           width="100%"
           height="100%"
           transform="matrix(0.1,0,0,-0.1,-42.4375,300.29344)" />
        <use
           style="fill:#262626"
           x="66.699219"
           xlink:href="#LiberationSans-79"
           id="use252"
           y="0"
           width="100%"
           height="100%"
           transform="matrix(0.1,0,0,-0.1,-42.4375,300.29344)" />
        <use
           style="fill:#262626"
           x="144.48242"
           xlink:href="#LiberationSans-76"
           id="use254"
           y="0"
           width="100%"
           height="100%"
           transform="matrix(0.1,0,0,-0.1,-42.4375,300.29344)" />
        <use
           style="fill:#262626"
           x="200.09766"
           xlink:href="#LiberationSans-73"
           id="use256"
           y="0"
           width="100%"
           height="100%"
           transform="matrix(0.1,0,0,-0.1,-42.4375,300.29344)" />
        <use
           style="fill:#262626"
           x="227.88086"
           xlink:href="#LiberationSans-67"
           id="use258"
           y="0"
           width="100%"
           height="100%"
           transform="matrix(0.1,0,0,-0.1,-42.4375,300.29344)" />
        <use
           style="fill:#262626"
           x="300.09766"
           xlink:href="#LiberationSans-69"
           id="use260"
           y="0"
           width="100%"
           height="100%"
           transform="matrix(0.1,0,0,-0.1,-42.4375,300.29344)" />
      </g>
      <g
         id="g2302">
        <use
           style="fill:#262626"
           x="394.58008"
           xlink:href="#LiberationSans-68"
           id="use264"
           y="0"
           width="100%"
           height="100%"
           transform="matrix(0.1,0,0,-0.1,-42.4375,300.29344)" />
        <use
           style="fill:#262626"
           x="466.79688"
           xlink:href="#LiberationSans-69"
           id="use266"
           y="0"
           width="100%"
           height="100%"
           transform="matrix(0.1,0,0,-0.1,-42.4375,300.29344)" />
        <use
           style="fill:#262626"
           x="533.49609"
           xlink:href="#LiberationSans-80"
           id="use268"
           y="0"
           width="100%"
           height="100%"
           transform="matrix(0.1,0,0,-0.1,-42.4375,300.29344)" />
        <use
           style="fill:#262626"
           x="592.82031"
           xlink:href="#LiberationSans-65"
           id="use270"
           y="0"
           width="100%"
           height="100%"
           transform="matrix(0.1,0,0,-0.1,-42.4375,300.29344)" />
        <use
           style="fill:#262626"
           x="659.51953"
           xlink:href="#LiberationSans-82"
           id="use272"
           y="0"
           width="100%"
           height="100%"
           transform="matrix(0.1,0,0,-0.1,-42.4375,300.29344)" />
        <use
           style="fill:#262626"
           x="729.98633"
           xlink:href="#LiberationSans-84"
           id="use274"
           y="0"
           width="100%"
           height="100%"
           transform="matrix(0.1,0,0,-0.1,-42.4375,300.29344)" />
        <use
           style="fill:#262626"
           x="791.07031"
           xlink:href="#LiberationSans-77"
           id="use276"
           y="0"
           width="100%"
           height="100%"
           transform="matrix(0.1,0,0,-0.1,-42.4375,300.29344)" />
        <use
           style="fill:#262626"
           x="874.37109"
           xlink:href="#LiberationSans-69"
           id="use278"
           y="0"
           width="100%"
           height="100%"
           transform="matrix(0.1,0,0,-0.1,-42.4375,300.29344)" />
        <use
           style="fill:#262626"
           x="941.07031"
           xlink:href="#LiberationSans-78"
           id="use280"
           y="0"
           width="100%"
           height="100%"
           transform="matrix(0.1,0,0,-0.1,-42.4375,300.29344)" />
        <use
           style="fill:#262626"
           x="1013.2871"
           xlink:href="#LiberationSans-84"
           id="use282"
           y="0"
           width="100%"
           height="100%"
           transform="matrix(0.1,0,0,-0.1,-42.4375,300.29344)" />
      </g>
    </g>
    <g
       id="line2d_15"
       transform="translate(19.001222)">
      <path
         clip-path="url(#pa45af4f251)"
         d="M 72,197.01 H 518.4"
         style="fill:none;stroke:#ffffff;stroke-linecap:round"
         id="path288" />
    </g>
    <g
       id="line2d_16"
       transform="translate(19.001222)" />
    <use
       style="fill:#262626"
       x="418.56445"
       xlink:href="#LiberationSans-32"
       id="use308"
       y="0"
       width="100%"
       height="100%"
       transform="matrix(0.1,0,0,-0.1,-28.61284,200.63344)" />
    <g
       id="g2346"
       transform="translate(11.679688,6)">
      <g
         transform="translate(57.742969,-12.506934)"
         id="g2270">
        <use
           style="fill:#262626"
           xlink:href="#LiberationSans-83"
           id="use296"
           x="0"
           y="0"
           width="100%"
           height="100%"
           transform="matrix(0.1,0,0,-0.1,-47.614063,200.63344)" />
        <use
           style="fill:#262626"
           x="66.699219"
           xlink:href="#LiberationSans-67"
           id="use298"
           y="0"
           width="100%"
           height="100%"
           transform="matrix(0.1,0,0,-0.1,-47.614063,200.63344)" />
        <use
           style="fill:#262626"
           x="138.91602"
           xlink:href="#LiberationSans-72"
           id="use300"
           y="0"
           width="100%"
           height="100%"
           transform="matrix(0.1,0,0,-0.1,-47.614063,200.63344)" />
        <use
           style="fill:#262626"
           x="211.13281"
           xlink:href="#LiberationSans-79"
           id="use302"
           y="0"
           width="100%"
           height="100%"
           transform="matrix(0.1,0,0,-0.1,-47.614063,200.63344)" />
        <use
           style="fill:#262626"
           x="288.91602"
           xlink:href="#LiberationSans-79"
           id="use304"
           y="0"
           width="100%"
           height="100%"
           transform="matrix(0.1,0,0,-0.1,-47.614063,200.63344)" />
        <use
           style="fill:#262626"
           x="366.69922"
           xlink:href="#LiberationSans-76"
           id="use306"
           y="0"
           width="100%"
           height="100%"
           transform="matrix(0.1,0,0,-0.1,-47.614063,200.63344)" />
      </g>
      <g
         id="g2282">
        <use
           style="fill:#262626"
           x="446.34766"
           xlink:href="#LiberationSans-68"
           id="use310"
           y="0"
           width="100%"
           height="100%"
           transform="matrix(0.1,0,0,-0.1,-47.614063,200.63344)" />
        <use
           style="fill:#262626"
           x="518.56445"
           xlink:href="#LiberationSans-69"
           id="use312"
           y="0"
           width="100%"
           height="100%"
           transform="matrix(0.1,0,0,-0.1,-47.614063,200.63344)" />
        <use
           style="fill:#262626"
           x="585.26367"
           xlink:href="#LiberationSans-80"
           id="use314"
           y="0"
           width="100%"
           height="100%"
           transform="matrix(0.1,0,0,-0.1,-47.614063,200.63344)" />
        <use
           style="fill:#262626"
           x="644.58789"
           xlink:href="#LiberationSans-65"
           id="use316"
           y="0"
           width="100%"
           height="100%"
           transform="matrix(0.1,0,0,-0.1,-47.614063,200.63344)" />
        <use
           style="fill:#262626"
           x="711.28711"
           xlink:href="#LiberationSans-82"
           id="use318"
           y="0"
           width="100%"
           height="100%"
           transform="matrix(0.1,0,0,-0.1,-47.614063,200.63344)" />
        <use
           style="fill:#262626"
           x="781.75391"
           xlink:href="#LiberationSans-84"
           id="use320"
           y="0"
           width="100%"
           height="100%"
           transform="matrix(0.1,0,0,-0.1,-47.614063,200.63344)" />
        <use
           style="fill:#262626"
           x="842.83789"
           xlink:href="#LiberationSans-77"
           id="use322"
           y="0"
           width="100%"
           height="100%"
           transform="matrix(0.1,0,0,-0.1,-47.614063,200.63344)" />
        <use
           style="fill:#262626"
           x="926.13867"
           xlink:href="#LiberationSans-69"
           id="use324"
           y="0"
           width="100%"
           height="100%"
           transform="matrix(0.1,0,0,-0.1,-47.614063,200.63344)" />
        <use
           style="fill:#262626"
           x="992.83789"
           xlink:href="#LiberationSans-78"
           id="use326"
           y="0"
           width="100%"
           height="100%"
           transform="matrix(0.1,0,0,-0.1,-47.614063,200.63344)" />
        <use
           style="fill:#262626"
           x="1065.0547"
           xlink:href="#LiberationSans-84"
           id="use328"
           y="0"
           width="100%"
           height="100%"
           transform="matrix(0.1,0,0,-0.1,-47.614063,200.63344)" />
      </g>
    </g>
    <g
       id="line2d_17"
       transform="translate(19.001222)">
      <path
         clip-path="url(#pa45af4f251)"
         d="M 72,97.35 H 518.4"
         style="fill:none;stroke:#ffffff;stroke-linecap:round"
         id="path334" />
    </g>
    <g
       id="line2d_18"
       transform="translate(19.001222)" />
    <use
       style="fill:#262626"
       x="387.15625"
       xlink:href="#LiberationSans-32"
       id="use355"
       y="0"
       width="100%"
       height="100%"
       transform="matrix(0.1,0,0,-0.1,-56.783152,100.97344)" />
    <use
       style="fill:#262626"
       x="481.63867"
       xlink:href="#LiberationSans-32"
       id="use359"
       y="0"
       width="100%"
       height="100%"
       transform="matrix(0.1,0,0,-0.1,-56.783152,100.97344)" />
    <use
       style="fill:#262626"
       x="876.07227"
       xlink:href="#LiberationSans-32"
       id="use371"
       y="0"
       width="100%"
       height="100%"
       transform="matrix(0.1,0,0,-0.1,-56.783152,100.97344)" />
    <g
       id="g2326"
       transform="translate(19.001222,6)">
      <g
         id="g2252">
        <use
           style="fill:#262626"
           xlink:href="#LiberationSans-72"
           id="use343"
           x="0"
           y="0"
           width="100%"
           height="100%"
           transform="matrix(0.1,0,0,-0.1,-19.821535,87.940684)" />
        <use
           style="fill:#262626"
           x="72.216797"
           xlink:href="#LiberationSans-69"
           id="use345"
           y="0"
           width="100%"
           height="100%"
           transform="matrix(0.1,0,0,-0.1,-19.821535,87.940684)" />
        <use
           style="fill:#262626"
           x="138.91602"
           xlink:href="#LiberationSans-65"
           id="use347"
           y="0"
           width="100%"
           height="100%"
           transform="matrix(0.1,0,0,-0.1,-19.821535,87.940684)" />
        <use
           style="fill:#262626"
           x="205.61523"
           xlink:href="#LiberationSans-76"
           id="use349"
           y="0"
           width="100%"
           height="100%"
           transform="matrix(0.1,0,0,-0.1,-19.821535,87.940684)" />
        <use
           style="fill:#262626"
           x="253.85547"
           xlink:href="#LiberationSans-84"
           id="use351"
           y="0"
           width="100%"
           height="100%"
           transform="matrix(0.1,0,0,-0.1,-19.821535,87.940684)" />
        <use
           style="fill:#262626"
           x="314.93945"
           xlink:href="#LiberationSans-72"
           id="use353"
           y="0"
           width="100%"
           height="100%"
           transform="matrix(0.1,0,0,-0.1,-19.821535,87.940684)" />
        <use
           style="fill:#262626"
           x="414.93945"
           xlink:href="#LiberationSans-38"
           id="use357"
           y="0"
           width="100%"
           height="100%"
           transform="matrix(0.1,0,0,-0.1,-19.821535,87.940684)" />
        <use
           style="fill:#262626"
           x="509.42188"
           xlink:href="#LiberationSans-72"
           id="use361"
           y="0"
           width="100%"
           height="100%"
           transform="matrix(0.1,0,0,-0.1,-19.821535,87.940684)" />
        <use
           style="fill:#262626"
           x="581.63867"
           xlink:href="#LiberationSans-85"
           id="use363"
           y="0"
           width="100%"
           height="100%"
           transform="matrix(0.1,0,0,-0.1,-19.821535,87.940684)" />
        <use
           style="fill:#262626"
           x="653.85547"
           xlink:href="#LiberationSans-77"
           id="use365"
           y="0"
           width="100%"
           height="100%"
           transform="matrix(0.1,0,0,-0.1,-19.821535,87.940684)" />
        <use
           style="fill:#262626"
           x="737.15625"
           xlink:href="#LiberationSans-65"
           id="use367"
           y="0"
           width="100%"
           height="100%"
           transform="matrix(0.1,0,0,-0.1,-19.821535,87.940684)" />
        <use
           style="fill:#262626"
           x="803.85547"
           xlink:href="#LiberationSans-78"
           id="use369"
           y="0"
           width="100%"
           height="100%"
           transform="matrix(0.1,0,0,-0.1,-19.821535,87.940684)" />
      </g>
      <g
         transform="translate(-0.10871228)"
         id="g2262">
        <use
           style="fill:#262626"
           x="903.85547"
           xlink:href="#LiberationSans-83"
           id="use373"
           y="0"
           width="100%"
           height="100%"
           transform="matrix(0.1,0,0,-0.1,-91.488311,100.7612)" />
        <use
           style="fill:#262626"
           x="970.55469"
           xlink:href="#LiberationSans-69"
           id="use375"
           y="0"
           width="100%"
           height="100%"
           transform="matrix(0.1,0,0,-0.1,-91.488311,100.7612)" />
        <use
           style="fill:#262626"
           x="1037.2539"
           xlink:href="#LiberationSans-82"
           id="use377"
           y="0"
           width="100%"
           height="100%"
           transform="matrix(0.1,0,0,-0.1,-91.488311,100.7612)" />
        <use
           style="fill:#262626"
           x="1107.7207"
           xlink:href="#LiberationSans-86"
           id="use379"
           y="0"
           width="100%"
           height="100%"
           transform="matrix(0.1,0,0,-0.1,-91.488311,100.7612)" />
        <use
           style="fill:#262626"
           x="1174.4199"
           xlink:href="#LiberationSans-73"
           id="use381"
           y="0"
           width="100%"
           height="100%"
           transform="matrix(0.1,0,0,-0.1,-91.488311,100.7612)" />
        <use
           style="fill:#262626"
           x="1202.2031"
           xlink:href="#LiberationSans-67"
           id="use383"
           y="0"
           width="100%"
           height="100%"
           transform="matrix(0.1,0,0,-0.1,-91.488311,100.7612)" />
        <use
           style="fill:#262626"
           x="1274.4199"
           xlink:href="#LiberationSans-69"
           id="use385"
           y="0"
           width="100%"
           height="100%"
           transform="matrix(0.1,0,0,-0.1,-91.488311,100.7612)" />
        <use
           style="fill:#262626"
           x="1341.1191"
           xlink:href="#LiberationSans-83"
           id="use387"
           y="0"
           width="100%"
           height="100%"
           transform="matrix(0.1,0,0,-0.1,-91.488311,100.7612)" />
      </g>
    </g>
    <path
       id="path394"
       style="fill:#4c72b0"
       d="m 72,321.585 h 250.83429 v -49.83 H 72 Z"
       clip-path="url(#pa45af4f251)"
       transform="translate(19.001222)" />
    <path
       id="path397"
       style="fill:#4c72b0"
       d="m 72,221.925 h 403.88571 v -49.83 H 72 Z"
       clip-path="url(#pa45af4f251)"
       transform="translate(19.001222)" />
    <path
       id="path400"
       style="fill:#4c72b0"
       d="M 72,122.265 H 471.63429 V 72.435 H 72 Z"
       clip-path="url(#pa45af4f251)"
       transform="translate(19.001222)" />
    <path
       id="path403"
       style="fill:#55a868"
       d="m 322.83429,321.585 h 25.50857 v -49.83 h -25.50857 z"
       clip-path="url(#pa45af4f251)"
       transform="translate(19.001222)" />
    <path
       id="path406"
       style="fill:#55a868"
       d="m 475.88571,221.925 h 4.25143 v -49.83 h -4.25143 z"
       clip-path="url(#pa45af4f251)"
       transform="translate(19.001222)" />
    <path
       id="path409"
       style="fill:#55a868"
       d="m 72,122.265 v 0 -49.83 0 z"
       clip-path="url(#pa45af4f251)"
       transform="translate(19.001222)" />
    <path
       id="path412"
       style="fill:#c44e52"
       d="m 348.34286,321.585 h 76.52571 v -49.83 h -76.52571 z"
       clip-path="url(#pa45af4f251)"
       transform="translate(19.001222)" />
    <path
       id="path415"
       style="fill:#c44e52"
       d="m 72,221.925 v 0 -49.83 0 z"
       clip-path="url(#pa45af4f251)"
       transform="translate(19.001222)" />
    <path
       id="path418"
       style="fill:#c44e52"
       d="m 72,122.265 v 0 -49.83 0 z"
       clip-path="url(#pa45af4f251)"
       transform="translate(19.001222)" />
    <path
       id="path421"
       style="fill:#8172b2"
       d="m 424.86857,321.585 h 72.27429 v -49.83 h -72.27429 z"
       clip-path="url(#pa45af4f251)"
       transform="translate(19.001222)" />
    <path
       id="path424"
       style="fill:#8172b2"
       d="m 480.13714,221.925 h 17.00572 v -49.83 h -17.00572 z"
       clip-path="url(#pa45af4f251)"
       transform="translate(19.001222)" />
    <path
       id="path427"
       style="fill:#8172b2"
       d="m 471.63429,122.265 h 25.50857 v -49.83 h -25.50857 z"
       clip-path="url(#pa45af4f251)"
       transform="translate(19.001222)" />
    <path
       id="path430"
       style="fill:none"
       d="M 91.001222,346.5 V 47.52" />
    <path
       id="path433"
       style="fill:none"
       d="M 537.40122,346.5 V 47.52" />
    <path
       id="path436"
       style="fill:none"
       d="M 91.001222,346.5 H 537.40122" />
    <path
       id="path439"
       style="fill:none"
       d="M 91.001222,47.52 H 537.40122" />
    <use
       style="fill:#262626"
       xlink:href="#LiberationSans-66"
       id="use451"
       x="0"
       y="0"
       width="100%"
       height="100%"
       transform="matrix(0.12,0,0,-0.12,151.79153,41.52)" />
    <use
       style="fill:#262626"
       x="66.699219"
       xlink:href="#LiberationSans-114"
       id="use453"
       y="0"
       width="100%"
       height="100%"
       transform="matrix(0.12,0,0,-0.12,151.79153,41.52)" />
    <use
       style="fill:#262626"
       x="100"
       xlink:href="#LiberationSans-101"
       id="use455"
       y="0"
       width="100%"
       height="100%"
       transform="matrix(0.12,0,0,-0.12,151.79153,41.52)" />
    <use
       style="fill:#262626"
       x="155.61523"
       xlink:href="#LiberationSans-97"
       id="use457"
       y="0"
       width="100%"
       height="100%"
       transform="matrix(0.12,0,0,-0.12,151.79153,41.52)" />
    <use
       style="fill:#262626"
       x="211.23047"
       xlink:href="#LiberationSans-107"
       id="use459"
       y="0"
       width="100%"
       height="100%"
       transform="matrix(0.12,0,0,-0.12,151.79153,41.52)" />
    <use
       style="fill:#262626"
       x="261.23047"
       xlink:href="#LiberationSans-100"
       id="use461"
       y="0"
       width="100%"
       height="100%"
       transform="matrix(0.12,0,0,-0.12,151.79153,41.52)" />
    <use
       style="fill:#262626"
       x="316.8457"
       xlink:href="#LiberationSans-111"
       id="use463"
       y="0"
       width="100%"
       height="100%"
       transform="matrix(0.12,0,0,-0.12,151.79153,41.52)" />
    <use
       style="fill:#262626"
       x="372.46094"
       xlink:href="#LiberationSans-119"
       id="use465"
       y="0"
       width="100%"
       height="100%"
       transform="matrix(0.12,0,0,-0.12,151.79153,41.52)" />
    <use
       style="fill:#262626"
       x="444.67773"
       xlink:href="#LiberationSans-110"
       id="use467"
       y="0"
       width="100%"
       height="100%"
       transform="matrix(0.12,0,0,-0.12,151.79153,41.52)" />
    <use
       style="fill:#262626"
       x="500.29297"
       xlink:href="#LiberationSans-32"
       id="use469"
       y="0"
       width="100%"
       height="100%"
       transform="matrix(0.12,0,0,-0.12,151.79153,41.52)" />
    <use
       style="fill:#262626"
       x="528.07617"
       xlink:href="#LiberationSans-97"
       id="use471"
       y="0"
       width="100%"
       height="100%"
       transform="matrix(0.12,0,0,-0.12,151.79153,41.52)" />
    <use
       style="fill:#262626"
       x="583.69141"
       xlink:href="#LiberationSans-99"
       id="use473"
       y="0"
       width="100%"
       height="100%"
       transform="matrix(0.12,0,0,-0.12,151.79153,41.52)" />
    <use
       style="fill:#262626"
       x="633.69141"
       xlink:href="#LiberationSans-114"
       id="use475"
       y="0"
       width="100%"
       height="100%"
       transform="matrix(0.12,0,0,-0.12,151.79153,41.52)" />
    <use
       style="fill:#262626"
       x="666.99219"
       xlink:href="#LiberationSans-111"
       id="use477"
       y="0"
       width="100%"
       height="100%"
       transform="matrix(0.12,0,0,-0.12,151.79153,41.52)" />
    <use
       style="fill:#262626"
       x="722.60742"
       xlink:href="#LiberationSans-115"
       id="use479"
       y="0"
       width="100%"
       height="100%"
       transform="matrix(0.12,0,0,-0.12,151.79153,41.52)" />
    <use
       style="fill:#262626"
       x="772.60742"
       xlink:href="#LiberationSans-115"
       id="use481"
       y="0"
       width="100%"
       height="100%"
       transform="matrix(0.12,0,0,-0.12,151.79153,41.52)" />
    <use
       style="fill:#262626"
       x="822.60742"
       xlink:href="#LiberationSans-32"
       id="use483"
       y="0"
       width="100%"
       height="100%"
       transform="matrix(0.12,0,0,-0.12,151.79153,41.52)" />
    <use
       style="fill:#262626"
       x="850.39062"
       xlink:href="#LiberationSans-100"
       id="use485"
       y="0"
       width="100%"
       height="100%"
       transform="matrix(0.12,0,0,-0.12,151.79153,41.52)" />
    <use
       style="fill:#262626"
       x="906.00586"
       xlink:href="#LiberationSans-101"
       id="use487"
       y="0"
       width="100%"
       height="100%"
       transform="matrix(0.12,0,0,-0.12,151.79153,41.52)" />
    <use
       style="fill:#262626"
       x="961.62109"
       xlink:href="#LiberationSans-112"
       id="use489"
       y="0"
       width="100%"
       height="100%"
       transform="matrix(0.12,0,0,-0.12,151.79153,41.52)" />
    <use
       style="fill:#262626"
       x="1017.2363"
       xlink:href="#LiberationSans-97"
       id="use491"
       y="0"
       width="100%"
       height="100%"
       transform="matrix(0.12,0,0,-0.12,151.79153,41.52)" />
    <use
       style="fill:#262626"
       x="1072.8516"
       xlink:href="#LiberationSans-114"
       id="use493"
       y="0"
       width="100%"
       height="100%"
       transform="matrix(0.12,0,0,-0.12,151.79153,41.52)" />
    <use
       style="fill:#262626"
       x="1106.1523"
       xlink:href="#LiberationSans-116"
       id="use495"
       y="0"
       width="100%"
       height="100%"
       transform="matrix(0.12,0,0,-0.12,151.79153,41.52)" />
    <use
       style="fill:#262626"
       x="1133.9355"
       xlink:href="#LiberationSans-109"
       id="use497"
       y="0"
       width="100%"
       height="100%"
       transform="matrix(0.12,0,0,-0.12,151.79153,41.52)" />
    <use
       style="fill:#262626"
       x="1217.2363"
       xlink:href="#LiberationSans-101"
       id="use499"
       y="0"
       width="100%"
       height="100%"
       transform="matrix(0.12,0,0,-0.12,151.79153,41.52)" />
    <use
       style="fill:#262626"
       x="1272.8516"
       xlink:href="#LiberationSans-110"
       id="use501"
       y="0"
       width="100%"
       height="100%"
       transform="matrix(0.12,0,0,-0.12,151.79153,41.52)" />
    <use
       style="fill:#262626"
       x="1328.4668"
       xlink:href="#LiberationSans-116"
       id="use503"
       y="0"
       width="100%"
       height="100%"
       transform="matrix(0.12,0,0,-0.12,151.79153,41.52)" />
    <use
       style="fill:#262626"
       x="1356.25"
       xlink:href="#LiberationSans-115"
       id="use505"
       y="0"
       width="100%"
       height="100%"
       transform="matrix(0.12,0,0,-0.12,151.79153,41.52)" />
    <use
       style="fill:#262626"
       x="1406.25"
       xlink:href="#LiberationSans-32"
       id="use507"
       y="0"
       width="100%"
       height="100%"
       transform="matrix(0.12,0,0,-0.12,151.79153,41.52)" />
    <use
       style="fill:#262626"
       x="1434.0332"
       xlink:href="#LiberationSans-111"
       id="use509"
       y="0"
       width="100%"
       height="100%"
       transform="matrix(0.12,0,0,-0.12,151.79153,41.52)" />
    <use
       style="fill:#262626"
       x="1489.6484"
       xlink:href="#LiberationSans-102"
       id="use511"
       y="0"
       width="100%"
       height="100%"
       transform="matrix(0.12,0,0,-0.12,151.79153,41.52)" />
    <use
       style="fill:#262626"
       x="1517.4316"
       xlink:href="#LiberationSans-32"
       id="use513"
       y="0"
       width="100%"
       height="100%"
       transform="matrix(0.12,0,0,-0.12,151.79153,41.52)" />
    <use
       style="fill:#262626"
       x="1545.2148"
       xlink:href="#LiberationSans-101"
       id="use515"
       y="0"
       width="100%"
       height="100%"
       transform="matrix(0.12,0,0,-0.12,151.79153,41.52)" />
    <use
       style="fill:#262626"
       x="1600.8301"
       xlink:href="#LiberationSans-109"
       id="use517"
       y="0"
       width="100%"
       height="100%"
       transform="matrix(0.12,0,0,-0.12,151.79153,41.52)" />
    <use
       style="fill:#262626"
       x="1684.1309"
       xlink:href="#LiberationSans-112"
       id="use519"
       y="0"
       width="100%"
       height="100%"
       transform="matrix(0.12,0,0,-0.12,151.79153,41.52)" />
    <use
       style="fill:#262626"
       x="1739.7461"
       xlink:href="#LiberationSans-108"
       id="use521"
       y="0"
       width="100%"
       height="100%"
       transform="matrix(0.12,0,0,-0.12,151.79153,41.52)" />
    <use
       style="fill:#262626"
       x="1761.9629"
       xlink:href="#LiberationSans-111"
       id="use523"
       y="0"
       width="100%"
       height="100%"
       transform="matrix(0.12,0,0,-0.12,151.79153,41.52)" />
    <use
       style="fill:#262626"
       x="1817.5781"
       xlink:href="#LiberationSans-121"
       id="use525"
       y="0"
       width="100%"
       height="100%"
       transform="matrix(0.12,0,0,-0.12,151.79153,41.52)" />
    <use
       style="fill:#262626"
       x="1867.5781"
       xlink:href="#LiberationSans-101"
       id="use527"
       y="0"
       width="100%"
       height="100%"
       transform="matrix(0.12,0,0,-0.12,151.79153,41.52)" />
    <use
       style="fill:#262626"
       x="1923.1934"
       xlink:href="#LiberationSans-101"
       id="use529"
       y="0"
       width="100%"
       height="100%"
       transform="matrix(0.12,0,0,-0.12,151.79153,41.52)" />
    <use
       style="fill:#262626"
       x="1978.8086"
       xlink:href="#LiberationSans-32"
       id="use531"
       y="0"
       width="100%"
       height="100%"
       transform="matrix(0.12,0,0,-0.12,151.79153,41.52)" />
    <use
       style="fill:#262626"
       x="2006.5918"
       xlink:href="#LiberationSans-101"
       id="use533"
       y="0"
       width="100%"
       height="100%"
       transform="matrix(0.12,0,0,-0.12,151.79153,41.52)" />
    <use
       style="fill:#262626"
       x="2062.207"
       xlink:href="#LiberationSans-97"
       id="use535"
       y="0"
       width="100%"
       height="100%"
       transform="matrix(0.12,0,0,-0.12,151.79153,41.52)" />
    <use
       style="fill:#262626"
       x="2117.8223"
       xlink:href="#LiberationSans-114"
       id="use537"
       y="0"
       width="100%"
       height="100%"
       transform="matrix(0.12,0,0,-0.12,151.79153,41.52)" />
    <use
       style="fill:#262626"
       x="2151.123"
       xlink:href="#LiberationSans-110"
       id="use539"
       y="0"
       width="100%"
       height="100%"
       transform="matrix(0.12,0,0,-0.12,151.79153,41.52)" />
    <use
       style="fill:#262626"
       x="2206.7383"
       xlink:href="#LiberationSans-105"
       id="use541"
       y="0"
       width="100%"
       height="100%"
       transform="matrix(0.12,0,0,-0.12,151.79153,41.52)" />
    <use
       style="fill:#262626"
       x="2228.9551"
       xlink:href="#LiberationSans-110"
       id="use543"
       y="0"
       width="100%"
       height="100%"
       transform="matrix(0.12,0,0,-0.12,151.79153,41.52)" />
    <use
       style="fill:#262626"
       x="2284.5703"
       xlink:href="#LiberationSans-103"
       id="use545"
       y="0"
       width="100%"
       height="100%"
       transform="matrix(0.12,0,0,-0.12,151.79153,41.52)" />
    <use
       style="fill:#262626"
       x="2340.1855"
       xlink:href="#LiberationSans-115"
       id="use547"
       y="0"
       width="100%"
       height="100%"
       transform="matrix(0.12,0,0,-0.12,151.79153,41.52)" />
    <use
       style="fill:#262626"
       x="2390.1855"
       xlink:href="#LiberationSans-32"
       id="use549"
       y="0"
       width="100%"
       height="100%"
       transform="matrix(0.12,0,0,-0.12,151.79153,41.52)" />
    <use
       style="fill:#262626"
       x="2417.9688"
       xlink:href="#LiberationSans-40"
       id="use551"
       y="0"
       width="100%"
       height="100%"
       transform="matrix(0.12,0,0,-0.12,151.79153,41.52)" />
    <use
       style="fill:#262626"
       x="2451.2695"
       xlink:href="#LiberationSans-50"
       id="use553"
       y="0"
       width="100%"
       height="100%"
       transform="matrix(0.12,0,0,-0.12,151.79153,41.52)" />
    <use
       style="fill:#262626"
       x="2506.8848"
       xlink:href="#LiberationSans-48"
       id="use555"
       y="0"
       width="100%"
       height="100%"
       transform="matrix(0.12,0,0,-0.12,151.79153,41.52)" />
    <use
       style="fill:#262626"
       x="2562.5"
       xlink:href="#LiberationSans-49"
       id="use557"
       y="0"
       width="100%"
       height="100%"
       transform="matrix(0.12,0,0,-0.12,151.79153,41.52)" />
    <use
       style="fill:#262626"
       x="2618.1152"
       xlink:href="#LiberationSans-57"
       id="use559"
       y="0"
       width="100%"
       height="100%"
       transform="matrix(0.12,0,0,-0.12,151.79153,41.52)" />
    <use
       style="fill:#262626"
       x="2673.7305"
       xlink:href="#LiberationSans-41"
       id="use561"
       y="0"
       width="100%"
       height="100%"
       transform="matrix(0.12,0,0,-0.12,151.79153,41.52)" />
    <path
       d="m 568.72122,63.766875 h 20 v -7 h -20 z"
       style="fill:#4c72b0"
       id="path566" />
    <g
       style="fill:#262626"
       transform="matrix(0.1,0,0,-0.1,596.72122,63.766875)"
       id="g586">
      <use
         xlink:href="#LiberationSans-114"
         id="use572"
         x="0"
         y="0"
         width="100%"
         height="100%" />
      <use
         x="33.300781"
         xlink:href="#LiberationSans-101"
         id="use574"
         y="0"
         width="100%"
         height="100%" />
      <use
         x="88.916016"
         xlink:href="#LiberationSans-103"
         id="use576"
         y="0"
         width="100%"
         height="100%" />
      <use
         x="144.53125"
         xlink:href="#LiberationSans-117"
         id="use578"
         y="0"
         width="100%"
         height="100%" />
      <use
         x="200.14648"
         xlink:href="#LiberationSans-108"
         id="use580"
         y="0"
         width="100%"
         height="100%" />
      <use
         x="222.36328"
         xlink:href="#LiberationSans-97"
         id="use582"
         y="0"
         width="100%"
         height="100%" />
      <use
         x="277.97852"
         xlink:href="#LiberationSans-114"
         id="use584"
         y="0"
         width="100%"
         height="100%" />
    </g>
    <path
       d="m 568.72122,78.08875 h 20 v -7 h -20 z"
       style="fill:#55a868"
       id="path589" />
    <g
       style="fill:#262626"
       transform="matrix(0.1,0,0,-0.1,596.72122,78.08875)"
       id="g611">
      <use
         xlink:href="#LiberationSans-111"
         id="use595"
         x="0"
         y="0"
         width="100%"
         height="100%" />
      <use
         x="55.615234"
         xlink:href="#LiberationSans-118"
         id="use597"
         y="0"
         width="100%"
         height="100%" />
      <use
         x="105.61523"
         xlink:href="#LiberationSans-101"
         id="use599"
         y="0"
         width="100%"
         height="100%" />
      <use
         x="161.23047"
         xlink:href="#LiberationSans-114"
         id="use601"
         y="0"
         width="100%"
         height="100%" />
      <use
         x="194.53125"
         xlink:href="#LiberationSans-116"
         id="use603"
         y="0"
         width="100%"
         height="100%" />
      <use
         x="222.31445"
         xlink:href="#LiberationSans-105"
         id="use605"
         y="0"
         width="100%"
         height="100%" />
      <use
         x="244.53125"
         xlink:href="#LiberationSans-109"
         id="use607"
         y="0"
         width="100%"
         height="100%" />
      <use
         x="327.83203"
         xlink:href="#LiberationSans-101"
         id="use609"
         y="0"
         width="100%"
         height="100%" />
    </g>
    <path
       d="m 568.72122,92.410625 h 20 v -7 h -20 z"
       style="fill:#c44e52"
       id="path614" />
    <g
       style="fill:#262626"
       transform="matrix(0.1,0,0,-0.1,596.72122,92.410625)"
       id="g629">
      <use
         xlink:href="#LiberationSans-100"
         id="use617"
         x="0"
         y="0"
         width="100%"
         height="100%" />
      <use
         x="55.615234"
         xlink:href="#LiberationSans-101"
         id="use619"
         y="0"
         width="100%"
         height="100%" />
      <use
         x="111.23047"
         xlink:href="#LiberationSans-116"
         id="use621"
         y="0"
         width="100%"
         height="100%" />
      <use
         x="139.01367"
         xlink:href="#LiberationSans-97"
         id="use623"
         y="0"
         width="100%"
         height="100%" />
      <use
         x="194.62891"
         xlink:href="#LiberationSans-105"
         id="use625"
         y="0"
         width="100%"
         height="100%" />
      <use
         x="216.8457"
         xlink:href="#LiberationSans-108"
         id="use627"
         y="0"
         width="100%"
         height="100%" />
    </g>
    <path
       d="m 568.72122,106.7325 h 20 v -7 h -20 z"
       style="fill:#8172b2"
       id="path632" />
    <g
       style="fill:#262626"
       transform="matrix(0.1,0,0,-0.1,596.72122,106.7325)"
       id="g648">
      <use
         xlink:href="#LiberationSans-111"
         id="use638"
         x="0"
         y="0"
         width="100%"
         height="100%" />
      <use
         x="55.615234"
         xlink:href="#LiberationSans-116"
         id="use640"
         y="0"
         width="100%"
         height="100%" />
      <use
         x="83.398438"
         xlink:href="#LiberationSans-104"
         id="use642"
         y="0"
         width="100%"
         height="100%" />
      <use
         x="139.01367"
         xlink:href="#LiberationSans-101"
         id="use644"
         y="0"
         width="100%"
         height="100%" />
      <use
         x="194.62891"
         xlink:href="#LiberationSans-114"
         id="use646"
         y="0"
         width="100%"
         height="100%" />
    </g>
  </g>
  <defs
     id="defs657">
    <clipPath
       id="pa45af4f251">
      <rect
         id="rect654"
         y="47.52"
         x="72"
         width="446.39999"
         height="298.98001" />
    </clipPath>
  </defs>
</svg>
